<svg width="37" height="37" viewBox="0 0 37 37" fill="none" xmlns="http://www.w3.org/2000/svg">
<path d="M18.2966 1C8.74381 1 1 8.74381 1 18.2966C1 27.8493 8.74381 35.5931 18.2966 35.5931C27.8493 35.5931 35.5931 27.8493 35.5931 18.2966C35.5931 8.74381 27.8493 1 18.2966 1ZM14.0625 25.4656H10.5599V14.194H14.0625V25.4656ZM12.2896 12.8103C11.1833 12.8103 10.4681 12.0266 10.4681 11.0572C10.4681 10.0681 11.205 9.30775 12.3346 9.30775C13.4643 9.30775 14.1562 10.0681 14.1778 11.0572C14.1778 12.0266 13.4643 12.8103 12.2896 12.8103ZM26.8547 25.4656H23.3522V19.219C23.3522 17.765 22.8441 16.7777 21.5775 16.7777C20.61 16.7777 20.0352 17.4461 19.7812 18.0894C19.6875 18.3182 19.6641 18.6425 19.6641 18.965V25.4638H16.1597V17.7885C16.1597 16.3813 16.1147 15.2048 16.0678 14.1922H19.1109L19.2713 15.7579H19.3416C19.8028 15.0228 20.9325 13.9382 22.8225 13.9382C25.1269 13.9382 26.8547 15.4823 26.8547 18.801V25.4656Z" fill="#928A97"/>
</svg>
