<svg width="37" height="37" viewBox="0 0 37 37" fill="none" xmlns="http://www.w3.org/2000/svg">
<g clip-path="url(#clip0_50_2563)">
<path d="M18.0517 0.720947C8.49894 0.720947 0.755127 8.46476 0.755127 18.0175C0.755127 27.5702 8.49894 35.3141 18.0517 35.3141C27.6044 35.3141 35.3482 27.5702 35.3482 18.0175C35.3482 8.46476 27.6044 0.720947 18.0517 0.720947ZM13.8176 25.1866H10.3151V13.915H13.8176V25.1866ZM12.0447 12.5312C10.9385 12.5312 10.2232 11.7475 10.2232 10.7782C10.2232 9.78903 10.9601 9.0287 12.0898 9.0287C13.2195 9.0287 13.9113 9.78903 13.9329 10.7782C13.9329 11.7475 13.2195 12.5312 12.0447 12.5312ZM26.6099 25.1866H23.1073V18.94C23.1073 17.486 22.5992 16.4986 21.3326 16.4986C20.3651 16.4986 19.7903 17.1671 19.5363 17.8103C19.4426 18.0391 19.4192 18.3634 19.4192 18.6859V25.1848H15.9148V17.5094C15.9148 16.1023 15.8698 14.9257 15.8229 13.9132H18.8661L19.0264 15.4789H19.0967C19.5579 14.7438 20.6876 13.6591 22.5776 13.6591C24.882 13.6591 26.6099 15.2032 26.6099 18.522V25.1866Z" fill="#928A97"/>
</g>
<defs>
<clipPath id="clip0_50_2563">
<rect width="36.0345" height="36.0345" fill="white" transform="translate(0.0344238)"/>
</clipPath>
</defs>
</svg>
