<svg width="52" height="114" viewBox="0 0 52 114" fill="none" xmlns="http://www.w3.org/2000/svg">
<path d="M51.3035 111.386C50.8935 110.516 49.7335 110.376 48.7735 110.356C36.7135 110.106 24.6034 109.776 12.5434 109.786C10.5034 109.786 8.33348 110.086 6.39348 110.726C5.26348 111.096 4.05345 111.686 5.49345 112.716C6.41345 113.366 8.85347 112.996 9.94347 113.036C16.4935 113.256 23.0435 113.246 29.5835 113.006C33.2135 112.876 36.8335 112.676 40.4635 112.406C41.4735 112.326 51.1135 110.966 51.3035 111.386Z" fill="url(#paint0_linear_160_16)"/>
<path d="M51.3035 111.386C50.8935 110.516 49.7335 110.376 48.7735 110.356C36.7135 110.106 24.6034 109.776 12.5434 109.786C10.5034 109.786 8.33348 110.086 6.39348 110.726C5.26348 111.096 4.05345 111.686 5.49345 112.716C6.41345 113.366 8.85347 112.996 9.94347 113.036C16.4935 113.256 23.0435 113.246 29.5835 113.006C33.2135 112.876 36.8335 112.676 40.4635 112.406C41.4735 112.326 51.1135 110.966 51.3035 111.386Z" fill="url(#paint1_linear_160_16)"/>
<path d="M18.7235 52.1458C19.0035 51.5458 19.3735 50.9458 20.0235 50.5758C20.8635 50.1058 21.9735 50.1358 22.9935 50.2058C24.5335 50.3158 26.0735 50.4757 27.5935 50.6857C28.8435 50.8657 30.1935 51.1258 30.9635 51.9458C31.6735 52.7058 31.6835 53.7458 31.6535 54.7058C31.4235 61.7458 30.0135 69.6457 29.5235 76.6857C29.0735 83.1357 28.7835 90.8758 28.1235 97.3158C27.8635 99.8158 27.9035 104.066 27.3235 108.706C27.2835 109.066 27.3335 108.856 27.1335 109.056C27.0235 109.006 26.9035 108.966 26.7435 108.956C26.2235 108.926 24.8235 109.306 24.3035 109.276C24.1835 109.266 24.0835 109.286 23.9935 109.306C23.7735 108.836 23.3735 103.556 23.3135 102.936C22.2535 90.2857 22.1035 77.4658 19.0835 65.0058C18.0435 60.7458 16.8235 56.2158 18.7235 52.1458Z" fill="#333333"/>
<path d="M11.9635 91.7957C12.3735 97.4857 12.3135 103.746 12.3635 109.446C13.2935 109.256 16.0635 109.206 16.9835 109.016C17.5835 105.656 17.6435 101.546 17.9135 98.1557C18.1035 95.7557 17.9635 93.3657 18.3235 90.9757C19.3335 84.2957 18.9035 73.4657 19.9135 66.7857C20.3635 63.8257 20.8135 60.8557 21.7435 57.9657C22.7435 54.8757 23.8735 50.4957 18.7735 49.5257C15.8935 48.9757 12.1835 49.7157 10.5435 51.7957C8.67347 54.1657 9.33352 57.5557 9.52352 60.1857C9.83352 64.5057 10.5835 72.9657 10.9035 77.2857C11.2635 82.1357 11.6135 86.9658 11.9635 91.7957Z" fill="#333333"/>
<path d="M26.6735 18.5957C27.3935 20.5157 27.5335 22.6057 27.7535 24.6457C28.7435 33.8757 31.4235 42.9357 31.5735 52.2157C31.5835 52.7057 31.5735 53.2257 31.2835 53.6257C31.0535 53.9357 30.6835 54.1057 30.3235 54.2657C24.4535 56.7957 17.7735 57.4057 11.5435 55.9857C10.4735 55.7357 9.30347 55.3557 8.74347 54.4057C8.12347 53.3357 8.50351 51.9957 8.85351 50.8157C10.6435 44.8157 11.3435 38.5657 12.2235 32.3857C12.6635 29.2857 13.1335 26.1957 13.8335 23.1357C14.2835 21.1557 14.7835 19.4657 17.0035 19.1457C20.2035 18.6857 23.4235 19.2557 26.6735 18.5957Z" fill="#97A8B2"/>
<path d="M29.1535 53.3057C28.0535 53.4257 26.9535 53.5857 25.8535 53.7557C25.7935 53.0957 25.7435 52.4357 25.6835 51.7657C26.1035 51.6857 26.5134 51.6057 26.9234 51.5057C27.1534 51.4457 27.1134 51.0657 26.8634 51.0857C26.4534 51.1357 26.0435 51.1857 25.6335 51.2357C25.4835 49.4157 25.3434 47.5957 25.2334 45.7757C25.5634 45.7157 25.8835 45.6557 26.2035 45.5857C26.5035 45.5257 26.3735 45.0657 26.0735 45.1257C25.7835 45.1857 25.4935 45.2358 25.2035 45.2958C25.1435 44.2958 25.0835 43.3057 25.0335 42.3057C25.3435 42.2557 25.6535 42.2158 25.9735 42.1658C26.2235 42.1258 26.1635 41.6957 25.9135 41.7157C25.6135 41.7457 25.3135 41.7757 25.0135 41.8057C24.9635 40.8557 24.9235 39.9057 24.8835 38.9457C25.2835 38.8557 25.6735 38.7658 26.0635 38.6558C26.3535 38.5758 26.2235 38.1757 25.9435 38.2157C25.5835 38.2657 25.2234 38.3157 24.8634 38.3657C24.8534 38.0357 24.8335 37.7157 24.8235 37.3857C24.8035 36.9557 24.7935 36.5257 24.7835 36.0957C25.1135 36.0457 25.4435 35.9757 25.7635 35.8757C26.0635 35.7757 25.9435 35.3157 25.6335 35.3957C25.3535 35.4657 25.0635 35.5157 24.7735 35.5557C24.7435 34.5757 24.7235 33.5957 24.7135 32.6157C24.8335 32.6057 24.9535 32.5957 25.0735 32.5857C25.3735 32.5557 25.3935 32.0857 25.0735 32.1057C24.9535 32.1157 24.8335 32.1157 24.7135 32.1257C24.7035 31.2257 24.6935 30.3157 24.6835 29.4157C25.0935 29.3557 25.4935 29.2857 25.9035 29.2057C26.1635 29.1557 26.1035 28.7157 25.8435 28.7457C25.4535 28.7857 25.0735 28.8157 24.6835 28.8557C24.6735 27.9057 24.6635 26.9557 24.6535 26.0057C25.1135 25.9457 25.5635 25.8757 26.0135 25.7757C26.2335 25.7257 26.1835 25.3657 25.9635 25.3757C25.5235 25.3957 25.0835 25.4257 24.6535 25.4557C24.6435 24.8457 24.6335 24.2357 24.6235 23.6257C24.9435 23.5657 25.2735 23.5057 25.5935 23.4257C25.8735 23.3557 25.7535 22.9457 25.4735 22.9957C25.1835 23.0457 24.8934 23.0857 24.6134 23.1357C24.6034 22.6057 24.5835 22.0757 24.5735 21.5457C24.8935 21.5557 25.2135 21.5757 25.5335 21.5857C25.8835 21.5957 25.8835 21.0557 25.5335 21.0457C25.2135 21.0357 24.8835 21.0257 24.5635 21.0257C24.5535 20.8457 24.5534 20.6757 24.5434 20.4957C24.5434 20.4357 24.4535 20.4357 24.4435 20.4957C24.4335 20.6657 24.4235 20.8457 24.4035 21.0257C23.8235 21.0157 23.2335 20.9957 22.6535 20.9757C22.6535 20.8557 22.6435 20.7457 22.6435 20.6257C22.6435 20.5157 22.4735 20.5157 22.4735 20.6257C22.4735 20.7457 22.4735 20.8557 22.4735 20.9757C21.9035 20.9557 21.3335 20.9357 20.7535 20.9157C20.7535 20.8357 20.7535 20.7657 20.7435 20.6857C20.7435 20.5657 20.5534 20.5657 20.5534 20.6857C20.5534 20.7557 20.5534 20.8358 20.5534 20.9058C20.0134 20.8858 19.4735 20.8657 18.9335 20.8357C18.9435 20.5957 18.9535 20.3557 18.9735 20.1157C18.9835 20.0157 18.8134 19.9857 18.7934 20.0957C18.7534 20.3357 18.7135 20.5857 18.6835 20.8257C17.8935 20.7857 17.1035 20.7457 16.3135 20.6857C16.1635 20.6757 16.1635 20.9057 16.3135 20.9257C17.0835 21.0057 17.8635 21.0858 18.6335 21.1558C18.5435 21.9058 18.5034 22.6557 18.4834 23.4157C17.8134 23.3657 17.1435 23.2858 16.4735 23.1558C16.4935 22.5758 16.5135 22.0057 16.5335 21.4257C16.5435 21.3057 16.3535 21.3057 16.3435 21.4257C16.3135 21.9857 16.2935 22.5457 16.2735 23.1157C15.9435 23.0557 15.6234 22.9858 15.2934 22.9058C15.1534 22.8658 15.0934 23.0957 15.2334 23.1257C15.5734 23.2157 15.9235 23.2857 16.2635 23.3657C16.2335 24.0657 16.2034 24.7757 16.1734 25.4757C15.9334 25.4457 15.6835 25.4257 15.4435 25.3957C15.2235 25.3657 15.2235 25.7157 15.4435 25.7457C15.6735 25.7757 15.9135 25.8057 16.1535 25.8357C16.1035 27.0057 16.0635 28.1657 16.0235 29.3357C15.6035 29.3257 15.1835 29.3057 14.7535 29.2757C14.5635 29.2657 14.5635 29.5557 14.7535 29.5657C15.1735 29.5957 15.5935 29.6157 16.0135 29.6457C15.9835 30.4757 15.9635 31.3057 15.9435 32.1357C15.2835 32.0857 14.6235 32.0357 13.9535 31.9557C13.7835 31.9357 13.7435 32.2357 13.9135 32.2557C14.5835 32.3557 15.2535 32.4357 15.9335 32.5057C15.9035 33.5557 15.8835 34.5957 15.8535 35.6457C15.7335 35.6457 15.6135 35.6357 15.5035 35.6357C15.2935 35.6257 15.2935 35.9457 15.5035 35.9657C15.6235 35.9757 15.7335 35.9757 15.8535 35.9857C15.8335 37.1357 15.8134 38.2757 15.8034 39.4257C15.0034 39.4657 14.2035 39.4957 13.3935 39.4857C13.2035 39.4857 13.2035 39.7758 13.3935 39.7858C14.1835 39.8058 14.9934 39.8157 15.8034 39.8157C15.7934 40.9057 15.7834 41.9957 15.7934 43.0857C15.1934 43.1757 14.5935 43.2757 13.9934 43.3657C13.9034 43.3757 13.9235 43.5257 14.0135 43.5157C14.6035 43.4557 15.1934 43.4058 15.7934 43.3458C15.7934 44.2858 15.8035 45.2258 15.8235 46.1658C15.2035 46.1558 14.5835 46.1457 13.9535 46.1157C13.8735 46.1157 13.8835 46.2257 13.9535 46.2357C14.5735 46.3057 15.2035 46.3457 15.8235 46.3857C15.8335 47.2157 15.8535 48.0457 15.8835 48.8657C14.9035 48.9157 13.9135 48.9358 12.9035 48.9058C12.7935 48.9058 12.8035 49.0657 12.9035 49.0657C13.8835 49.1057 14.8835 49.1257 15.8935 49.1157C15.9235 50.1557 15.9535 51.1957 15.9935 52.2357C15.0235 52.2357 14.0535 52.1957 13.0735 52.0857C12.9235 52.0657 12.8835 52.3358 13.0335 52.3558C14.0235 52.4958 15.0135 52.5657 16.0035 52.5857C16.0335 53.3357 16.0734 54.0958 16.1134 54.8458C14.7634 54.8358 13.4035 54.7358 12.0135 54.5358C11.9535 54.5258 11.9234 54.6057 11.9834 54.6357C13.2634 55.1357 14.6935 55.3157 16.1335 55.3257C16.1435 55.4157 16.1435 55.5158 16.1435 55.6058C16.1635 55.8858 16.5835 55.8858 16.5835 55.6058C16.5835 55.5158 16.5835 55.4157 16.5735 55.3157C17.8435 55.2957 19.1134 55.1657 20.2934 55.0257C20.2934 55.0357 20.2934 55.0358 20.2934 55.0458C20.2834 55.4058 20.8435 55.4058 20.8535 55.0458C20.8535 55.0158 20.8535 54.9857 20.8535 54.9557C21.4735 54.8757 22.1035 54.7857 22.7235 54.6857C22.7435 54.9757 23.1935 54.9657 23.1835 54.6757C23.1835 54.6557 23.1835 54.6357 23.1835 54.6157C23.9435 54.4957 24.7035 54.3757 25.4535 54.2557C25.4935 54.5557 25.9635 54.5557 25.9335 54.2457C25.9335 54.2257 25.9334 54.2057 25.9234 54.1757C27.0034 54.0057 28.0935 53.8457 29.1835 53.7357C29.4435 53.7257 29.4435 53.2757 29.1535 53.3057ZM25.1435 51.3057C24.4635 51.3957 23.7834 51.4957 23.1134 51.5857C23.1034 50.5257 23.0935 49.4758 23.0835 48.4158C23.6235 48.3058 24.1635 48.1757 24.6935 48.0257C24.9435 47.9557 24.8335 47.6057 24.5935 47.6457C24.0935 47.7357 23.5835 47.8358 23.0835 47.9158C23.0735 47.3158 23.0735 46.7157 23.0635 46.1157C23.6135 46.0457 24.1635 45.9657 24.7135 45.8657C24.8335 47.6957 24.9835 49.5057 25.1435 51.3057ZM18.8835 36.1157C19.4635 36.1357 20.0434 36.1458 20.6134 36.1558C20.6034 37.0958 20.6035 38.0357 20.5935 38.9657C20.0135 39.0357 19.4335 39.1058 18.8535 39.1658C18.8635 38.5258 18.8735 37.8857 18.8835 37.2457C18.8835 36.8757 18.8835 36.4957 18.8835 36.1157ZM18.9035 28.8757C18.9035 27.9557 18.8834 27.0357 18.8634 26.1057C19.4434 26.1457 20.0235 26.1757 20.6035 26.1957C20.6135 27.2057 20.6235 28.2057 20.6335 29.2157C20.0535 29.2557 19.4835 29.2957 18.9035 29.3157C18.9035 29.1657 18.9035 29.0257 18.9035 28.8757ZM20.9834 45.9158C20.9934 44.8858 21.0035 43.8457 21.0035 42.8157C21.5135 42.7557 22.0135 42.7057 22.5235 42.6357C22.5435 43.6657 22.5535 44.6958 22.5735 45.7258C22.0335 45.8058 21.5034 45.8658 20.9834 45.9158ZM22.5735 46.1857C22.5835 46.7957 22.5935 47.4057 22.6035 48.0157C22.0535 48.1157 21.5035 48.2058 20.9535 48.2858C20.9635 47.6358 20.9734 46.9857 20.9834 46.3357C21.5034 46.2957 22.0435 46.2457 22.5735 46.1857ZM21.0035 42.2958C21.0035 41.3858 21.0035 40.4757 21.0035 39.5757C21.4935 39.5257 21.9935 39.4657 22.4735 39.3957C22.4835 40.2957 22.4935 41.1958 22.5135 42.0958C22.0035 42.1558 21.5035 42.2258 21.0035 42.2958ZM20.9935 38.9158C20.9935 37.9958 20.9835 37.0758 20.9735 36.1558C21.0235 36.1558 21.0634 36.1558 21.1134 36.1558C21.5334 36.1558 21.9834 36.1757 22.4234 36.1857C22.4334 37.0257 22.4435 37.8657 22.4535 38.7057C21.9735 38.7857 21.4834 38.8558 20.9935 38.9158ZM20.9735 35.7257C20.9635 34.7557 20.9535 33.7857 20.9435 32.8057C21.4235 32.8057 21.9135 32.7957 22.3935 32.7857C22.4035 33.7657 22.4134 34.7457 22.4234 35.7257C21.9434 35.7257 21.4535 35.7257 20.9735 35.7257ZM20.9335 32.2657C20.9235 31.4257 20.9135 30.5757 20.8935 29.7357C21.3835 29.7257 21.8835 29.6957 22.3735 29.6657C22.3735 30.5257 22.3835 31.3757 22.3835 32.2357C21.9135 32.2457 21.4235 32.2557 20.9335 32.2657ZM20.8935 29.1957C20.8735 28.1957 20.8535 27.1957 20.8335 26.1957C21.3535 26.2057 21.8635 26.1957 22.3835 26.1857C22.3835 27.1457 22.3735 28.1157 22.3835 29.0757C21.8835 29.1157 21.3835 29.1557 20.8935 29.1957ZM20.8235 25.7057C20.8135 25.1057 20.7935 24.5157 20.7835 23.9157C21.3235 23.9257 21.8635 23.9157 22.3935 23.8857C22.3935 24.4657 22.3835 25.0557 22.3835 25.6357C21.8635 25.6757 21.3435 25.6957 20.8235 25.7057ZM20.5935 25.7057C20.0135 25.7057 19.4335 25.6957 18.8535 25.6657C18.8435 25.0357 18.8335 24.4057 18.8335 23.7857C19.4135 23.8457 19.9935 23.8958 20.5735 23.9058C20.5835 24.5158 20.5935 25.1157 20.5935 25.7057ZM20.6335 29.7457C20.6335 30.5857 20.6335 31.4257 20.6335 32.2657C20.0535 32.2757 19.4835 32.2657 18.9035 32.2557C18.9035 31.4257 18.9035 30.5857 18.9035 29.7457C19.4835 29.7657 20.0535 29.7557 20.6335 29.7457ZM20.6335 32.8057C20.6335 33.7757 20.6235 34.7557 20.6235 35.7257C20.0435 35.7257 19.4635 35.7257 18.8935 35.7157C18.9035 34.7257 18.9035 33.7357 18.9035 32.7457C19.4835 32.7757 20.0635 32.7957 20.6335 32.8057ZM20.5935 39.6058C20.5835 40.5258 20.5734 41.4358 20.5534 42.3558C19.9734 42.4358 19.3934 42.5258 18.8034 42.6058C18.8134 41.6458 18.8335 40.6858 18.8435 39.7258C19.4335 39.6958 20.0135 39.6558 20.5935 39.6058ZM20.5434 42.8657C20.5234 43.8957 20.5034 44.9357 20.4834 45.9657C19.9034 46.0157 19.3335 46.0658 18.7535 46.0958C18.7735 45.0758 18.7834 44.0658 18.7934 43.0458C19.3834 42.9958 19.9634 42.9357 20.5434 42.8657ZM18.7535 46.4357C19.3335 46.4257 19.9034 46.4057 20.4834 46.3657C20.4734 47.0257 20.4535 47.6958 20.4335 48.3558C19.8535 48.4458 19.2835 48.5258 18.7035 48.5958C18.7135 47.8858 18.7335 47.1657 18.7535 46.4357ZM20.4234 48.8458C20.4034 49.8758 20.3735 50.9057 20.3435 51.9457C19.7735 52.0157 19.1935 52.0657 18.6235 52.1157C18.6435 51.0757 18.6735 50.0457 18.6935 49.0057C19.2735 48.9657 19.8434 48.9158 20.4234 48.8458ZM20.9435 48.7757C21.5035 48.7057 22.0535 48.6157 22.6035 48.5057C22.6235 49.5557 22.6335 50.6057 22.6435 51.6457C22.0535 51.7257 21.4735 51.8057 20.8835 51.8757C20.9135 50.8457 20.9235 49.8157 20.9435 48.7757ZM24.6734 45.4058C24.1334 45.5058 23.5934 45.5957 23.0534 45.6757C23.0434 44.6457 23.0335 43.6158 23.0235 42.5958C23.5135 42.5358 24.0034 42.4657 24.4834 42.4058C24.5434 43.3958 24.6134 44.3958 24.6734 45.4058ZM24.4635 41.8657C23.9835 41.9157 23.5035 41.9757 23.0335 42.0257C23.0235 41.1257 23.0135 40.2157 23.0035 39.3157C23.4535 39.2457 23.8935 39.1657 24.3435 39.0757C24.3735 40.0057 24.4135 40.9357 24.4635 41.8657ZM24.2635 37.3957C24.2735 37.7457 24.2935 38.1057 24.3135 38.4557C23.8735 38.5157 23.4334 38.5857 22.9935 38.6457C22.9834 37.8357 22.9735 37.0257 22.9635 36.2157C23.3835 36.2257 23.8035 36.2157 24.2235 36.1757C24.2335 36.5857 24.2535 36.9857 24.2635 37.3957ZM24.2035 35.6357C23.7935 35.6757 23.3735 35.6957 22.9535 35.7157C22.9435 34.7357 22.9235 33.7457 22.9135 32.7657C23.3235 32.7457 23.7235 32.7157 24.1235 32.6857C24.1535 33.6657 24.1735 34.6557 24.2035 35.6357ZM24.1235 32.1657C23.7135 32.1857 23.3135 32.2057 22.9135 32.2157C22.9035 31.3557 22.8834 30.4957 22.8634 29.6357C23.2734 29.5957 23.6835 29.5557 24.0935 29.5057C24.0935 30.3857 24.1035 31.2757 24.1235 32.1657ZM24.0835 28.9157C23.6735 28.9557 23.2635 28.9957 22.8535 29.0357C22.8335 28.0757 22.8035 27.1257 22.7835 26.1657C23.2335 26.1457 23.6835 26.1057 24.1235 26.0557C24.0935 27.0157 24.0835 27.9657 24.0835 28.9157ZM24.1335 25.5057C23.6735 25.5457 23.2235 25.5757 22.7635 25.6157C22.7435 25.0357 22.7335 24.4557 22.7135 23.8757C23.2135 23.8357 23.7035 23.7857 24.2035 23.7057C24.1635 24.3057 24.1435 24.9057 24.1335 25.5057ZM24.3235 21.5457C24.2835 22.0957 24.2535 22.6457 24.2235 23.1957C23.7135 23.2657 23.2035 23.3257 22.6935 23.3757C22.6735 22.7357 22.6535 22.0957 22.6335 21.4557C23.1935 21.4957 23.7535 21.5157 24.3235 21.5457ZM22.4234 21.4457C22.4134 22.0957 22.4135 22.7457 22.4035 23.3957C21.8635 23.4457 21.3135 23.4757 20.7735 23.4857C20.7535 22.7657 20.7435 22.0457 20.7235 21.3357C21.2835 21.3757 21.8534 21.4057 22.4234 21.4457ZM18.8835 21.1757C19.4335 21.2257 19.9735 21.2657 20.5235 21.3157C20.5435 22.0457 20.5535 22.7657 20.5635 23.4957C19.9835 23.5057 19.4135 23.4857 18.8335 23.4557C18.8335 22.6957 18.8435 21.9357 18.8835 21.1757ZM16.4234 23.4157C17.0934 23.5557 17.7635 23.6557 18.4335 23.7457C18.4235 24.3857 18.4235 25.0257 18.4335 25.6657C17.7335 25.6257 17.0435 25.5757 16.3535 25.5057C16.3735 24.8057 16.4034 24.1057 16.4234 23.4157ZM16.3335 25.8657C17.0235 25.9457 17.7235 26.0157 18.4335 26.0757C18.4435 26.7657 18.4535 27.4557 18.4535 28.1357C18.4535 28.5357 18.4535 28.9257 18.4535 29.3257C17.7235 29.3457 16.9935 29.3557 16.2635 29.3357C16.2835 28.1857 16.3035 27.0257 16.3335 25.8657ZM16.2535 29.6558C16.9835 29.6958 17.7135 29.7257 18.4535 29.7357C18.4535 30.5757 18.4435 31.4057 18.4435 32.2457C17.7035 32.2257 16.9634 32.1957 16.2334 32.1457C16.2334 31.3257 16.2435 30.4958 16.2535 29.6558ZM16.2235 32.5457C16.9635 32.6257 17.7035 32.6857 18.4435 32.7257C18.4435 33.7257 18.4335 34.7157 18.4335 35.7157C17.6935 35.7057 16.9535 35.6858 16.2135 35.6558C16.2135 34.6158 16.2135 33.5757 16.2235 32.5457ZM16.2135 35.9957C16.9535 36.0357 17.6934 36.0757 18.4234 36.1057C18.4234 36.4057 18.4234 36.7057 18.4234 37.0057C18.4234 37.7457 18.4035 38.4857 18.4035 39.2157C17.6835 39.2857 16.9534 39.3457 16.2334 39.3957C16.2234 38.2657 16.2135 37.1357 16.2135 35.9957ZM16.2334 39.8057C16.9534 39.8057 17.6735 39.7857 18.3935 39.7557C18.3835 40.7257 18.3734 41.7057 18.3634 42.6757C17.6634 42.7857 16.9635 42.8857 16.2635 42.9957C16.2535 41.9357 16.2434 40.8657 16.2334 39.8057ZM16.2735 43.2958C16.9635 43.2358 17.6634 43.1658 18.3634 43.0958C18.3534 44.1058 18.3435 45.1157 18.3235 46.1157C17.6635 46.1457 16.9935 46.1558 16.3235 46.1558C16.3135 45.2057 16.2935 44.2458 16.2735 43.2958ZM16.3335 46.4058C16.9935 46.4358 17.6635 46.4557 18.3235 46.4457C18.3135 47.1757 18.2935 47.9157 18.2835 48.6457C17.6535 48.7157 17.0235 48.7757 16.3935 48.8157C16.3635 48.0157 16.3435 47.2057 16.3335 46.4058ZM16.3835 49.1058C17.0135 49.0958 17.6335 49.0758 18.2635 49.0358C18.2435 50.0758 18.2235 51.1157 18.2035 52.1558C17.6235 52.1958 17.0435 52.2257 16.4535 52.2357C16.4335 51.1857 16.4135 50.1458 16.3835 49.1058ZM16.5235 54.8657C16.5035 54.1157 16.4835 53.3658 16.4735 52.6058C17.0535 52.6058 17.6235 52.5957 18.2035 52.5757C18.1935 53.2157 18.1835 53.8657 18.1635 54.5057C18.1535 54.7757 18.5735 54.7757 18.5735 54.5057C18.5935 53.8557 18.6034 53.2058 18.6134 52.5458C19.1134 52.5158 19.6035 52.4857 20.1035 52.4357C20.1835 52.4257 20.2535 52.4258 20.3335 52.4158C20.3135 53.1458 20.2935 53.8757 20.2735 54.6157C19.0035 54.7657 17.7635 54.8557 16.5235 54.8657ZM20.8235 54.5458C20.8435 53.8158 20.8535 53.0957 20.8735 52.3757C21.4635 52.3257 22.0535 52.2657 22.6535 52.2057C22.6635 52.8957 22.6734 53.5857 22.6734 54.2757C22.1734 54.3557 21.6835 54.4357 21.1835 54.5057C21.0635 54.5157 20.9435 54.5258 20.8235 54.5458ZM23.1235 52.1457C23.8235 52.0657 24.5135 51.9758 25.2035 51.8558C25.2635 52.5158 25.3235 53.1657 25.3835 53.8257C24.6335 53.9457 23.8935 54.0657 23.1435 54.1957C23.1335 53.5157 23.1235 52.8257 23.1235 52.1457Z" fill="#A4B2BA"/>
<path d="M11.3435 21.3258C10.6735 22.1758 10.3135 23.2158 9.92348 24.2258C8.97348 26.6558 7.76349 28.9858 6.30349 31.1558C5.66349 32.1158 4.96353 33.0458 4.53353 34.1158C4.10353 35.1858 3.95349 36.4258 4.43349 37.4758C4.80349 38.2858 5.49353 38.8958 6.22353 39.4058C6.76353 39.7858 7.37353 40.1358 8.03353 40.1458C9.00353 40.1558 9.8435 39.3958 10.2535 38.5158C10.6635 37.6358 10.7435 36.6458 10.8735 35.6758C11.2535 32.7758 12.0935 29.9658 13.0135 27.1958C13.4735 25.8058 13.9535 24.4258 14.4135 23.0258C14.6735 22.2358 15.6235 20.3658 14.5635 19.7758C13.5635 19.2258 11.9035 20.6158 11.3435 21.3258Z" fill="#F2F2F2"/>
<path d="M21.3035 3.71576C20.1335 3.54576 18.9535 3.45575 17.7735 3.39575C16.4735 4.80575 15.6635 6.67574 15.2235 8.60574C14.8735 10.1557 14.7635 11.7957 15.0935 13.3557C15.4335 14.9157 16.2435 16.3757 17.4835 17.2557C19.3635 18.5857 21.9935 18.3258 23.8135 16.8958C25.6335 15.4758 26.6635 13.0658 26.8435 10.6458C26.9935 8.60575 26.5735 6.56574 25.8635 4.66574C24.4935 4.07574 22.6735 3.91576 21.3035 3.71576Z" fill="#E2D6CF"/>
<path d="M16.6435 109.226C15.8235 108.326 14.3634 109.196 13.3034 109.196C12.9334 109.426 12.8735 109.306 12.6335 109.606C12.1235 110.226 12.4534 110.376 11.4334 110.426C10.4134 110.476 9.27346 111.006 8.57346 111.526C8.45346 111.616 8.34347 111.726 8.33347 111.846C8.31347 112.026 8.51346 112.196 8.75346 112.266C8.99346 112.346 9.26348 112.346 9.52348 112.356C12.2235 112.396 13.4335 112.326 16.1235 112.146C16.3635 112.126 16.6135 112.106 16.8135 112.016C17.5835 111.636 17.0835 109.706 16.6435 109.226Z" fill="#676868"/>
<path d="M31.6235 110.556C31.0935 110.246 30.3935 110.136 29.7135 110.146C29.0835 110.156 28.3635 110.226 27.9035 109.896C27.4335 109.556 27.3935 108.886 26.7735 108.726C26.5335 108.666 26.2635 108.706 26.0135 108.756C25.4535 108.856 24.9035 108.956 24.3435 109.066C24.2435 109.086 24.1335 109.106 24.0635 109.156C23.6635 109.446 23.8034 110.886 23.9334 111.286C24.0834 111.786 24.4435 112.106 25.0835 112.276C26.9735 112.786 29.8935 112.276 31.8535 112.136C31.9535 112.126 32.0635 112.116 32.1335 112.076C32.1935 112.036 32.2335 111.976 32.2535 111.926C32.4735 111.426 32.1535 110.876 31.6235 110.556Z" fill="#676868"/>
<path d="M10.2735 5.83573C10.5635 7.57573 12.1634 8.89572 13.8634 9.19572C15.5634 9.49572 17.3234 8.92572 18.8134 8.01572C20.4034 7.03572 21.8834 5.61571 23.7334 5.53571C24.0734 5.51571 24.4235 5.55572 24.7235 5.72572C25.0535 5.90572 25.2835 6.23571 25.4735 6.56571C26.5335 8.38571 26.6834 10.5857 26.8134 12.6957C27.3734 10.8657 27.8235 8.99572 28.1435 7.10572C28.4935 5.04572 28.5934 2.62572 27.1234 1.16572C26.0034 0.0557184 24.2834 -0.124288 22.7334 0.0657124C20.5534 0.335712 18.4535 1.26572 16.7635 2.69572C16.0935 3.26572 15.4735 3.91574 14.7535 4.40574C14.0235 4.89574 13.1435 5.23572 12.2835 5.07572C11.3335 4.89572 11.1534 4.09571 10.4834 3.62571C10.1934 4.27571 10.1535 5.13573 10.2735 5.83573Z" fill="#422E24"/>
<path d="M14.6135 50.5957C13.8535 58.4857 13.4035 66.3957 12.8335 74.3057C12.7935 74.8557 12.6935 75.4857 12.2135 75.7557C11.9535 75.8957 11.6335 75.8857 11.3435 75.8757C7.81352 75.7057 7.7635 75.4257 4.2635 74.9457C3.5335 74.8457 2.7035 74.6557 2.3835 73.9957C2.2535 73.7157 2.24348 73.3857 2.24348 73.0757C2.23348 71.1057 2.39352 69.1257 2.71352 67.1857C3.29352 63.7257 4.03347 59.9657 4.73347 56.5257C7.43347 43.2457 9.1235 37.0357 10.8235 26.6257C11.1735 24.4757 11.4835 22.1957 12.7935 20.4557C13.8135 19.1057 16.0335 17.9457 17.7235 18.7257C19.6035 19.5957 18.2135 23.0057 17.9635 24.6657C17.1435 30.1457 16.3535 35.6357 15.6635 41.1357C15.2835 44.2657 14.9235 47.4257 14.6135 50.5957Z" fill="#F2F2F2"/>
<path d="M24.3035 41.0057C25.3735 52.7357 26.4335 64.5457 25.2535 76.2657C25.2135 76.6457 25.2035 77.0857 25.4935 77.3257C25.6535 77.4557 25.8735 77.4957 26.0835 77.5157C28.2035 77.8057 30.3435 77.9857 32.4835 78.0457C32.8035 78.0557 33.1435 78.0557 33.4335 77.9157C34.0135 77.6357 34.1735 76.8957 34.2735 76.2657C35.1435 70.5257 34.0835 64.9857 34.5635 59.1957C34.7235 57.2857 34.4935 55.1757 34.4135 53.2657C34.2935 50.5757 33.6935 47.9357 33.0735 45.3257C31.2235 37.5257 31.0435 29.7157 28.9735 21.9757C28.5535 20.3957 28.0635 18.7157 26.8135 17.6557C26.5935 17.4657 26.3335 17.3057 26.0535 17.2857C25.7435 17.2657 25.4435 17.4257 25.1735 17.5757C23.6535 18.4357 22.4335 18.7057 22.4635 20.5657C22.5035 22.8757 22.8935 25.2357 23.0935 27.5357C23.4835 31.9657 24.3035 36.5657 24.3035 41.0057Z" fill="#F2F2F2"/>
<path d="M28.5635 19.4757C29.5935 19.8657 30.1835 20.9258 30.6435 21.9258C32.5835 26.1358 33.8935 30.6758 36.4035 34.5758C37.1535 35.7458 38.0535 37.0157 37.8235 38.3857C37.6235 39.5757 36.4535 40.5257 35.2535 40.4857C33.8935 40.4357 32.8235 39.3257 32.0935 38.1757C30.7435 36.0357 30.0835 33.5458 29.2635 31.1558C28.3035 28.3558 27.0635 25.6858 25.7935 23.0258C25.4135 22.2258 24.8235 21.2057 25.3735 20.3557C25.9635 19.4457 27.6235 19.1257 28.5635 19.4757Z" fill="#F2F2F2"/>
<path d="M30.6435 35.3057C30.5435 35.1557 30.5035 35.1157 30.3135 35.0957C30.0135 35.0657 29.4135 35.4257 29.1735 35.5157C28.6035 35.7257 28.0635 35.8357 27.4535 35.7557C27.3935 35.7457 27.3835 35.8457 27.4335 35.8557C27.4535 35.8657 27.4735 35.8657 27.4935 35.8757C27.4535 35.9057 27.4135 35.9557 27.4235 36.0157C27.5135 37.1257 27.8735 38.1457 28.2135 39.1957C28.5335 40.1857 28.6435 41.2857 29.0735 42.2357C29.3535 42.8557 29.8535 43.4357 30.5435 43.5857C31.1435 43.7157 31.6035 43.3957 31.7635 42.8157C31.9935 41.9657 31.8835 40.9157 31.6535 40.0857C31.3635 39.0457 31.1335 38.0557 30.9835 36.9857C30.9235 36.5357 30.9235 35.7157 30.6435 35.3057Z" fill="#AA6A64"/>
<path d="M29.6335 27.8657C29.3435 27.3157 28.2735 27.4057 27.7935 27.4657C26.7535 27.6057 25.7035 27.9557 24.7635 28.4157C24.7335 28.4357 24.7335 28.4757 24.7635 28.4957C24.6735 28.5757 24.6035 28.6657 24.5635 28.7857C24.3835 29.3357 25.0035 29.4757 25.4435 29.5157C25.3535 29.5757 25.3635 29.7457 25.5035 29.7357C25.5135 29.7357 25.5235 29.7357 25.5335 29.7357C26.1435 31.8857 26.7935 34.0257 27.3035 36.1957C27.8135 38.3357 28.2235 40.5157 29.0835 42.5557C29.2235 42.8757 29.3335 43.2857 29.6435 43.4857C29.9335 43.6757 30.4335 43.7057 30.7635 43.7057C31.3835 43.7057 32.0535 43.4157 32.1635 42.7457C32.2335 42.3557 32.1235 41.9157 32.0635 41.5257C31.9735 40.9457 31.8735 40.3657 31.7735 39.7857C31.5535 38.6257 31.3035 37.4757 31.0635 36.3257C30.5135 33.7757 30.0535 31.1757 29.2335 28.6957C29.2235 28.6657 29.2035 28.6457 29.1935 28.6257C29.5335 28.4357 29.8035 28.1857 29.6335 27.8657ZM25.1035 28.6557C25.2135 28.5357 25.6135 28.4957 25.7635 28.4557C26.2835 28.3257 26.8135 28.1957 27.3335 28.0657C27.5435 28.0157 27.7635 27.9557 27.9735 27.9057C28.1535 27.8557 28.3435 27.8357 28.5235 27.8257C28.8435 27.7557 29.0235 27.8857 29.0535 28.2357C28.9435 28.2557 28.9235 28.3757 28.9735 28.4457C28.5935 28.7557 27.9835 28.9157 27.5235 29.0357C27.0035 29.1757 26.4735 29.2457 25.9335 29.2557C25.7335 29.2457 24.5035 29.2857 25.1035 28.6557ZM30.7435 36.1757C30.9835 37.3257 31.2335 38.4757 31.4535 39.6257C31.5735 40.2457 31.6835 40.8657 31.7735 41.4857C31.8235 41.8157 31.9235 42.1957 31.9035 42.5357C31.8635 43.1857 31.3535 43.4257 30.7835 43.4357C30.3035 43.4457 29.8735 43.3957 29.5635 42.9557C29.3735 42.6757 29.2435 42.2357 29.1235 41.9357C28.9035 41.3657 28.7135 40.7757 28.5535 40.1857C28.2335 39.0757 27.9935 37.9457 27.7235 36.8257C27.1535 34.4357 26.5335 32.0357 25.6835 29.7257C26.8335 29.6257 27.9535 29.3557 29.0235 28.9257C29.7535 31.2957 30.2235 33.7457 30.7435 36.1757Z" fill="#D3E4EA"/>
<path d="M28.4835 31.8058C28.6035 31.7858 28.7235 31.7558 28.8435 31.7458C28.9535 31.7358 29.0635 31.7457 29.1735 31.7057C29.2735 31.6757 29.2735 31.5057 29.1535 31.5057C29.0335 31.5157 28.9335 31.5558 28.8135 31.5858C28.6935 31.6158 28.5735 31.6358 28.4435 31.6558C28.3535 31.6858 28.3935 31.8258 28.4835 31.8058Z" fill="#949494"/>
<path d="M29.4135 32.6657C29.1535 32.7657 28.9235 32.8357 28.6335 32.8357C28.5435 32.8357 28.5435 32.9757 28.6335 32.9757C28.9035 32.9757 29.2035 32.9557 29.4735 32.8857C29.6135 32.8457 29.5435 32.6057 29.4135 32.6657Z" fill="#949494"/>
<path d="M29.8535 34.8058C29.9835 34.7558 29.8935 34.5558 29.7635 34.5858C29.6735 34.6058 29.5835 34.6457 29.4935 34.6657C29.3935 34.6857 29.2935 34.6958 29.1935 34.6858C29.0935 34.6758 29.0835 34.8357 29.1935 34.8457C29.4035 34.8657 29.6535 34.8858 29.8535 34.8058Z" fill="#949494"/>
<path d="M30.1535 36.2357C29.9835 36.3357 29.8134 36.3657 29.6234 36.3757C29.5034 36.3857 29.5034 36.5657 29.6234 36.5557C29.8334 36.5457 30.0435 36.5057 30.2535 36.4757C30.4235 36.4457 30.3235 36.1357 30.1535 36.2357Z" fill="#949494"/>
<path d="M30.4334 37.8657C30.2934 37.9357 30.1434 37.9757 29.9834 37.9857C29.8634 37.9957 29.8534 38.1657 29.9834 38.1757C30.1734 38.1857 30.3534 38.1657 30.5434 38.1157C30.7334 38.0757 30.6234 37.7757 30.4334 37.8657Z" fill="#949494"/>
<path d="M30.8935 39.7057C30.6935 39.7457 30.5035 39.8058 30.2935 39.8458C30.1635 39.8658 30.2135 40.0658 30.3435 40.0458C30.5435 40.0158 30.7535 39.9958 30.9535 39.9758C31.1235 39.9458 31.0635 39.6657 30.8935 39.7057Z" fill="#949494"/>
<path d="M31.2035 40.9358C31.0735 40.9858 30.9335 41.0058 30.7835 40.9958C30.6735 40.9958 30.6335 41.1758 30.7535 41.1958C30.9135 41.2258 31.0735 41.2258 31.2335 41.2158C31.4535 41.2058 31.3835 40.8658 31.2035 40.9358Z" fill="#949494"/>
<path d="M31.1335 34.2357C30.9135 34.0757 30.5935 33.9357 30.3835 34.1057C30.3135 34.1657 30.2635 34.2457 30.1935 34.3157C29.9435 34.5457 29.5435 34.3857 29.2435 34.2357C28.8735 34.0557 28.4835 33.8857 28.0735 33.8557C27.6635 33.8157 27.2235 33.9357 26.9335 34.2357C26.5035 34.6957 26.5635 35.4357 26.7735 36.0357C26.9135 36.4357 27.1235 36.8257 27.4435 37.0857C27.6935 37.2857 27.9935 37.4057 28.3035 37.5057C29.1535 37.8057 30.0235 38.0458 30.9135 38.2258C31.4135 38.3258 31.9435 38.4058 32.4235 38.2258C34.5435 37.4258 32.0435 34.8857 31.1335 34.2357Z" fill="#E2D6CF"/>
<path d="M4.1035 32.3557C4.7735 32.0757 5.49348 31.8858 6.21348 31.8058C6.42348 31.7858 6.64349 31.7657 6.84349 31.8557C6.99349 31.9257 7.11349 32.0558 7.22349 32.1858C7.86349 32.9158 8.50348 33.6557 9.14348 34.3857C9.56348 34.8657 9.98348 35.3558 10.3335 35.8958C10.7735 36.5958 11.0835 37.3858 11.2135 38.2058C11.2435 38.3558 11.2635 38.5157 11.2235 38.6757C11.1335 39.0957 10.6834 39.3058 10.2934 39.4758C8.01344 40.4158 5.68349 41.3558 3.22349 41.4558C2.92349 41.4658 2.6135 41.4657 2.3535 41.3157C1.8335 41.0157 1.77349 40.2957 1.78349 39.6957C1.81349 38.0957 1.92345 36.5057 2.11345 34.9157C2.17345 34.4357 2.11345 33.4957 2.42345 33.0957C2.72345 32.7157 3.6535 32.5457 4.1035 32.3557Z" fill="#585973"/>
<path d="M11.1735 37.0757C10.7935 36.4057 10.4035 35.7457 10.0035 35.0957C9.21347 33.8257 8.32348 32.6557 7.26348 31.5957C6.51348 30.8457 5.98348 30.1357 5.76348 29.0857C5.58348 28.2457 5.57347 27.3657 5.31347 26.5457C5.25347 26.3657 5.20346 26.2257 5.11346 26.1157C5.59346 25.9757 6.02347 25.7857 6.31347 25.4757C6.77347 24.9757 6.71351 24.1857 6.16351 23.7857C5.37351 23.2157 3.87348 23.5657 3.01348 23.7657C2.52348 23.8857 1.81349 24.0557 1.21349 24.3457C1.17349 24.3457 1.12348 24.3457 1.07348 24.3757C0.973479 24.4357 0.88345 24.5057 0.79345 24.5757C0.54345 24.7357 0.333484 24.9257 0.203484 25.1557C-0.306516 26.0157 0.20346 26.3657 1.05346 26.4557C1.24346 26.5257 1.45345 26.5557 1.67345 26.5757C2.16345 28.1857 2.12349 29.7957 2.02349 31.4657C1.92349 33.1957 1.8235 34.9157 1.7235 36.6457C1.6735 37.5057 1.62348 38.3757 1.57348 39.2357C1.54348 39.8157 1.36348 40.5757 1.63348 41.1257C2.07348 42.0457 3.54346 41.8957 4.36346 41.7657C6.05346 41.4957 7.73347 40.9157 9.31347 40.2757C10.2135 39.9157 11.6335 39.6157 11.6735 38.4457C11.6635 37.9357 11.4035 37.4857 11.1735 37.0757ZM1.29345 25.5257C1.04345 25.3457 0.943494 25.1857 0.963494 25.0557L1.13348 24.9557C1.32348 24.7357 1.8835 24.6057 2.1535 24.5057C2.7235 24.2957 3.31351 24.1557 3.91351 24.0757C4.40351 24.0157 5.16348 23.8657 5.63348 24.0557C6.45348 24.3857 5.86351 25.1357 5.41351 25.4057C5.17351 25.5557 4.83347 25.5957 4.56347 25.6657C3.92347 25.8257 3.26351 25.9357 2.60351 25.9857C2.39351 26.0057 2.12345 26.0557 1.92345 26.0157C1.58345 26.1157 1.36345 25.9457 1.29345 25.5257ZM8.49346 40.0557C6.91346 40.6557 4.98348 41.4357 3.26348 41.3857C1.61348 41.3357 1.95348 39.7757 2.01348 38.6557C2.06348 37.7357 2.11351 36.8057 2.16351 35.8857C2.26351 34.1157 2.38348 32.3557 2.45348 30.5857C2.50348 29.2357 2.44348 27.9457 1.95348 26.6957C2.42348 26.6357 2.90347 26.5757 3.37347 26.5257C3.71347 26.4857 4.50349 26.2257 4.77349 26.5157C5.16349 26.9357 5.10346 28.2157 5.18346 28.7357C5.42346 30.1657 6.00347 31.0357 7.00347 32.0457C8.22347 33.2757 9.18348 34.6957 10.0735 36.1757C10.4035 36.7357 11.2035 37.7157 11.1435 38.4157C11.0735 39.3557 9.15346 39.8057 8.49346 40.0557Z" fill="#D3E4EA"/>
<path d="M3.61344 29.0757C3.80344 29.0257 3.70348 28.7157 3.53348 28.7857C3.31348 28.8757 3.09349 28.9457 2.85349 28.9657C2.78349 28.9757 2.75347 29.0857 2.83347 29.0957C3.09347 29.1357 3.35344 29.1357 3.61344 29.0757Z" fill="#949494"/>
<path d="M3.93345 30.3457C3.69345 30.4657 3.42349 30.5157 3.16349 30.5857C3.05349 30.6157 3.09348 30.7857 3.21348 30.7557C3.47348 30.6957 3.73346 30.6357 4.00346 30.6257C4.24346 30.6257 4.16345 30.2357 3.93345 30.3457Z" fill="#949494"/>
<path d="M4.3535 33.0657C4.6635 33.1057 4.53346 32.6557 4.31346 32.7957C4.09346 32.9357 3.75345 32.9657 3.49345 33.0257C3.38345 33.0557 3.43344 33.2257 3.54344 33.1957C3.66344 33.1757 3.78349 33.1457 3.90349 33.1257C4.04349 33.1057 4.2135 33.0457 4.3535 33.0657Z" fill="#949494"/>
<path d="M5.06348 35.2557C5.25348 35.1857 5.22349 34.9058 5.01349 34.9058C4.83349 34.9058 4.6435 34.9757 4.4635 35.0157C4.2935 35.0557 4.11349 35.0957 3.95349 35.1657C3.85349 35.2057 3.91348 35.3357 4.00348 35.3457C4.18348 35.3557 4.36346 35.3357 4.54346 35.3257C4.71346 35.3057 4.90348 35.3157 5.06348 35.2557Z" fill="#949494"/>
<path d="M5.25348 37.0358C4.93348 37.1058 4.62349 37.2657 4.32349 37.3857C4.17349 37.4457 4.30349 37.6658 4.45349 37.6058C4.74349 37.4858 5.04352 37.4357 5.35352 37.3757C5.57352 37.3357 5.48348 36.9858 5.25348 37.0358Z" fill="#949494"/>
<path d="M5.87348 39.0857C5.53348 39.2057 5.18352 39.3057 4.85352 39.4557C4.72352 39.5157 4.8135 39.7457 4.9535 39.6957C5.2735 39.5657 5.58348 39.4757 5.93348 39.4657C6.21348 39.4557 6.13348 39.0057 5.87348 39.0857Z" fill="#949494"/>
<path d="M2.29347 28.9257C2.45347 28.6657 2.63351 28.4057 2.90351 28.2757C3.12351 28.1757 3.37347 28.1757 3.61347 28.1057C4.25347 27.9057 4.67351 27.1657 5.33351 27.1257C5.61351 27.1057 5.88348 27.2157 6.12348 27.3657C6.59348 27.6457 6.9935 28.0957 7.0735 28.6357C7.1535 29.1557 6.92351 29.6757 6.59351 30.0757C6.26351 30.4757 5.83348 30.7957 5.43348 31.1257C4.83348 31.6257 4.2735 32.1757 3.7635 32.7757C3.3635 33.2457 2.85348 33.8057 2.24348 33.6957C1.96348 33.6457 1.73347 33.4557 1.54347 33.2457C0.323466 31.8757 1.51347 30.1957 2.29347 28.9257Z" fill="#E2D6CF"/>
<path d="M23.5035 21.9858C23.2135 22.2658 22.8435 22.5758 22.4435 22.4858C22.2135 22.4358 22.0335 22.2757 21.8835 22.0957C21.6835 21.8657 21.5135 21.6157 21.3735 21.3457C21.2735 21.1357 21.1835 20.9158 21.1935 20.6858C21.2135 20.3058 21.4835 19.9857 21.7635 19.7257C22.6335 18.8757 23.6235 18.1558 24.6935 17.5858C25.0135 17.4158 25.3735 17.2557 25.7335 17.3457C26.2635 17.4757 26.5135 18.0758 26.6735 18.6058C26.7935 19.0058 26.5535 19.0558 26.2935 19.2758C25.9535 19.5558 25.6535 19.8958 25.3335 20.2058C24.7235 20.8058 24.1135 21.3958 23.5035 21.9858Z" fill="#97A8B2"/>
<path d="M25.3235 19.3158C25.2935 19.3458 25.2635 19.3758 25.2235 19.4058C25.1335 19.1658 25.0535 18.9258 24.9635 18.6958C25.1035 18.5958 25.2335 18.4858 25.3735 18.3858C25.5135 18.2758 25.3335 18.0758 25.1935 18.1458C25.0735 18.2058 24.9635 18.2858 24.8435 18.3558C24.8235 18.2958 24.8035 18.2358 24.7835 18.1758C24.7435 18.0458 24.5335 18.1058 24.5835 18.2358C24.6135 18.3158 24.6335 18.3958 24.6635 18.4758C24.2735 18.7358 23.8935 19.0258 23.5335 19.3358C23.4735 19.1958 23.4235 19.0458 23.3735 18.9058C23.3335 18.8058 23.1735 18.8458 23.2135 18.9558C23.2735 19.1258 23.3335 19.3058 23.3835 19.4758C23.0335 19.7858 22.6935 20.1058 22.3735 20.4358V20.4158C22.3635 20.3558 22.2635 20.3758 22.2835 20.4458C22.2935 20.4658 22.2935 20.4958 22.3035 20.5258C22.0435 20.7858 21.7835 21.0558 21.5335 21.3158C21.4735 21.3758 21.5635 21.4658 21.6235 21.4058C21.8535 21.1758 22.1035 20.9658 22.3535 20.7558C22.4035 20.9558 22.4435 21.1558 22.4935 21.3558C22.5135 21.4258 22.6135 21.3958 22.5935 21.3258L22.4335 20.6858C22.7835 20.3958 23.1335 20.1158 23.4935 19.8458C23.5835 20.1458 23.6835 20.4558 23.7935 20.7458C23.4835 21.0358 23.1635 21.3258 22.8235 21.5958C22.7535 21.6558 22.8435 21.7758 22.9235 21.7258C23.2435 21.4958 23.5635 21.2458 23.8935 21.0058C23.9035 21.0258 23.9135 21.0458 23.9235 21.0658C23.9835 21.1958 24.1735 21.1058 24.1435 20.9758C24.1335 20.9358 24.1135 20.8858 24.1035 20.8458C24.6135 20.4458 25.1135 20.0158 25.5335 19.5358C25.6135 19.3758 25.4535 19.2158 25.3235 19.3158ZM23.9935 20.5258C23.8935 20.2358 23.7835 19.9558 23.6735 19.6758C24.0435 19.3958 24.4135 19.1158 24.7835 18.8358C24.8635 19.0758 24.9535 19.3258 25.0335 19.5658C25.0335 19.5658 25.0335 19.5658 25.0435 19.5758C24.6735 19.8858 24.3335 20.2058 23.9935 20.5258Z" fill="#A4B2BA"/>
<path d="M18.5634 19.4157C18.8034 19.6757 19.0034 19.9657 19.1834 20.2757C19.2834 20.4557 19.3935 20.6357 19.4135 20.8357C19.4535 21.1457 19.2935 21.4457 19.2035 21.7557C19.0635 22.2257 19.0134 22.8157 18.5634 23.0157C18.1834 23.1857 17.7634 22.9557 17.4234 22.7357C16.9334 22.4157 16.4335 22.1057 15.9435 21.7857C15.7435 21.6557 15.5334 21.5257 15.3734 21.3357C15.1534 21.0857 15.0334 20.7557 14.9934 20.4257C14.9134 19.7557 15.2534 18.6657 15.9934 18.4857C16.8634 18.2657 17.9634 18.7857 18.5634 19.4157Z" fill="#97A8B2"/>
<path d="M18.9435 20.7457C18.7135 20.5757 18.4734 20.4256 18.2334 20.2656C18.2634 20.1856 18.2935 20.1156 18.3135 20.0356C18.3635 19.8756 18.1135 19.8057 18.0635 19.9657C18.0535 20.0157 18.0235 20.0656 18.0035 20.1256C17.5735 19.8456 17.1234 19.5856 16.6734 19.3456C16.6934 19.2956 16.7234 19.2456 16.7434 19.1956C16.8034 19.0656 16.6234 18.9456 16.5434 19.0756C16.2534 19.5856 16.0134 20.1257 15.7434 20.6557C15.6834 20.6257 15.6234 20.5857 15.5534 20.5557C15.4634 20.5057 15.3835 20.6456 15.4735 20.6956C15.5335 20.7356 15.6035 20.7757 15.6635 20.8057C15.6535 20.8157 15.6535 20.8356 15.6435 20.8456C15.5935 20.9356 15.7235 21.0057 15.7735 20.9257C15.7835 20.9157 15.7834 20.9056 15.7934 20.8856C16.2934 21.1756 16.7934 21.4757 17.3034 21.7457C17.1834 22.0157 17.0635 22.2956 16.9735 22.5756C16.9535 22.6456 17.0635 22.6756 17.0835 22.6056C17.1735 22.3256 17.3035 22.0656 17.4435 21.8156C17.5935 21.8956 17.7435 21.9756 17.8935 22.0456C17.9735 22.0856 18.0435 21.9757 17.9635 21.9257C17.8235 21.8357 17.6735 21.7556 17.5235 21.6656C17.7635 21.2356 18.0135 20.8156 18.1935 20.3556C18.4335 20.5056 18.6635 20.6556 18.9035 20.8156C18.9435 20.8356 18.9735 20.7757 18.9435 20.7457ZM17.3935 21.5756C16.9035 21.2856 16.4035 21.0056 15.9035 20.7256C16.1635 20.2956 16.4235 19.8656 16.6435 19.4156C17.0935 19.6656 17.5434 19.9257 17.9834 20.2057C17.8134 20.6857 17.6035 21.1356 17.3935 21.5756Z" fill="#A4B2BA"/>
<path d="M24.1935 7.79567C24.8035 7.77567 25.5435 7.83567 25.8035 8.38567C25.8935 8.58567 25.8935 8.81566 25.8935 9.03566C25.8935 10.1057 25.8835 11.1757 25.8835 12.2457C23.0135 12.6657 20.1035 12.9057 17.2035 12.9557C16.4535 12.9657 15.6735 12.9657 15.0235 12.6057C14.7535 12.4657 14.5135 12.2557 14.4035 11.9657C14.3335 11.7757 14.3135 11.5757 14.3035 11.3657C14.2635 10.6457 13.8435 8.93568 14.3635 8.33568C14.8235 7.80568 15.8835 8.07567 16.4935 8.07567C19.0535 8.06567 21.6335 7.88567 24.1935 7.79567Z" fill="#F7F7F7"/>
<path d="M24.7335 8.77576C22.3435 8.85576 19.9535 8.93573 17.5735 8.87573C17.4435 8.87573 17.4435 9.10574 17.5735 9.10574C19.9635 9.02574 22.3535 9.01575 24.7335 8.92575C24.8235 8.92575 24.8235 8.77576 24.7335 8.77576Z" fill="#D9D9D9"/>
<path d="M25.0735 9.96574C25.2035 9.96574 25.2035 9.73573 25.0735 9.73573C22.6235 9.72573 20.1635 9.78572 17.7235 9.97572C17.6435 9.98572 17.6435 10.1357 17.7235 10.1257C20.1735 10.0057 22.6235 9.91574 25.0735 9.96574Z" fill="#D9D9D9"/>
<path d="M25.4435 10.5157C22.8735 10.6557 20.3035 10.8257 17.7335 10.9657C17.6735 10.9657 17.6735 11.0857 17.7335 11.0857C20.3035 10.9757 22.8735 10.9057 25.4435 10.7957C25.5935 10.7757 25.5935 10.5057 25.4435 10.5157Z" fill="#D9D9D9"/>
<path d="M16.5935 8.48573C16.0735 8.47573 15.5535 8.55574 15.0335 8.55574C14.9835 8.55574 14.9635 8.59573 14.9635 8.64573C14.8935 8.61573 14.8035 8.66574 14.8135 8.77574C14.8835 9.46574 14.9035 10.1657 14.8835 10.8657C14.7235 10.8657 14.7335 11.1357 14.8835 11.1557C15.2935 11.2157 15.7235 11.1657 16.1335 11.1657C16.1835 11.1657 16.2035 11.0657 16.1435 11.0557C15.7835 10.9957 15.4035 10.9057 15.0335 10.8757C15.1035 10.1757 15.1035 9.47574 15.0535 8.77574C15.0535 8.76574 15.0435 8.75574 15.0435 8.74574C15.5535 8.74574 16.0835 8.80572 16.5935 8.75572C16.7335 8.72572 16.7335 8.48573 16.5935 8.48573Z" fill="#D9D9D9"/>
<path d="M16.6535 8.80574C16.6535 8.74574 16.5735 8.74574 16.5735 8.80574C16.5335 9.52574 16.5035 10.2457 16.5235 10.9657C16.5235 11.0657 16.6635 11.0657 16.6635 10.9657C16.6535 10.2457 16.6335 9.52574 16.6535 8.80574Z" fill="#D9D9D9"/>
<defs>
<linearGradient id="paint0_linear_160_16" x1="4.83616" y1="111.488" x2="51.308" y2="111.488" gradientUnits="userSpaceOnUse">
<stop stop-color="#4D4D4D"/>
<stop offset="1"/>
</linearGradient>
<linearGradient id="paint1_linear_160_16" x1="4.83616" y1="111.488" x2="51.308" y2="111.488" gradientUnits="userSpaceOnUse">
<stop/>
<stop offset="1"/>
</linearGradient>
</defs>
</svg>
