<svg width="632" height="394" viewBox="0 0 632 394" fill="none" xmlns="http://www.w3.org/2000/svg">
<path d="M48.2787 212.914C52.7615 210.213 58.5944 211.65 61.2944 216.15C63.9945 220.633 62.5579 226.466 58.0578 229.166C53.575 231.866 47.7421 230.429 45.042 225.929C42.342 221.464 43.7958 215.631 48.2787 212.914Z" fill="#FCC9A7"/>
<path d="M59.027 213.589C58.7155 213.346 42.065 193.788 42.065 193.788L35.2629 202.027L50.2864 221.048L59.027 213.589Z" fill="#FCC9A7"/>
<path d="M44.9901 366.074L40.7495 385.441L27.353 383.434L31.6801 364.325L44.9901 366.074Z" fill="#FCC9A7"/>
<path d="M105.049 364.343L105.205 384.178L91.7222 385.182L91.6875 365.589L105.049 364.343Z" fill="#FCC9A7"/>
<path d="M42.4457 382.291C42.1688 381.478 41.1822 381.132 40.4726 381.651C39.0879 382.655 36.6475 383.832 33.1166 383.416C29.4473 382.984 28.1319 381.045 27.6819 379.661C27.4396 378.934 26.6607 378.553 25.9511 378.83L3.22544 387.934C1.84079 388.488 0.733031 389.561 0.161861 390.928C-0.392001 392.209 0.542692 393.646 1.94465 393.646L40.5592 393.922C42.0823 393.94 43.2939 392.676 43.2246 391.153L42.8958 383.693C42.8958 383.572 42.8612 383.451 42.8266 383.33L42.4457 382.291Z" fill="#0C0C0C"/>
<path d="M90.3547 382.291C90.6317 381.478 91.6356 381.132 92.3279 381.651C93.7125 382.655 96.153 383.832 99.6839 383.416C103.353 382.984 104.651 381.045 105.119 379.661C105.361 378.934 106.14 378.553 106.849 378.83L129.575 387.934C130.96 388.488 132.067 389.561 132.639 390.928C133.192 392.209 132.258 393.646 130.856 393.646L92.2414 393.922C90.7182 393.94 89.5067 392.676 89.5759 391.153L89.9047 383.693C89.9047 383.572 89.9394 383.451 89.974 383.33L90.3547 382.291Z" fill="#0C0C0C"/>
<path d="M90.1817 115.676L78.1872 116.715L59.1135 127.463V203.896H110.017V127.463L90.1817 115.676Z" fill="#54585A"/>
<path d="M86.8931 123.378H83.4488C79.8834 123.378 76.9929 120.488 76.9929 116.922V103.976H93.3318V116.922C93.3492 120.488 90.4586 123.378 86.8931 123.378Z" fill="#FCC9A7"/>
<path d="M76.9929 110.57C76.9929 110.57 79.5372 115.676 85.3182 115.676C91.0991 115.676 93.3318 110.467 93.3318 110.467L76.9929 110.57Z" fill="#F4BE9A"/>
<path d="M85.3527 112.682H84.8162C76.491 112.682 69.6369 106.105 69.308 97.7795L69.0138 89.4889C68.6677 80.679 75.712 73.3577 84.5219 73.3577H85.647C92.3106 73.3577 101.501 80.679 101.155 89.4889L100.861 97.7795C100.532 106.105 93.678 112.682 85.3527 112.682Z" fill="#FCC9A7"/>
<path d="M74.0678 95.7717C74.2582 98.5756 72.1467 100.999 69.3427 101.189C66.5388 101.38 64.1156 99.2679 63.9253 96.464C63.7349 93.6601 65.8464 91.2369 68.6504 91.0465C71.4543 90.8735 73.8774 92.9851 74.0678 95.7717Z" fill="#FCC9A7"/>
<path d="M106.226 95.7717C106.417 98.5756 104.305 100.999 101.501 101.189C98.6972 101.38 96.2741 99.2679 96.0837 96.464C95.8933 93.6601 98.005 91.2369 100.809 91.0465C103.613 90.8735 106.036 92.9851 106.226 95.7717Z" fill="#FCC9A7"/>
<path d="M59.1135 203.532L27.4569 371.82L45.6478 371.647L91.9299 203.861L59.1135 203.532Z" fill="#0C0C0C"/>
<path d="M110.017 203.896L108.026 371.993H88.797L81.1295 204.952L110.017 203.896Z" fill="#0C0C0C"/>
<path d="M59.1135 127.463C59.1135 127.463 16.6047 153.114 6.27173 170.907C4.24667 174.385 6.87747 178.886 10.443 180.738C14.3892 182.797 19.2529 181.395 21.5202 177.57L60.8444 154.758C60.8617 154.758 59.1135 135.165 59.1135 127.463Z" fill="#54585A"/>
<path d="M68.1311 80.0733L69.3253 92.8121H71.2465L71.4889 86.1311C71.4889 86.1311 72.4927 83.5695 76.9755 78.0655C76.9755 78.0655 79.9006 85.5426 98.0222 84.0887L99.0781 92.5351L100.947 92.3274L101.934 83.258C102.592 80.1944 102.817 77.3386 102.263 74.2577C101.138 68.0268 96.0665 64.5824 81.4237 68.9787C80.2122 69.3422 82.6872 69.0999 81.4237 68.9787C77.2352 68.5114 66.1926 68.4595 68.1311 80.0733Z" fill="#2E2A33"/>
<path d="M89.6971 202.684L85.5777 246.751C85.422 248.413 86.547 249.918 88.1913 250.23L138.731 259.888C140.583 260.251 142.349 258.936 142.556 257.067L147.178 215.181C147.351 213.554 146.295 212.048 144.685 211.667L93.6434 199.828C91.7395 199.378 89.8875 200.728 89.6971 202.684Z" fill="#AFAFAF"/>
<path d="M92.5011 203.463L88.3818 247.53C88.226 249.191 89.351 250.697 90.9953 251.009L141.535 260.667C143.387 261.013 145.153 259.715 145.36 257.845L149.982 215.96C150.155 214.333 149.099 212.827 147.489 212.446L96.4474 200.607C94.5608 200.157 92.6915 201.507 92.5011 203.463Z" fill="#D1D1D1"/>
<path d="M118.809 248.447C123.829 249.936 126.702 255.215 125.213 260.234C123.725 265.254 118.446 268.127 113.427 266.655C108.407 265.167 105.534 259.888 107.005 254.869C108.511 249.832 113.773 246.959 118.809 248.447Z" fill="#FCC9A7"/>
<path d="M125.577 256.824C125.542 256.426 123.915 230.014 123.915 230.014L114.932 231.641L116.127 254.159L125.577 256.824Z" fill="#FCC9A7"/>
<path d="M110.017 127.463C110.017 127.463 123.621 137.208 124.487 151.089L128.744 183.542C128.987 185.445 129.091 187.349 129.021 189.271L127.377 238.633H108.702L108.355 185.203L110.017 127.463Z" fill="#54585A"/>
<path d="M79.6238 115.676C78.1699 116.732 71.16 120.678 71.16 120.678C71.16 120.678 71.3504 130.544 86.2008 129.748C99.2685 129.055 99.182 121.042 99.182 121.042L90.1644 115.676H79.6238Z" fill="#FCC9A7"/>
<path d="M27.2145 164.503L52.6229 205.108L40.5764 216.514L6.34082 176.549L27.2145 164.503Z" fill="#54585A"/>
<path d="M631.338 52.3593V34.1857L627.115 1.04053" stroke="#424647" stroke-width="0.7693" stroke-miterlimit="10" stroke-linecap="round" stroke-linejoin="round"/>
</svg>
