<svg width="185" height="102" viewBox="0 0 185 102" fill="none" xmlns="http://www.w3.org/2000/svg">
<path d="M150.439 89.8206C151.192 87.2852 148.915 85.4957 147.598 83.4873C147.437 83.238 146.601 83.2438 145.957 83.1038L144.978 80.614L143.383 81.4317C142.805 80.2158 142.498 80.2846 139.518 82.478C140.525 79.1693 140.236 78.5789 137.707 78.6751C136.803 77.9145 139.219 76.849 137.26 76.1736C135.128 75.442 135.159 77.276 133.703 77.6171C134.322 76.6267 134.94 75.6275 135.559 74.6458C136.029 74.0852 136.461 73.5066 136.852 72.9122C137.058 72.5073 137.182 71.7975 136.897 71.5941C136.212 71.1104 135.394 70.5758 134.227 71.1863C132.714 71.9842 131.048 72.6056 129.288 73.0296C130.742 72.0641 132.276 71.1529 133.603 70.1147C134.138 69.6854 134.279 69.0022 134.596 68.4324L132.212 68.3863C132.812 67.9582 133.452 67.5309 134.115 67.1041C134.354 66.9593 134.839 66.9818 134.979 66.8175C136.678 64.828 138.842 62.9353 139.864 60.7568C140.735 58.8568 138.69 56.9619 136.096 56.0455C134.242 55.3897 135.38 54.0708 135.028 53.0748C134.972 52.5795 135.017 52.0807 135.161 51.5957C131.752 51.7627 130.537 53.7924 128.638 55.3032C129.4 53.533 132.71 51.9791 128.928 50.4067L122.23 47.9556L121.503 43.7384C122.276 43.0411 123.365 41.9543 124.614 40.9937C124.999 40.6933 125.834 40.7227 126.458 40.5897C127.073 40.4261 127.708 40.3059 128.353 40.2307C128.974 40.1987 130.14 40.2916 130.159 40.4063C130.369 41.7997 131.651 41.7542 132.618 41.663C133.17 42.6409 133.436 43.9079 134.229 44.1518C135.021 44.3958 136.544 43.8141 137.496 43.3358C137.972 43.0856 137.896 42.2356 138.014 41.8466L149.124 35.6778L149.43 35.7936L148.545 37.0515L148.706 37.4591C150.765 37.0813 152.824 36.7079 154.66 36.3741C154.873 36.8179 154.92 37.4915 155.318 37.6443C157.159 38.357 158.865 37.8668 160.369 36.9814L161.846 38.9269L161.234 39.7021C162.106 39.6838 162.691 39.6731 163.276 39.6669C162.329 41.0334 163.077 42.235 165.718 43.4952C164.602 44.4804 165.215 44.8484 166.646 45.0651C168.565 45.3617 169.119 46.432 167.97 47.5616C166.82 48.6913 167.471 49.4777 168.363 50.4094C169 51.1982 169.583 52.0107 170.11 52.8438C170.48 53.3169 170.974 53.7398 171.391 54.1875C171.808 54.6353 172.133 55.0504 172.516 55.4887L171.919 55.8333L170.2 54.8152C169.702 54.5153 169.212 53.9783 168.709 53.9729C167.862 53.9565 167.014 54.3006 166.166 54.4909C166.62 54.8734 166.976 55.421 167.542 55.621C169.899 56.4361 172.319 57.1468 174.598 58.2021C173.292 57.9306 171.954 57.7113 170.692 57.3659C169.158 56.9229 168.177 57.2029 167.797 58.4002C167.415 59.467 167.111 60.5487 166.885 61.6404C166.728 62.3469 166.796 63.0714 167.082 63.7546C167.75 65.0865 168.748 66.3149 169.452 67.6211C169.617 67.9276 169.251 68.3778 169.255 68.7604C169.237 69.2788 169.114 69.9711 169.49 70.2817C172.241 72.5728 172.856 74.4225 171.146 76.7108C173.559 77.4478 173.714 79.0687 173.868 81.0633C173.308 80.425 172.675 79.8243 171.977 79.2681C171.428 78.9185 170.744 78.7123 170.026 78.6808C169.758 78.6756 169.475 79.4219 168.717 79.8777C168.747 79.1948 168.716 78.5111 168.623 77.8314C168.455 77.4623 168.199 77.1192 167.868 76.8188C167.051 77.2312 166.27 77.6831 165.53 78.1717C165.237 78.3814 165.404 78.965 165.11 79.1659C162.848 80.6917 163.73 82.4279 164.354 84.1854C164.595 85.0335 164.773 85.8913 164.886 86.7545C163.949 86.622 163.14 86.5052 162.32 86.3926C160.294 82.7131 160.021 82.5055 158.1 83.2861L156.474 81.5708C156.044 82.1868 155.515 82.603 155.507 83.0293C155.477 83.8861 154.933 84.0865 153.962 84.0985C151.499 84.1388 150.304 85.3994 150.772 87.2682C150.977 88.1076 152.125 89.0795 150.434 89.7985L150.439 89.8206ZM137.476 44.0828C136.261 44.4269 135.075 44.8283 133.927 45.2847C133.689 45.39 133.729 46.1074 133.94 46.4369C134.095 46.6817 134.916 46.9658 135.13 46.8644C136.324 46.2984 137.864 45.8885 137.476 44.0828Z" fill="#000C24"/>
<path d="M62.4068 83.3462C63.2999 84.2428 62.6782 84.8111 61.5739 85.1327C60.0865 85.5436 58.5543 85.8964 57.0391 86.2672C53.4781 87.1332 49.9152 87.9978 46.3505 88.8609C46.1912 88.9017 45.9882 88.8539 45.6644 88.5794L59.6268 83.9431L59.5266 83.6246L56.9091 83.5739L56.8531 83.331C59.0761 82.7805 61.2778 82.1681 63.5321 81.7281C64.0854 81.6201 64.829 82.1005 65.4952 82.2805C65.8443 82.4125 66.2334 82.4731 66.6234 82.4562C69.3351 81.9767 72.0419 81.4707 74.1348 79.9373C74.272 79.8365 74.4388 79.7614 74.6217 79.7181C77.0609 79.1718 79.5159 78.6741 81.9327 78.101C83.6593 77.7096 85.3434 77.2189 86.97 76.6333C87.284 76.5119 87.1272 75.6295 87.116 75.1017C87.1279 74.7546 86.7509 74.3253 86.9229 74.0824C87.5363 73.2413 88.095 72.2937 89.0333 71.6963C90.7607 70.5955 89.9501 69.8499 88.9784 69.2024L89.2652 67.3131L88.8119 67.2339C90.3025 66.0449 91.9019 64.924 93.2205 63.6393C93.6796 63.2086 93.4518 62.3468 93.5058 61.9654C94.5082 61.0351 95.381 60.1331 96.3851 59.3216C97.8161 58.1667 99.8172 58.1219 101.692 58.0131C102.741 58.0126 103.789 58.0755 104.825 58.2012C104.999 58.1955 105.173 58.2215 105.331 58.2769C106.984 59.1882 108.625 60.0993 110.242 61.0099C108.688 61.4855 108.788 62.1689 110.319 63.0207C110.945 63.3669 111.268 64.0063 111.808 64.4564C112.945 65.3973 115.513 65.5217 117.12 65.0297C117.954 64.7732 119.068 65.019 120.114 65.0392L119.509 62.8732C120.858 63.4313 121.878 63.6973 122.627 64.1998C124.124 65.2092 124.108 66.5279 123.901 67.9791C123.614 70.0268 123.859 72.1067 125.748 73.792C126.174 74.1695 126.982 74.3039 127.351 74.4517C126.553 75.7885 125.854 77.1576 125.258 78.5527C124.857 79.6793 125.612 80.5161 127.204 80.9514C128.114 81.202 128.878 81.762 129.706 82.1825L129.412 82.7264C128.025 82.6072 126.639 82.4265 125.249 82.3864C124.579 82.4392 123.922 82.5611 123.296 82.7487C123.553 83.2768 123.617 83.9595 124.102 84.3075C125.814 85.5409 127.841 86.4418 128.432 88.4757C128.736 89.5104 130.333 90.3283 131.405 91.2987C130.411 92.66 131.015 93.7928 132.409 94.9233C134.872 96.9187 137.186 99.0123 139.553 101.076C139.698 101.28 139.803 101.498 139.864 101.724C138.03 102.203 137.361 101.236 136.506 100.441C133.464 97.5685 130.453 94.67 127.244 91.9084C126.229 91.0094 124.656 90.4954 123.286 89.8621C123.05 89.752 122.588 89.9453 122.225 89.9647C121.557 90.0045 120.707 90.2343 120.241 90.0098C118.118 89.0059 116.49 89.9372 115.359 90.355L113.534 93.4456C113.188 92.9062 112.792 92.3858 112.348 91.8882C111.991 91.5472 111.453 91.0488 111.043 91.0716C110.394 91.1818 109.816 91.4581 109.409 91.8533C109.056 92.199 108.839 92.6122 108.783 93.0459C108.546 94.5053 107.605 94.5003 106.152 93.9138C105.435 93.6427 104.607 93.5891 103.839 93.7641C103.072 93.9391 102.423 94.3293 102.027 94.854C101.654 95.3216 100.74 96.0733 100.555 95.9994C99.5979 95.6257 98.7425 95.1199 98.0337 94.5085C97.1335 93.6401 96.296 92.7359 95.5247 91.8L94.1098 93.8522C93.8189 93.4684 93.6388 93.2627 93.5001 93.0446C93.0963 92.3729 92.6783 91.9471 91.7008 92.6624C90.8133 93.3092 89.8767 93.3438 89.627 92.2706C89.2598 90.6983 89.0574 89.0984 88.8312 87.5069C88.8063 87.0673 88.8214 86.6269 88.8763 86.1888C88.617 86.0782 88.5033 85.9837 88.4035 85.995C84.5955 86.3917 84.3676 86.0488 85.6051 83.2017C86.0175 82.2557 85.9662 80.8522 85.2914 80.0697C84.4367 79.0771 82.8408 78.5582 80.9082 79.1627C77.2204 80.318 73.4826 81.3975 69.6921 82.309C67.4418 82.8018 65.0096 82.9745 62.4068 83.3462Z" fill="#000C24"/>
<path d="M63.3334 36.123C60.9084 34.5461 60.3841 34.492 58.721 35.5941L58.5534 34.5137L54.903 31.5017C56.6657 30.3927 55.5674 29.1712 54.5968 27.9785C55.1924 27.4228 55.8518 26.9074 56.5672 26.4383C57.5489 25.9098 58.723 25.6212 59.9303 25.6116C61.1375 25.6019 62.3195 25.8717 63.316 26.3843C64.3856 26.9062 65.1873 27.2251 66.5137 26.3934C68.0313 25.4424 70.0711 24.9499 71.8499 24.2237C74.0972 23.3043 76.1718 24.0172 77.6682 25.0486C78.6105 25.7043 78.5607 27.1586 79.1004 28.6419C81.2628 29.6906 85.0751 29.1708 86.3084 27.2998C86.4132 29.0209 89.9637 29.8282 94.2535 29.0188C93.5328 30.0908 93.331 31.0321 95.1211 31.5152C95.3065 31.5628 95.3529 31.9154 95.445 32.1282C95.8814 33.2659 96.4074 34.383 97.0202 35.4737C96.738 36.031 95.4838 36.6311 96.8376 37.0486L95.0545 40.6324C92.677 40.4017 93.6549 42.4079 92.411 43.2192C89.9959 43.234 89.205 43.6231 88.6533 45.2216L87.3466 44.4533L87.1262 45.768C85.6853 45.5027 84.2277 45.0436 82.8078 45.0205C80.9339 44.992 79.0839 44.6997 77.3532 44.1587C76.4157 43.9127 75.6106 43.4433 75.0603 42.8218C74.3502 42.0474 73.6381 42.3546 73.0909 42.9683C72.3859 43.7504 71.7557 44.5692 70.9698 45.3234C71.178 43.5116 73.963 42.4268 73.4822 40.2456C72.6373 40.3348 71.9215 40.4088 71.3288 40.4721C71.9483 39.4553 72.7082 38.4324 73.1899 37.3426C73.6129 36.4275 71.9831 35.3628 70.5994 35.4767C69.7552 35.5439 68.741 35.2824 68.0713 35.5464C66.4486 36.1525 64.5632 34.3574 63.3334 36.123Z" fill="#000C24"/>
<path d="M137.764 17.3791C135.416 17.6634 134.347 18.4913 135.185 19.6198C134.156 19.4592 133.035 19.0682 132.026 19.1849C131.127 19.2907 130.344 19.9614 129.773 20.2537C126.867 19.7578 124.094 19.304 121.338 18.8462L118.863 16.1603C119.423 15.1907 118.89 13.6636 118.133 13.3983L118.458 10.0764L117.876 9.97723L119.32 9.8337C119.664 7.79596 122.109 7.24976 123.246 6.49357C125.169 6.31977 126.533 6.27581 127.85 6.06389C129.343 5.82021 131.596 6.80907 132.649 7.47575C134.839 8.89867 135.158 11.6967 138.732 11.9901C138.137 12.2951 137.358 12.4999 137.26 12.8189C137.161 13.138 137.777 13.5851 138.003 13.9984C138.239 14.3358 138.367 14.7103 138.375 15.0915C138.224 15.8614 138.02 16.625 137.764 17.3791V17.3791Z" fill="#000C24"/>
<path d="M15.0157 16.1858L14.4324 17.1725C15.5897 17.5247 16.6489 17.8354 17.3262 18.0331L18.3716 19.6054C18.3954 20.4185 18.5144 21.2285 18.7272 22.026C19.1946 23.2309 17.6219 23.9127 17.5794 24.9846C17.4916 25.4912 17.2402 25.9739 16.8472 26.3905C16.658 26.6243 16.1583 26.7025 15.8649 26.9035C14.5138 27.9367 12.8186 28.6782 10.9563 29.0507C8.2075 29.5911 6.24251 28.7528 4.46777 27.9931C2.33021 27.0724 1.34019 25.2506 1.16519 23.1896C0.974631 20.8997 3.09692 19.5339 4.27378 17.7761C5.26125 16.2564 7.74345 16.6737 9.13086 15.5971C9.47921 15.3268 10.8359 15.8323 11.7388 15.9289C12.723 16.0403 13.7386 16.0908 15.0157 16.1858Z" fill="#000C24"/>
<path d="M103.872 50.5063C103.089 51.4627 102.215 52.3758 101.259 53.2388C100.49 53.8526 99.3665 54.2089 98.4032 54.6827C97.576 55.1064 96.5608 55.3857 95.9742 55.9547C95.1408 56.7299 94.5798 56.8949 93.7709 55.7581C93.5084 57.1072 92.4022 56.9715 91.397 56.7893C90.2346 56.5866 89.8154 56.0245 89.8885 55.085C90.0379 53.1095 89.5688 52.8102 87.2161 53.0505C87.9968 51.4213 87.3639 49.9274 86.7857 48.5444C87.988 47.5785 89.3003 46.4784 90.7142 45.4813C91.1936 45.1389 92.0197 45.0889 92.6305 44.837C95.3411 43.7068 98.008 43.8507 100.335 45.3906C101.055 45.8662 102.08 45.653 102.775 46.5238C103.52 47.4791 104.773 48.0969 104.085 49.4157C103.916 49.7378 104.257 50.2104 104.366 50.6126L103.872 50.5063Z" fill="#000C24"/>
<path d="M48.331 20.7524C47.1159 19.8716 45.7303 19.1853 44.9391 18.2159C43.9683 17.0276 44.7189 15.7671 45.9716 14.8681C47.2244 13.9691 48.7535 13.5327 50.5978 14.1399C51.621 14.4807 52.8252 14.4864 53.9158 14.7361C54.6061 14.8946 55.6561 15.1347 55.7845 15.4845C55.8971 16.1225 55.7117 16.77 55.2599 17.3165C54.7621 18.0829 54.0277 18.7486 53.1179 19.2579C51.7813 19.874 50.1978 20.1906 48.331 20.7524Z" fill="#000C24"/>
<path d="M44.3367 24.0297C43.2583 23.2526 43.3105 23.0953 45.2998 22.5403C46.2206 22.2855 47.077 21.8625 48.0292 21.7138C48.8908 21.672 49.7559 21.7139 50.6033 21.8384C50.8837 22.2462 51.2478 22.6183 51.6822 22.9408C53.2776 23.8159 53.63 24.9658 53.2328 26.321C52.8034 27.7636 51.2198 28.2517 49.595 28.5764C48.4175 28.8174 46.8429 29.2134 45.9787 28.8405C45.1144 28.4677 45.0162 27.2391 44.7132 26.354C44.5235 25.5858 44.3977 24.8096 44.3367 24.0297V24.0297Z" fill="#000C24"/>
<path d="M117.826 36.7426C116.942 36.0836 115.942 35.242 114.809 34.5211C113.27 33.5372 113.29 32.0955 114.975 30.6993C116.25 29.6512 117.98 29.1527 119.626 29.5715C121.11 29.9475 122.717 30.4798 123.1 32.1008C123.678 34.5169 122.936 35.3599 119.593 35.6688C118.889 35.7344 118.28 36.4568 117.826 36.7426Z" fill="#000C24"/>
<path d="M121.704 21.8342C121.615 23.0679 120.329 24.0586 118.875 24.0129C117.421 23.9672 115.793 22.6914 115.823 21.6368C115.853 20.5822 117.811 19.0769 119.042 19.1447C120.127 19.2273 121.737 20.8676 121.704 21.8342Z" fill="#000C24"/>
<path d="M152.152 4.7758C151.393 4.51312 150.655 4.21698 149.943 3.88891C149.3 3.54233 148.447 3.1741 148.23 2.67749C148.014 2.18087 148.143 1.1282 148.612 0.926244C149.378 0.567373 151 0.334968 151.439 0.664414C152.34 1.43691 152.952 2.37593 153.211 3.38501C153.349 3.78338 152.475 4.37758 152.152 4.7758Z" fill="#000C24"/>
<path d="M11.0337 67.6146C12.0512 66.7549 12.5896 65.8861 13.4386 65.6783C14.5475 65.392 16.3298 66.6135 16.2646 67.3245C16.1981 68.2421 14.7948 69.2701 13.6933 68.9982C12.7999 68.7919 12.0952 68.2023 11.0337 67.6146Z" fill="#000C24"/>
<path d="M181.909 54.0174C180.831 51.3586 181.322 49.3105 183.337 48.3295C184.588 49.5496 183.944 52.1135 181.909 54.0174Z" fill="#000C24"/>
<path d="M37.257 41.4393C39.1143 40.297 40.5026 39.3654 42.0328 38.5597C42.6491 38.3299 43.3325 38.2206 44.0198 38.242C44.3419 38.2263 44.8977 38.3865 44.9679 38.555C45.0431 38.8688 44.9764 39.1925 44.7786 39.4746C44.6173 39.6813 44.3568 39.8336 44.0507 39.9002C41.8995 40.4037 39.7845 40.8727 37.257 41.4393Z" fill="#000C24"/>
<path d="M73.2419 85.5256C72.3484 86.8624 69.5679 87.8154 66.8172 87.727C69.128 87.0023 70.1988 84.9259 73.2419 85.5256Z" fill="#000C24"/>
<path d="M180.848 60.2444L175.962 58.312L176.013 58.1855L179.699 58.9823L181.119 56.2707L181.595 56.3591L180.848 60.2444Z" fill="#000C24"/>
<path d="M174.166 45.1931C174.482 44.379 174.875 43.5829 175.341 42.8109C175.495 42.594 176.3 42.636 176.8 42.5577C176.84 42.9059 177.065 43.3367 176.876 43.5836C176.294 44.2584 175.663 44.9082 174.985 45.5299L174.166 45.1931Z" fill="#000C24"/>
<path d="M116.705 48.2839L116.924 41.8912L117.812 41.9347L117.207 48.32L116.705 48.2839Z" fill="#000C24"/>
<path d="M175.747 77.0636L176.434 73.0453C178.496 74.646 176.923 75.8553 176.2 77.1603L175.747 77.0636Z" fill="#000C24"/>
<path d="M46.7832 9.77944C47.7082 9.23019 48.2832 8.65658 48.6611 8.72105C49.2422 8.82463 49.6563 9.36463 50.1469 9.72145C49.6801 10.0378 49.2592 10.5484 48.7365 10.6174C48.2138 10.6864 47.7446 10.2157 46.7832 9.77944Z" fill="#000C24"/>
<path d="M61.6678 10.4808C62.2276 11.2083 62.8831 11.7002 62.7469 11.9218C62.4806 12.3563 61.7805 12.6549 61.2597 13.0097C60.9368 12.7089 60.2824 12.3533 60.3491 12.1128C60.4881 11.6407 61.0223 11.2333 61.6678 10.4808Z" fill="#000C24"/>
<path d="M48.4961 7.39439C49.4885 6.92558 50.0667 6.43116 50.5385 6.48426C51.0102 6.53736 51.4169 7.12558 51.855 7.477C51.3773 7.77111 50.9218 8.26789 50.4181 8.29331C49.9144 8.31874 49.4159 7.85185 48.4961 7.39439Z" fill="#000C24"/>
<path d="M74.7617 84.5086C75.8849 83.9764 76.9414 83.1747 78.523 84.2825L74.8721 84.8713L74.7617 84.5086Z" fill="#000C24"/>
<path d="M150.439 89.8162L151.468 95.112L150.765 95.1644L150.439 89.8162Z" fill="#000C24"/>
<path d="M151.409 13.4886C152.495 13.0392 152.869 11.6747 154.53 11.9794L154.883 12.4259C153.822 12.8714 152.754 13.3168 151.692 13.7666L151.409 13.4886Z" fill="#000C24"/>
</svg>
