<svg width="331" height="211" viewBox="0 0 331 211" fill="none" xmlns="http://www.w3.org/2000/svg">
<path d="M270.074 185.938C271.433 180.664 267.325 176.942 264.951 172.764C264.66 172.246 263.152 172.258 261.99 171.967L260.225 166.788L257.349 168.489C256.306 165.96 255.754 166.103 250.378 170.665C252.195 163.783 251.673 162.555 247.112 162.755C245.482 161.173 249.84 158.956 246.307 157.552C242.461 156.03 242.517 159.845 239.891 160.554C241.007 158.494 242.123 156.416 243.238 154.374C244.087 153.208 244.865 152.004 245.57 150.768C245.943 149.926 246.166 148.449 245.651 148.026C244.416 147.02 242.941 145.908 240.837 147.178C238.107 148.837 235.104 150.13 231.929 151.012C234.551 149.004 237.317 147.108 239.711 144.949C240.676 144.056 240.929 142.635 241.502 141.45L237.203 141.354C238.284 140.463 239.438 139.575 240.635 138.687C241.066 138.386 241.94 138.432 242.192 138.091C245.257 133.952 249.159 130.016 251.002 125.484C252.574 121.532 248.885 117.591 244.207 115.685C240.863 114.321 242.916 111.577 242.281 109.505C242.18 108.475 242.26 107.438 242.52 106.429C236.373 106.776 234.182 110.998 230.756 114.141C232.131 110.458 238.1 107.226 231.28 103.956L219.2 98.8574L217.89 90.0855C219.282 88.6351 221.247 86.3745 223.5 84.3763C224.193 83.7516 225.699 83.8127 226.825 83.536C227.935 83.1957 229.079 82.9457 230.242 82.7892C231.362 82.7228 233.465 82.9161 233.5 83.1546C233.878 86.0529 236.19 85.9582 237.935 85.7685C238.929 87.8026 239.41 90.4379 240.84 90.9454C242.269 91.4529 245.015 90.243 246.731 89.2479C247.59 88.7276 247.453 86.9595 247.667 86.1504L267.702 73.3192L268.253 73.5601L266.657 76.1765L266.948 77.0244C270.662 76.2385 274.376 75.4618 277.686 74.7675C278.07 75.6906 278.155 77.0917 278.873 77.4095C282.192 78.8919 285.27 77.8724 287.982 76.0307L290.645 80.0774L289.543 81.6898C291.115 81.6517 292.17 81.6295 293.225 81.6165C291.517 84.4591 292.866 86.9583 297.628 89.5795C295.617 91.6288 296.722 92.3942 299.302 92.8451C302.764 93.4619 303.763 95.6882 301.69 98.0379C299.616 100.388 300.791 102.023 302.399 103.961C303.547 105.602 304.598 107.292 305.549 109.025C306.216 110.009 307.107 110.889 307.86 111.82C308.613 112.751 309.198 113.615 309.888 114.526L308.813 115.243L305.712 113.125C304.814 112.502 303.929 111.385 303.023 111.374C301.495 111.339 299.966 112.055 298.436 112.451C299.256 113.247 299.897 114.386 300.918 114.802C305.169 116.497 309.533 117.975 313.643 120.17C311.288 119.606 308.876 119.149 306.599 118.431C303.832 117.51 302.064 118.092 301.379 120.582C300.69 122.801 300.141 125.051 299.734 127.322C299.451 128.792 299.573 130.299 300.089 131.72C301.293 134.49 303.094 137.045 304.363 139.762C304.66 140.4 304 141.336 304.008 142.132C303.976 143.21 303.754 144.65 304.431 145.296C309.393 150.062 310.502 153.909 307.418 158.669C311.77 160.202 312.049 163.574 312.327 167.722C311.316 166.395 310.175 165.145 308.916 163.988C307.927 163.261 306.693 162.832 305.399 162.767C304.914 162.756 304.404 164.308 303.037 165.256C303.092 163.836 303.036 162.414 302.868 161C302.565 160.232 302.104 159.519 301.507 158.894C300.033 159.751 298.624 160.691 297.29 161.708C296.761 162.144 297.062 163.358 296.533 163.776C292.453 166.949 294.044 170.561 295.169 174.216C295.604 175.981 295.925 177.765 296.128 179.56C294.438 179.285 292.98 179.042 291.5 178.808C287.847 171.154 287.354 170.722 283.889 172.346L280.959 168.778C280.183 170.059 279.229 170.925 279.213 171.812C279.16 173.594 278.178 174.011 276.427 174.036C271.985 174.119 269.83 176.742 270.674 180.629C271.044 182.375 273.114 184.396 270.065 185.892L270.074 185.938ZM246.696 90.8018C244.504 91.5174 242.366 92.3524 240.295 93.3018C239.867 93.5209 239.939 95.0131 240.319 95.6983C240.599 96.2076 242.079 96.7984 242.465 96.5876C244.619 95.4102 247.396 94.5577 246.696 90.8018Z" fill="white"/>
<path d="M111.312 172.471C112.922 174.336 111.801 175.518 109.809 176.187C107.127 177.042 104.364 177.775 101.631 178.547C95.209 180.348 88.7835 182.146 82.3546 183.942C82.0674 184.027 81.7013 183.927 81.1173 183.356L106.298 173.713L106.117 173.05L101.397 172.945L101.296 172.439C105.305 171.294 109.276 170.02 113.341 169.105C114.339 168.881 115.68 169.88 116.881 170.254C117.511 170.529 118.213 170.655 118.916 170.62C123.806 169.622 128.688 168.57 132.462 165.38C132.71 165.171 133.011 165.014 133.341 164.924C137.74 163.788 142.167 162.753 146.526 161.561C149.64 160.747 152.677 159.726 155.61 158.508C156.177 158.255 155.894 156.42 155.874 155.322C155.895 154.6 155.215 153.707 155.525 153.202C156.632 151.453 157.639 149.481 159.331 148.239C162.447 145.949 160.985 144.398 159.232 143.051L159.75 139.122L158.932 138.957C161.62 136.484 164.505 134.152 166.883 131.48C167.711 130.584 167.3 128.792 167.397 127.998C169.205 126.063 170.779 124.187 172.59 122.499C175.171 120.097 178.78 120.004 182.16 119.777C184.053 119.776 185.942 119.907 187.811 120.169C188.125 120.157 188.438 120.211 188.724 120.326C191.704 122.222 194.663 124.117 197.581 126.011C194.778 127 194.957 128.421 197.72 130.193C198.848 130.913 199.431 132.243 200.404 133.18C202.455 135.137 207.087 135.396 209.985 134.372C211.488 133.839 213.497 134.35 215.383 134.392L214.294 129.887C216.727 131.047 218.566 131.601 219.916 132.646C222.616 134.745 222.588 137.488 222.213 140.507C221.697 144.766 222.138 149.092 225.545 152.598C226.312 153.383 227.77 153.663 228.435 153.97C226.996 156.751 225.736 159.599 224.661 162.5C223.937 164.844 225.299 166.584 228.171 167.49C229.811 168.011 231.19 169.176 232.682 170.05L232.153 171.182C229.651 170.934 227.152 170.558 224.645 170.475C223.437 170.584 222.251 170.838 221.122 171.228C221.585 172.327 221.701 173.747 222.576 174.47C225.663 177.036 229.319 178.91 230.385 183.14C230.933 185.293 233.813 186.994 235.746 189.012C233.954 191.844 235.044 194.2 237.558 196.552C242 200.702 246.173 205.057 250.442 209.35C250.703 209.773 250.892 210.227 251.003 210.697C247.694 211.694 246.489 209.682 244.946 208.029C239.461 202.054 234.03 196.025 228.244 190.281C226.412 188.411 223.575 187.341 221.105 186.024C220.68 185.795 219.845 186.197 219.19 186.238C217.986 186.32 216.453 186.798 215.613 186.332C211.784 184.243 208.848 186.18 206.809 187.049L203.518 193.478C202.893 192.356 202.179 191.274 201.379 190.239C200.735 189.529 199.764 188.493 199.025 188.54C197.855 188.769 196.813 189.344 196.077 190.166C195.441 190.885 195.05 191.745 194.949 192.647C194.522 195.682 192.824 195.672 190.203 194.452C188.911 193.888 187.418 193.777 186.033 194.141C184.649 194.505 183.479 195.316 182.765 196.408C182.092 197.38 180.443 198.944 180.111 198.79C178.384 198.013 176.841 196.961 175.563 195.689C173.94 193.883 172.429 192.002 171.038 190.055L168.486 194.324C167.962 193.526 167.637 193.098 167.387 192.644C166.659 191.247 165.905 190.361 164.142 191.849C162.542 193.194 160.852 193.266 160.402 191.034C159.74 187.764 159.375 184.436 158.967 181.125C158.922 180.211 158.949 179.295 159.048 178.384C158.581 178.154 158.375 177.957 158.196 177.981C151.328 178.806 150.917 178.092 153.149 172.171C153.892 170.203 153.8 167.283 152.583 165.656C151.041 163.591 148.163 162.512 144.678 163.769C138.027 166.172 131.286 168.418 124.45 170.314C120.392 171.339 116.006 171.698 111.312 172.471Z" fill="white"/>
<path d="M112.983 74.2452C108.609 70.9651 107.664 70.8525 104.664 73.1449L104.362 70.8977L97.7788 64.6327C100.958 62.326 98.977 59.7852 97.2266 57.3044C98.3008 56.1484 99.4899 55.0764 100.78 54.1006C102.551 53.0015 104.668 52.4011 106.845 52.381C109.022 52.3609 111.154 52.9221 112.951 53.9883C114.88 55.0739 116.326 55.7372 118.718 54.0073C121.455 52.0291 125.134 51.0047 128.342 49.4942C132.395 47.5819 136.136 49.0646 138.835 51.21C140.534 52.5739 140.444 55.5989 141.418 58.6842C145.318 60.8655 152.193 59.7844 154.417 55.8926C154.606 59.4725 161.009 61.1518 168.746 59.4681C167.446 61.6979 167.082 63.6559 170.31 64.6608C170.645 64.7597 170.728 65.4932 170.895 65.9359C171.682 68.3022 172.63 70.6259 173.735 72.8946C173.226 74.0538 170.965 75.3019 173.406 76.1703L170.19 83.6248C165.903 83.145 167.666 87.3179 165.423 89.0054C161.067 89.0362 159.641 89.8457 158.646 93.1705L156.289 91.5724L155.892 94.307C153.293 93.7552 150.665 92.8003 148.104 92.7523C144.724 92.6929 141.388 92.0849 138.267 90.9597C136.576 90.448 135.124 89.4716 134.132 88.1788C132.851 86.5681 131.567 87.207 130.58 88.4835C129.308 90.1104 128.172 91.8134 126.755 93.3822C127.13 89.6137 132.153 87.3572 131.286 82.8203C129.762 83.0057 128.471 83.1598 127.402 83.2914C128.519 81.1764 129.89 79.0488 130.758 76.7819C131.521 74.8785 128.582 72.6638 126.087 72.9008C124.564 73.0405 122.735 72.4967 121.527 73.0459C118.601 74.3066 115.2 70.5727 112.983 74.2452Z" fill="white"/>
<path d="M247.216 35.2574C242.981 35.8487 241.053 37.5706 242.565 39.9181C240.708 39.584 238.687 38.7707 236.866 39.0135C235.246 39.2334 233.834 40.6285 232.804 41.2365C227.563 40.205 222.561 39.2611 217.592 38.3088L213.128 32.7222C214.137 30.7054 213.177 27.5289 211.812 26.9772L212.397 20.0675L211.349 19.8612L213.951 19.5626C214.573 15.3241 218.982 14.188 221.032 12.6151C224.501 12.2536 226.961 12.1621 229.336 11.7213C232.029 11.2145 236.091 13.2713 237.99 14.658C241.94 17.6178 242.516 23.4377 248.961 24.048C247.888 24.6825 246.484 25.1084 246.306 25.772C246.128 26.4356 247.239 27.3658 247.646 28.2253C248.072 28.9271 248.302 29.706 248.317 30.4991C248.044 32.1005 247.677 33.6887 247.216 35.2574V35.2574Z" fill="white"/>
<path d="M25.8451 32.7743L24.7929 34.8268C26.88 35.5592 28.7903 36.2054 30.0118 36.6167L31.8969 39.8869C31.9399 41.5783 32.1544 43.263 32.538 44.9218C33.3809 47.428 30.5445 48.8462 30.4677 51.0759C30.3093 52.1296 29.856 53.1336 29.1472 54.0003C28.8058 54.4865 27.9047 54.6493 27.3757 55.0674C24.9388 57.2165 21.8815 58.759 18.523 59.5339C13.5655 60.658 10.0218 58.9146 6.82121 57.3343C2.96628 55.4194 1.18098 51.6301 0.865544 47.3432C0.522083 42.5802 4.34966 39.7391 6.47225 36.0827C8.25324 32.9217 12.7297 33.7897 15.232 31.55C15.8602 30.9879 18.3069 32.0393 19.9352 32.2402C21.7103 32.4718 23.5418 32.5767 25.8451 32.7743Z" fill="white"/>
<path d="M186.093 104.163C184.679 106.152 183.104 108.051 181.38 109.846C179.992 111.123 177.967 111.864 176.229 112.85C174.738 113.731 172.907 114.312 171.849 115.496C170.346 117.108 169.334 117.451 167.875 115.087C167.402 117.893 165.407 117.611 163.594 117.232C161.498 116.81 160.742 115.641 160.874 113.687C161.143 109.578 160.297 108.955 156.054 109.455C157.462 106.066 156.321 102.959 155.278 100.082C157.446 98.0729 159.813 95.7846 162.363 93.7107C163.227 92.9984 164.717 92.8945 165.819 92.3704C170.707 90.0196 175.517 90.319 179.713 93.522C181.012 94.5112 182.86 94.0678 184.114 95.879C185.457 97.8661 187.718 99.1511 186.477 101.894C186.172 102.564 186.786 103.547 186.983 104.384L186.093 104.163Z" fill="white"/>
<path d="M85.9265 42.2738C83.735 40.4416 81.2363 39.0141 79.8094 36.9977C78.0586 34.5261 79.4123 31.9043 81.6715 30.0342C83.9307 28.1642 86.6885 27.2564 90.0146 28.5196C91.8598 29.2283 94.0316 29.2402 95.9984 29.7597C97.2434 30.0893 99.137 30.5888 99.3685 31.3164C99.5716 32.6433 99.2372 33.9902 98.4224 35.127C97.5247 36.7212 96.2002 38.1058 94.5594 39.1652C92.149 40.4466 89.2931 41.1052 85.9265 42.2738Z" fill="white"/>
<path d="M78.723 49.0907C76.7782 47.4744 76.8722 47.1472 80.4598 45.9928C82.1204 45.4628 83.6649 44.5828 85.3822 44.2737C86.936 44.1867 88.4963 44.2738 90.0245 44.5328C90.5301 45.3811 91.1868 46.1549 91.9703 46.8259C94.8475 48.646 95.483 51.0378 94.7667 53.8568C93.9922 56.8574 91.1363 57.8727 88.2061 58.548C86.0824 59.0493 83.2427 59.873 81.6842 59.0974C80.1256 58.3219 79.9483 55.7665 79.402 53.9253C79.0598 52.3276 78.833 50.7129 78.723 49.0907V49.0907Z" fill="white"/>
<path d="M211.257 75.534C209.663 74.1632 207.859 72.4129 205.816 70.9132C203.041 68.8668 203.077 65.868 206.115 62.9637C208.415 60.7837 211.536 59.7468 214.504 60.6179C217.18 61.4001 220.079 62.5073 220.769 65.8789C221.812 70.9045 220.473 72.6579 214.444 73.3006C213.175 73.4369 212.076 74.9396 211.257 75.534Z" fill="white"/>
<path d="M218.251 44.524C218.09 47.0902 215.773 49.1509 213.15 49.0558C210.527 48.9607 207.591 46.3071 207.645 44.1135C207.7 41.9199 211.23 38.7888 213.451 38.9299C215.407 39.1016 218.31 42.5135 218.251 44.524Z" fill="white"/>
<path d="M273.163 9.04187C271.794 8.49548 270.464 7.8795 269.179 7.1971C268.02 6.4762 266.482 5.71027 266.091 4.6773C265.7 3.64433 265.933 1.45475 266.779 1.03466C268.161 0.2882 271.086 -0.195208 271.877 0.490048C273.503 2.09687 274.606 4.05006 275.073 6.14897C275.322 6.97759 273.746 8.21355 273.163 9.04187Z" fill="white"/>
<path d="M18.6623 139.748C20.4973 137.96 21.4683 136.153 22.9995 135.721C24.9994 135.125 28.2137 137.666 28.096 139.145C27.9761 141.054 25.4453 143.192 23.4588 142.627C21.8477 142.197 20.5767 140.971 18.6623 139.748Z" fill="white"/>
<path d="M326.829 111.466C324.884 105.936 325.769 101.675 329.404 99.635C331.659 102.173 330.499 107.506 326.829 111.466Z" fill="white"/>
<path d="M65.955 85.3032C69.3047 82.9271 71.8084 80.9894 74.568 79.3135C75.6794 78.8355 76.9119 78.6082 78.1515 78.6528C78.7323 78.62 79.7347 78.9533 79.8614 79.3037C79.9969 79.9564 79.8767 80.6298 79.5199 81.2165C79.2291 81.6464 78.7593 81.9632 78.2072 82.1017C74.3276 83.149 70.5133 84.1247 65.955 85.3032Z" fill="white"/>
<path d="M130.852 177.004C129.241 179.785 124.226 181.767 119.266 181.583C123.433 180.076 125.364 175.757 130.852 177.004Z" fill="white"/>
<path d="M324.915 124.418L316.104 120.399L316.196 120.136L322.842 121.793L325.403 116.153L326.262 116.337L324.915 124.418Z" fill="white"/>
<path d="M312.865 93.1112C313.434 91.4179 314.142 89.762 314.984 88.1562C315.261 87.7051 316.713 87.7924 317.614 87.6296C317.688 88.3537 318.093 89.2499 317.751 89.7635C316.703 91.1671 315.564 92.5186 314.341 93.8117L312.865 93.1112Z" fill="white"/>
<path d="M209.237 99.5403L209.632 86.2431L211.232 86.3337L210.141 99.6153L209.237 99.5403Z" fill="white"/>
<path d="M315.716 159.403L316.955 151.045C320.673 154.374 317.836 156.89 316.532 159.604L315.716 159.403Z" fill="white"/>
<path d="M83.1351 19.4497C84.8033 18.3073 85.8404 17.1142 86.5218 17.2483C87.5698 17.4637 88.3167 18.5869 89.2015 19.3291C88.3595 19.987 87.6005 21.0492 86.6578 21.1928C85.7151 21.3363 84.869 20.3572 83.1351 19.4497Z" fill="white"/>
<path d="M109.979 20.9087C110.988 22.4218 112.171 23.445 111.925 23.9059C111.445 24.8097 110.182 25.4308 109.243 26.1689C108.66 25.5432 107.48 24.8035 107.601 24.3032C107.851 23.3212 108.815 22.4739 109.979 20.9087Z" fill="white"/>
<path d="M86.2241 14.4889C88.0139 13.5137 89.0567 12.4853 89.9075 12.5958C90.7582 12.7062 91.4916 13.9297 92.2818 14.6607C91.4202 15.2725 90.5987 16.3058 89.6903 16.3587C88.782 16.4115 87.8829 15.4404 86.2241 14.4889Z" fill="white"/>
<path d="M133.593 174.889C135.619 173.782 137.524 172.114 140.376 174.418L133.792 175.643L133.593 174.889Z" fill="white"/>
<path d="M270.074 185.929L271.93 196.944L270.662 197.053L270.074 185.929Z" fill="white"/>
<path d="M271.824 27.1647C273.781 26.2299 274.456 23.3917 277.452 24.0256L278.089 24.9544C276.174 25.881 274.249 26.8073 272.334 27.7431L271.824 27.1647Z" fill="white"/>
</svg>
