<svg width="56" height="69" viewBox="0 0 56 69" fill="none" xmlns="http://www.w3.org/2000/svg">
<path d="M27.45 64.7691C25.6 64.9491 23.66 65.1992 22.16 66.3092C21.94 66.4692 21.73 66.6692 21.69 66.9392C21.62 67.5292 22.42 67.7692 23.02 67.7892C33.79 68.1292 44.56 68.1591 55.33 67.8891C55.47 67.1491 54.64 66.6292 53.94 66.3792C45.63 63.3492 36.09 63.9291 27.45 64.7691Z" fill="url(#paint0_linear_161_16)"/>
<path d="M27.45 64.7691C25.6 64.9491 23.66 65.1992 22.16 66.3092C21.94 66.4692 21.73 66.6692 21.69 66.9392C21.62 67.5292 22.42 67.7692 23.02 67.7892C33.79 68.1292 44.56 68.1591 55.33 67.8891C55.47 67.1491 54.64 66.6292 53.94 66.3792C45.63 63.3492 36.09 63.9291 27.45 64.7691Z" fill="url(#paint1_linear_161_16)"/>
<path d="M21.49 50.2492C20.84 51.5992 21.13 53.7291 21.42 55.5791C21.64 56.9691 22.02 58.4492 23.12 59.3192C23.74 59.8092 24.51 60.0492 25.28 60.2392C28.8 61.0892 32.55 60.9691 36 59.8991C36.69 59.6791 37.39 59.4192 37.96 58.9792C38.87 58.2692 39.36 57.1492 39.72 56.0492C40.21 54.5492 41.42 51.1692 39.92 50.3392C38.6 49.6092 34.36 50.5092 32.78 50.4992C31.58 50.4992 30.38 50.4791 29.2 50.1991C27.85 49.8891 26.53 49.2392 25.17 48.9892C23.07 48.5992 22 49.1892 21.49 50.2492Z" fill="#2F3F47"/>
<path d="M30.07 62.1892C30.08 62.0692 30.09 61.9492 30.1 61.8192C29.06 61.1092 27.23 61.3391 26.13 61.6991C24.95 62.0791 24.95 62.8192 24.96 64.0392C24.97 64.7292 25.03 65.5191 25.56 65.9591C25.97 66.3091 26.55 66.3491 27.08 66.3891C27.56 66.4191 28.04 66.4492 28.52 66.4692C28.85 66.4892 29.22 66.4992 29.48 66.2792C29.74 66.0592 29.78 65.6792 29.81 65.3492C29.9 64.2992 29.98 63.2492 30.07 62.1892Z" fill="#2F3F47"/>
<path d="M31.03 62.1892C31.02 62.0692 31.01 61.9492 31 61.8192C32.04 61.1092 33.87 61.3391 34.97 61.6991C36.15 62.0791 36.15 62.8192 36.14 64.0392C36.13 64.7292 36.07 65.5191 35.54 65.9591C35.13 66.3091 34.55 66.3491 34.02 66.3891C33.54 66.4191 33.06 66.4492 32.58 66.4692C32.25 66.4892 31.88 66.4992 31.62 66.2792C31.36 66.0592 31.32 65.6792 31.29 65.3492C31.2 64.2992 31.12 63.2492 31.03 62.1892Z" fill="#2F3F47"/>
<path d="M5.83997 12.0392C5.86997 12.2892 5.9 12.5492 5.81 12.7892C5.74 12.9792 5.59996 13.1292 5.45996 13.2792C4.86996 13.8892 4.22998 14.4592 3.53998 14.9592C2.75998 14.8492 1.99997 14.6392 1.27997 14.3192C1.14997 14.2592 1.00998 14.1892 0.919983 14.0692C0.849983 13.9792 0.829998 13.8592 0.809998 13.7492C0.539998 12.4692 0.27 11.1792 0 9.89917C0.4 9.62917 0.839978 9.4092 1.28998 9.2392C1.46998 10.0092 1.64996 10.7892 1.82996 11.5592C1.99996 12.2992 2.28001 13.1592 3.01001 13.3692C3.45001 12.9892 3.88996 12.5992 4.32996 12.2192C4.40996 12.1492 4.47997 12.0792 4.52997 11.9892C4.57997 11.8792 4.55998 11.7492 4.53998 11.6192C4.42998 10.8692 4.25997 10.1192 4.02997 9.38916C4.39997 9.31916 4.76 9.2492 5.13 9.1792C5.59 10.0492 5.71997 11.0592 5.83997 12.0392Z" fill="#2F3F47"/>
<path d="M2.41997 14.9792C2.40997 15.0192 2.41998 15.0592 2.42998 15.0992C2.53998 15.5592 2.65 16.0192 2.76 16.4792C3.48 16.3092 4.18999 16.0792 4.87999 15.8092C4.80999 15.4092 4.69998 15.0192 4.54998 14.6492C4.51998 14.5692 4.46994 14.4792 4.38994 14.4492C4.33994 14.4292 4.27997 14.4392 4.22997 14.4492C3.65997 14.5492 3.09999 14.6892 2.55999 14.8692C2.49999 14.8992 2.43997 14.9292 2.41997 14.9792Z" fill="#2F3F47"/>
<path d="M2.57003 16.9192C2.50003 17.7692 3.66999 19.3392 4.02999 20.0392C4.50999 20.9892 4.99 21.9491 5.67 22.7591C6.35 23.5791 7.25 24.2492 8.29 24.4692C8.88 24.5892 9.48999 24.5592 10.09 24.4792C11.89 24.2492 13.64 23.5992 15.16 22.5992C15.28 22.5192 15.41 22.4292 15.46 22.2892C15.51 22.1492 15.46 21.9892 15.41 21.8392C15.22 21.2692 15.03 20.6392 14.74 20.1192C14.23 19.1992 14.55 19.3592 13.73 19.4292C13.1 19.4792 12.2 20.1392 11.53 20.3092C10.75 20.4992 9.93998 20.5991 9.14998 20.6991C8.64998 20.7591 8.09 20.8092 7.67 20.5292C7.44 20.3692 7.28003 20.1392 7.13003 19.8992C6.23003 18.4992 5.41002 17.0492 4.69002 15.5592C4.57002 15.2992 2.73001 16.3792 2.61001 16.7892C2.58001 16.8292 2.57003 16.8692 2.57003 16.9192Z" fill="#516770"/>
<g opacity="0.15">
<path opacity="0.15" d="M10.08 23.9292C9.69998 23.0092 9.53001 22.0892 9.48001 21.1092C9.47001 20.9192 9.21002 20.8892 9.18002 21.0892C9.01002 22.1392 9.18001 23.2092 9.55001 24.1992C9.67001 24.5592 10.22 24.2892 10.08 23.9292Z" fill="#272525"/>
<path opacity="0.15" d="M8.34996 23.9992C8.08996 23.0592 8.18999 22.3092 8.49999 21.3992C8.53999 21.2792 8.35998 21.1892 8.29998 21.2992C8.01998 21.7592 7.70998 22.1292 7.61998 22.6792C7.52998 23.1992 7.54998 23.7092 7.73998 24.2092C7.85998 24.5592 8.44996 24.3592 8.34996 23.9992Z" fill="#272525"/>
</g>
<path d="M17.7099 15.9992C16.3499 16.6592 16.0199 18.4292 15.8999 19.9392C15.1199 29.2192 15.42 38.5992 16.78 47.8092C16.95 48.9292 17.19 50.1492 18.07 50.8592C18.64 51.3192 19.39 51.4792 20.11 51.6092C27.44 52.9492 35.0099 52.9591 42.3399 51.6391C42.5799 51.5991 42.84 51.5491 43.04 51.3891C43.31 51.1791 43.41 50.8292 43.49 50.4992C46.12 40.2092 45.4999 29.4092 44.8299 18.8192C44.8099 18.4492 44.78 18.0692 44.61 17.7492C44.4 17.3592 44.01 17.0992 43.61 16.8992C41.33 15.6992 38.6599 15.5992 36.0899 15.5592C30.5699 15.4592 25.05 15.5092 19.53 15.6892C18.91 15.6992 18.2599 15.7292 17.7099 15.9992Z" fill="#EAF1F2"/>
<path d="M21.5199 13.0592C27.5499 14.2892 33.7099 14.1891 39.7199 12.7691C40.9899 12.4691 42.3599 12.0292 43.2199 10.5992C44.6999 8.12916 43.74 3.93917 41.88 2.10917C40.02 0.279166 37.65 0.149137 35.42 0.0791367C31.84 -0.0308633 28.2399 -0.140844 24.6999 0.599156C22.6499 1.02916 20.5 1.85913 19.13 4.13913C17.76 6.41913 17.67 10.5392 19.42 12.1592C20.03 12.7292 20.7899 12.9092 21.5199 13.0592Z" fill="#EAF1F2"/>
<path d="M23.05 62.6792C28.04 63.0692 33.13 63.0391 38.11 62.5891C39.16 62.4891 40.29 62.3491 41 61.8991C42.22 61.1091 41.4299 59.7791 39.8899 59.1991C38.3499 58.6191 36.39 58.5792 34.54 58.5492C31.58 58.5092 28.6 58.4791 25.67 58.7191C23.98 58.8591 22.19 59.1192 21.06 59.8492C19.93 60.5792 19.85 61.8891 21.3 62.3991C21.82 62.5691 22.44 62.6292 23.05 62.6792Z" fill="#EAF1F2"/>
<path d="M24.93 10.0692C28.91 10.5992 32.96 10.5592 36.93 9.93922C37.77 9.80922 38.67 9.61921 39.23 8.99921C40.21 7.92921 39.57 6.11917 38.35 5.32917C37.13 4.53917 35.56 4.47916 34.09 4.44916C31.73 4.39916 29.36 4.34921 27.02 4.67921C25.67 4.86921 24.25 5.21917 23.35 6.20917C22.45 7.19917 22.39 8.9792 23.54 9.6692C23.95 9.9292 24.45 10.0092 24.93 10.0692Z" fill="#2F3F47"/>
<path d="M25.76 16.0992C25.26 16.0992 24.67 16.1592 24.43 16.5992C24.31 16.8192 24.31 17.0792 24.32 17.3292C24.49 23.3892 24.67 29.4592 24.84 35.5192C28.67 36.5392 32.75 37.5592 36.52 36.3392C37.03 29.6892 37.15 23.0192 36.87 16.3492C35.31 16.0092 33.69 16.0192 32.09 16.0392C29.99 16.0592 27.88 16.0792 25.76 16.0992Z" fill="#E2ECED"/>
<path d="M37.21 16.3492C37.2 16.2092 37.11 16.0592 36.97 16.0292C35.25 15.6792 33.51 15.6891 31.77 15.7091C29.77 15.7291 27.77 15.7491 25.77 15.7591C24.44 15.7991 23.98 16.3592 24.01 17.6692C24.07 19.6492 24.12 21.6292 24.18 23.6192C24.29 27.5792 24.41 31.5491 24.52 35.5091C24.52 35.6591 24.62 35.7891 24.76 35.8291C28.61 36.8591 32.68 37.8591 36.61 36.6491C36.76 36.5991 36.84 36.4791 36.85 36.3291C37.36 29.6891 37.48 23.0192 37.21 16.3492ZM36.22 36.0892C32.55 37.1392 28.77 36.2191 25.18 35.2591C25.09 32.0791 25 28.8992 24.91 25.7192C24.86 24.0892 24.82 22.4592 24.77 20.8192C24.75 19.9992 24.72 19.1892 24.7 18.3692C24.69 18.0192 24.68 17.6692 24.67 17.3192C24.65 16.6292 25.21 16.4392 25.78 16.4192C27.56 16.3992 29.34 16.3892 31.12 16.3692C32.94 16.3492 34.78 16.2892 36.58 16.6192C36.81 23.1192 36.7 29.6092 36.22 36.0892Z" fill="#2F3F47"/>
<path opacity="0.2" d="M31.57 34.5392C31.66 34.3992 31.71 34.2492 31.76 34.0992C31.82 33.8892 31.8699 33.6692 31.8299 33.4492C31.7999 33.2792 31.71 33.1292 31.62 32.9692C31.59 32.9192 31.5599 32.8592 31.5299 32.8092C31.4799 32.7292 31.44 32.6392 31.37 32.5692C31.2 32.3792 30.93 32.3192 30.68 32.2692C30.5 32.2392 30.32 32.2092 30.13 32.2292C29.72 32.2792 29.37 32.5892 29.23 32.9792C29.09 33.3592 29.14 33.7992 29.31 34.1692C29.53 34.6392 29.98 35.0292 30.5 35.0692C30.93 35.0992 31.35 34.8892 31.57 34.5392Z" fill="#272525"/>
<path d="M31.2799 34.4792C31.3699 34.3392 31.4199 34.1892 31.4699 34.0392C31.5299 33.8292 31.58 33.6092 31.54 33.3892C31.51 33.2192 31.4199 33.0692 31.3399 32.9092C31.3099 32.8592 31.28 32.7992 31.25 32.7492C31.2 32.6692 31.1599 32.5792 31.0899 32.5092C30.9199 32.3192 30.6499 32.2592 30.3999 32.2092C30.2199 32.1792 30.04 32.1492 29.85 32.1692C29.44 32.2192 29.0899 32.5292 28.9499 32.9192C28.8099 33.3092 28.8599 33.7392 29.0299 34.1092C29.2499 34.5792 29.6999 34.9692 30.2199 35.0092C30.6399 35.0492 31.0599 34.8292 31.2799 34.4792Z" fill="#83959E"/>
<path opacity="0.2" d="M30.47 33.8292C30.55 33.7192 30.56 33.5892 30.56 33.4592C30.56 33.4192 30.56 33.3692 30.55 33.3292C30.53 33.2692 30.48 33.2192 30.42 33.1792C30.25 33.0692 30.01 33.0592 29.83 33.1692C29.66 33.2792 29.56 33.5192 29.63 33.7092C29.74 33.8292 29.87 33.9292 30.03 33.9692C30.19 33.9992 30.37 33.9592 30.47 33.8292Z" fill="black"/>
<path opacity="0.2" d="M31.66 49.1192C31.75 48.9792 31.8 48.8292 31.85 48.6792C31.91 48.4692 31.96 48.2492 31.92 48.0292C31.89 47.8592 31.7999 47.7092 31.7199 47.5492C31.6899 47.4992 31.66 47.4392 31.63 47.3892C31.58 47.3092 31.5399 47.2192 31.4699 47.1492C31.2999 46.9592 31.0299 46.8992 30.7799 46.8492C30.5999 46.8192 30.42 46.7892 30.23 46.8092C29.82 46.8592 29.4699 47.1692 29.3299 47.5592C29.1899 47.9392 29.24 48.3792 29.41 48.7492C29.63 49.2192 30.08 49.6092 30.6 49.6492C31.01 49.6892 31.44 49.4792 31.66 49.1192Z" fill="#272525"/>
<path d="M31.37 49.0692C31.46 48.9292 31.51 48.7792 31.56 48.6292C31.62 48.4192 31.67 48.1992 31.63 47.9792C31.6 47.8092 31.51 47.6592 31.42 47.4992C31.39 47.4492 31.3599 47.3892 31.3299 47.3392C31.2799 47.2592 31.24 47.1692 31.17 47.0992C31 46.9092 30.73 46.8492 30.48 46.7992C30.3 46.7692 30.12 46.7392 29.93 46.7592C29.52 46.8092 29.1699 47.1192 29.0299 47.5092C28.8899 47.8892 28.94 48.3292 29.11 48.6992C29.33 49.1692 29.78 49.5592 30.3 49.5992C30.72 49.6292 31.15 49.4192 31.37 49.0692Z" fill="#83959E"/>
<path opacity="0.2" d="M30.56 48.4192C30.64 48.3092 30.64 48.1792 30.65 48.0492C30.65 48.0092 30.6499 47.9592 30.6399 47.9192C30.6199 47.8592 30.57 47.8092 30.51 47.7692C30.34 47.6592 30.1 47.6492 29.92 47.7592C29.75 47.8692 29.65 48.1092 29.72 48.2992C29.83 48.4192 29.96 48.5192 30.12 48.5592C30.27 48.5892 30.46 48.5492 30.56 48.4192Z" fill="black"/>
<path d="M45.22 35.5592C45.35 35.3392 45.48 35.1192 45.69 34.9792C45.86 34.8692 46.06 34.8392 46.26 34.7992C47.1 34.6692 47.95 34.6092 48.8 34.6192C49.36 35.1692 49.84 35.8092 50.22 36.4992C50.29 36.6292 50.36 36.7692 50.36 36.9092C50.36 37.0192 50.31 37.1292 50.26 37.2392C49.7 38.4292 49.14 39.6092 48.58 40.7992C48.1 40.7792 47.62 40.6892 47.15 40.5392C47.47 39.8192 47.8 39.0892 48.12 38.3692C48.43 37.6792 48.73 36.8292 48.28 36.2192C47.7 36.2592 47.12 36.2991 46.53 36.3391C46.43 36.3491 46.32 36.3491 46.24 36.3991C46.13 36.4591 46.07 36.5692 46.01 36.6792C45.64 37.3492 45.33 38.0491 45.07 38.7591C44.73 38.5991 44.4 38.4291 44.06 38.2691C44.21 37.2991 44.72 36.4192 45.22 35.5592Z" fill="#2F3F47"/>
<path d="M49.73 35.2892C49.76 35.2692 49.78 35.2292 49.8 35.1892C49.99 34.7592 50.18 34.3192 50.37 33.8892C49.69 33.5892 48.99 33.3392 48.27 33.1392C48.08 33.4992 47.94 33.8692 47.83 34.2592C47.81 34.3392 47.79 34.4392 47.84 34.5092C47.87 34.5592 47.92 34.5792 47.97 34.6092C48.48 34.8792 49.01 35.0992 49.56 35.2792C49.61 35.2992 49.68 35.3192 49.73 35.2892Z" fill="#2F3F47"/>
<path d="M50.78 33.6491C51.34 33.0191 51.36 31.0592 51.5 30.2892C51.69 29.2492 51.89 28.1892 51.84 27.1292C51.79 26.0692 51.49 24.9892 50.79 24.1892C50.39 23.7392 49.89 23.3892 49.36 23.0992C47.78 22.1992 46 21.6591 44.19 21.5291C44.05 21.5191 43.89 21.5191 43.77 21.5891C43.64 21.6691 43.58 21.8292 43.54 21.9792C43.35 22.5492 43.12 23.1592 43.03 23.7492C42.88 24.7892 42.72 24.4592 43.42 24.9092C43.95 25.2492 45.07 25.2692 45.71 25.5392C46.45 25.8592 47.15 26.2692 47.84 26.6692C48.28 26.9292 48.75 27.2191 48.92 27.6991C49.01 27.9591 48.99 28.2491 48.97 28.5291C48.84 30.1891 48.62 31.8392 48.29 33.4692C48.23 33.7492 50.35 33.9992 50.69 33.7492C50.71 33.7192 50.74 33.6891 50.78 33.6491Z" fill="#516770"/>
<g opacity="0.15">
<path opacity="0.15" d="M49.03 23.5292C48.78 24.4892 48.36 25.3292 47.81 26.1492C47.7 26.3092 47.9 26.4892 48.04 26.3492C48.81 25.6092 49.32 24.6592 49.62 23.6492C49.73 23.2692 49.13 23.1492 49.03 23.5292Z" fill="#272525"/>
<path opacity="0.15" d="M50.4499 24.5092C50.0899 25.4192 49.56 25.9592 48.76 26.4992C48.65 26.5692 48.74 26.7492 48.86 26.6992C49.37 26.4992 49.83 26.3992 50.24 26.0092C50.62 25.6492 50.92 25.2192 51.07 24.7192C51.18 24.3692 50.5799 24.1692 50.4499 24.5092Z" fill="#272525"/>
</g>
<defs>
<linearGradient id="paint0_linear_161_16" x1="21.6883" y1="66.0809" x2="55.3471" y2="66.0809" gradientUnits="userSpaceOnUse">
<stop stop-color="#4D4D4D"/>
<stop offset="1"/>
</linearGradient>
<linearGradient id="paint1_linear_161_16" x1="21.6883" y1="66.0809" x2="55.3471" y2="66.0809" gradientUnits="userSpaceOnUse">
<stop/>
<stop offset="1"/>
</linearGradient>
</defs>
</svg>
