<svg width="1535" height="773" viewBox="0 0 1535 773" fill="none" xmlns="http://www.w3.org/2000/svg">
<path fill-rule="evenodd" clip-rule="evenodd" d="M10.3613 3.21756V6.43513H5.55063H0.739928V12.8703V19.3054H6.39443H12.048L14.0983 25.2579C15.225 28.5314 16.1448 31.4272 16.1409 31.693C16.1371 31.9588 12.6705 32.1756 8.43705 32.1756H0.739928V38.5188V44.8619L10.4046 45.3072C15.7205 45.5517 20.8948 45.9565 21.9041 46.2062C24.4038 46.8246 35.1422 61.3693 32.7359 60.877C24.6972 59.2334 18.1018 58.4252 10.1208 58.1054L0.739928 57.7289V64.1621V70.5953L8.67759 70.9924C40.0001 72.5599 69.2376 87.2218 80.7073 107.113C101.599 143.348 65.6575 181.765 7.23438 185.646L0.739928 186.078V192.554V199.031L8.51017 198.597C74.3514 194.925 119.057 153.491 103.081 110.949C101.054 105.553 100.75 105.597 112.729 109.544C125.156 113.639 124.395 112.38 124.307 128.703C124.065 173.252 76.039 207.454 8.19652 211.393L0.739928 211.826V218.298V224.771L9.52619 224.327C86.9083 220.42 144.097 179.599 144.171 128.22C144.179 122.468 144.429 117.763 144.725 117.763C145.022 117.763 147.708 118.169 150.695 118.664C153.682 119.161 157.811 119.76 159.871 119.998L163.617 120.43L163.073 131.484C160.309 187.796 94.0483 233.927 12.0451 236.629L0.739928 237.002V243.727V250.451L5.55159 250.228L10.3623 250.005V256.44V262.875L5.51696 262.65L0.670654 262.426L0.945826 269.086L1.221 275.745L6.74657 275.938C11.5332 276.105 12.3385 276.321 12.7599 277.547C15.4636 285.412 16.1082 287.439 16.1197 288.113C16.1303 288.697 14.1762 288.796 8.43705 288.5L0.739928 288.103V294.578V301.054L8.19652 301.507C24.1604 302.476 22.6267 301.837 28.7844 310.092C33.623 316.579 33.9925 317.343 32.1519 317.065C19.6922 315.187 15.1624 314.654 8.51017 314.283L0.739928 313.849V320.274V326.698L10.0236 327.461C66.7293 332.122 101.17 370.277 80.7073 405.766C69.2376 425.658 40.0001 440.32 8.67759 441.887L0.739928 442.285V448.718V455.151L10.1208 454.776C73.4835 452.247 118.949 409.194 102.899 366.923C101.934 364.379 101.227 362.298 101.329 362.298C102.982 362.298 122.936 369.712 123.44 370.514C125.07 373.102 125.095 392.116 123.477 398.335C113.65 436.12 66.4464 464.991 10.2642 467.579L0.739928 468.018V474.46V480.901L11.564 480.483C85.8499 477.617 144.133 435.405 144.149 384.457L144.153 374.12L153.507 375.519L162.861 376.918L162.742 387.787C162.15 442.434 97.6611 488.067 13.9694 493.061L0.739928 493.85V500.147V506.445H5.55063H10.3613V512.88V519.315H5.55063H0.739928V525.75V532.185H5.97493C8.85462 532.185 11.488 532.486 11.8286 532.854C12.4761 533.555 16.1342 543.409 16.1342 544.453C16.1342 544.785 12.6705 545.055 8.43705 545.055H0.739928V551.399V557.742L10.4046 558.187C15.7205 558.432 20.8948 558.836 21.9041 559.086C24.4038 559.704 35.1422 574.249 32.7359 573.757C24.6972 572.113 18.1018 571.305 10.1208 570.985L0.739928 570.609V577.042V583.475L8.67759 583.872C39.9674 585.438 69.2491 600.122 80.7073 619.993C101.605 656.237 65.6719 694.645 7.23438 698.526L0.739928 698.957V705.434V711.911L8.51017 711.477C74.3456 707.805 119.061 666.381 103.091 623.859C101.052 618.429 100.743 618.475 112.729 622.424C125.156 626.519 124.395 625.26 124.307 641.582C124.065 686.132 76.039 720.334 8.19652 724.273L0.739928 724.706V731.178V737.651L9.52619 737.207C86.9083 733.3 144.097 692.479 144.171 641.1C144.179 635.349 144.429 630.643 144.725 630.643C145.022 630.643 147.708 631.049 150.695 631.544C153.682 632.04 157.811 632.64 159.871 632.878L163.617 633.309L163.073 644.364C160.313 700.6 94.9392 746.209 12.2856 749.565L1.221 750.014L0.945826 756.674L0.670654 763.334L5.51696 763.109L10.3623 762.885V767.55L10.3613 772.216H19.9443H29.5262L29.8062 766.928L30.0852 761.641L36.8202 760.612C40.5244 760.046 44.7453 759.379 46.2011 759.13L48.8469 758.677V765.446V772.216H58.3211H67.7963L68.4063 764.654C69.2703 753.949 68.6334 754.671 80.8256 750.581C93.2324 746.42 92.4944 746.31 90.116 751.954C88.3082 756.242 86.507 767.7 87.1594 770.768C87.4538 772.158 87.8454 772.216 97.0213 772.216H106.575V767.829C106.575 726.625 175.114 699.132 230.969 717.93C258.987 727.36 275.93 744.79 278.458 766.784L279.082 772.216H288.709H298.336L297.74 765.298C294.002 721.839 230.227 690.095 167.836 700.637C163.164 701.427 159.242 702.073 159.122 702.073C159 702.073 161.344 698.823 164.329 694.851C170.838 686.189 170.019 686.443 191.725 686.373C258.345 686.158 310.398 718.526 316.559 763.998L317.673 772.216H327.247H336.821L336.235 764.976C331.959 712.093 267.047 671.763 188.553 673.217C177.133 673.429 176.737 673.391 177.167 672.149C177.412 671.441 178.337 668.632 179.223 665.906L180.832 660.95L185.144 660.517C191.174 659.912 208.988 660.766 221.551 662.262C294.804 670.987 351.572 714.013 354.521 763.045L355.073 772.216H365.043H375.013V767.711V763.206H384.153H393.293V767.711V772.216H403.396H413.498V766.878V761.54L421.841 760.38C426.429 759.742 430.714 759.085 431.362 758.918C432.266 758.686 432.42 760.201 432.021 765.416L431.503 772.216H441.139H450.773L451.481 765.941C451.869 762.491 452.466 758.43 452.807 756.917L453.427 754.166L463.984 750.678C476.489 746.546 475.569 746.315 473.159 752.976C472.083 755.948 470.925 761.493 470.587 765.298L469.97 772.216H479.597H489.223L489.848 766.784C494.507 726.241 552.387 701.371 608.096 715.973C638.908 724.049 661.73 745.945 661.73 767.431V772.216H671.352H680.973L680.957 766.263C680.854 729.537 633.621 699.348 576.1 699.243C559.733 699.214 557.166 699.423 544.587 701.812C542.61 702.188 542.882 701.583 547.693 694.908C553.808 686.426 552.526 686.917 570.327 686.241C638.629 683.644 700.155 722.161 700.21 767.55L700.216 772.216H709.986H719.754L719.161 763.367C715.808 713.375 652.976 673.626 577.062 673.471L560.225 673.436L562.124 667.18L564.022 660.923L568.378 660.481C574.277 659.881 598.637 661.248 609.294 662.775C683.681 673.441 738.702 718.36 738.702 768.423V772.216H748.323H757.944V767.55V762.885H767.566H777.187V767.55V772.216H786.77H796.352L796.632 766.928L796.911 761.641L803.646 760.612C807.35 760.046 811.571 759.379 813.027 759.13L815.673 758.677V765.446V772.216H825.147H834.622L835.232 764.654C836.096 753.949 835.459 754.671 847.652 750.581C860.058 746.42 859.32 746.31 856.942 751.954C855.134 756.242 853.333 767.7 853.985 770.768C854.28 772.158 854.671 772.216 863.847 772.216H873.401V767.829C873.401 736.15 916.725 709.663 964.805 711.947C1008.98 714.045 1041.79 736.404 1045.28 766.784L1045.91 772.216H1055.53H1065.16L1064.57 765.298C1060.83 721.839 997.053 690.095 934.662 700.637C929.99 701.427 926.085 702.073 925.984 702.073C925.884 702.073 928.191 698.775 931.111 694.746L936.422 687.419L946.009 686.612C1014.91 680.817 1076.84 715.705 1083.38 763.998L1084.5 772.216H1094.07H1103.65L1103.06 764.976C1098.78 712.093 1033.87 671.763 955.379 673.217C943.959 673.429 943.563 673.391 943.993 672.149C944.238 671.441 945.163 668.632 946.049 665.906L947.658 660.95L951.97 660.517C958 659.912 975.813 660.766 988.377 662.262C1061.42 670.962 1118.42 714.032 1121.34 762.724L1121.91 772.216H1131.88H1141.84V767.711V763.206H1150.98H1160.12V767.711V772.216H1170.22H1180.32V766.878V761.54L1188.67 760.38C1193.26 759.742 1197.54 759.085 1198.19 758.918C1199.09 758.686 1199.25 760.201 1198.85 765.416L1198.33 772.216H1207.96H1217.6L1218.31 765.941C1218.7 762.491 1219.29 758.43 1219.63 756.917L1220.25 754.166L1230.81 750.678C1243.32 746.546 1242.39 746.315 1239.98 752.976C1238.91 755.948 1237.75 761.493 1237.41 765.298L1236.8 772.216H1246.42H1256.05L1256.67 766.784C1261.33 726.241 1319.21 701.371 1374.92 715.973C1406 724.117 1428.56 745.93 1428.56 767.829V772.216H1438.18H1447.8L1447.78 766.263C1447.68 729.537 1400.45 699.348 1342.93 699.243C1326.56 699.214 1323.99 699.423 1311.41 701.812C1309.44 702.188 1309.71 701.583 1314.52 694.908C1320.63 686.426 1319.35 686.917 1337.15 686.241C1405.33 683.649 1466.98 722.242 1467.04 767.55L1467.04 772.216H1476.81H1486.58L1485.99 763.367C1482.63 713.375 1419.8 673.626 1343.89 673.471L1327.05 673.436L1328.95 667.18L1330.85 660.923L1335.2 660.481C1341.1 659.881 1365.46 661.248 1376.12 662.775C1450.51 673.441 1505.53 718.36 1505.53 768.423V772.216H1515.15H1524.77L1524.77 767.55V762.885L1529.58 763.108L1534.39 763.331V756.512V749.693H1528.64C1523.46 749.693 1522.83 749.548 1522.38 748.245C1519.73 740.543 1519.02 738.32 1519.01 737.647C1519 737.062 1520.96 736.964 1526.69 737.26L1534.39 737.656V731.181V724.706L1526.94 724.253C1510.97 723.284 1512.51 723.923 1506.35 715.668C1501.51 709.181 1501.14 708.417 1502.98 708.694C1515.44 710.573 1519.97 711.106 1526.62 711.477L1534.39 711.911V705.434V698.957L1527.9 698.526C1469.43 694.642 1433.52 656.255 1454.42 619.993C1465.89 600.102 1495.13 585.44 1526.45 583.872L1534.39 583.475V577.042V570.609L1525.01 570.983C1461.68 573.511 1416.19 616.586 1432.23 658.837C1433.2 661.381 1433.9 663.462 1433.8 663.462C1432.15 663.462 1412.2 656.048 1411.69 655.246C1410.06 652.657 1410.04 633.643 1411.65 627.425C1421.48 589.639 1468.69 560.769 1524.87 558.181L1534.39 557.742V551.3V544.859L1523.57 545.276C1449.3 548.142 1390.99 590.367 1390.96 641.301L1390.96 651.637L1381.62 650.239L1372.27 648.841L1372.39 637.972C1372.98 583.266 1437.38 537.699 1521.16 532.699L1534.39 531.91V525.612V519.315H1529.58H1524.77V512.88V506.445H1529.58H1534.39V500.01V493.574H1529.16C1522.5 493.574 1522.94 494.06 1519.43 482.796L1518.78 480.704H1526.59H1534.39V474.361V468.018L1524.73 467.573C1519.41 467.328 1514.24 466.923 1513.23 466.674C1510.73 466.055 1499.99 451.511 1502.4 452.003C1510.43 453.646 1517.03 454.455 1525.01 454.774L1534.39 455.151V448.718V442.285L1526.45 441.887C1495.16 440.322 1465.88 425.637 1454.42 405.766C1433.52 369.505 1469.43 331.118 1527.9 327.233L1534.39 326.802V320.326V313.849L1526.62 314.283C1460.68 317.961 1416.15 359.311 1432.11 402.058C1434.07 407.311 1434.35 407.274 1422.4 403.336C1409.98 399.241 1410.74 400.5 1410.83 384.177C1411.07 339.628 1459.09 305.425 1526.94 301.487L1534.39 301.054V294.582V288.109L1525.61 288.553C1448.22 292.46 1391.03 333.281 1390.96 384.66C1390.95 390.412 1390.7 395.117 1390.41 395.117C1390.11 395.117 1387.42 394.711 1384.44 394.215C1381.45 393.719 1377.32 393.119 1375.26 392.882L1371.51 392.45L1372.06 381.396C1374.82 325.16 1440.19 279.551 1522.85 276.194L1533.91 275.745L1534.19 269.086L1534.46 262.426L1529.61 262.65L1524.77 262.875V256.44V250.005L1529.58 250.228L1534.39 250.451V243.632V236.813H1528.64C1523.45 236.813 1522.83 236.669 1522.4 235.365C1522.13 234.568 1521.26 231.945 1520.46 229.533C1519.65 227.122 1519 224.887 1519 224.566C1519 224.233 1522.3 224.153 1526.69 224.38L1534.39 224.776V218.301V211.826L1526.94 211.373C1510.96 210.403 1512.52 211.057 1506.26 202.69C1503.22 198.629 1500.73 195.241 1500.73 195.161C1500.72 195.082 1501.9 195.316 1503.34 195.683C1507.74 196.803 1518.43 198.14 1526.62 198.597L1534.39 199.031V192.554V186.078L1527.9 185.646C1462.49 181.301 1427.4 134.387 1461.85 97.341C1475.55 82.6052 1500.89 72.2717 1526.45 70.9924L1534.39 70.5953V64.0791V57.5635L1525.32 58.0069C1461.05 61.1505 1416.14 103.582 1432.23 145.957C1433.2 148.501 1433.9 150.582 1433.8 150.582C1432.15 150.582 1412.2 143.168 1411.69 142.366C1410.06 139.777 1410.04 120.764 1411.65 114.545C1421.49 76.746 1468.67 47.8896 1524.87 45.3007L1534.39 44.8619V38.4222V31.9826L1524.05 32.3545C1449.63 35.0309 1390.99 77.3644 1390.96 128.421L1390.96 138.757L1381.62 137.359L1372.27 135.961L1372.39 125.092C1372.98 70.4364 1437.46 24.8139 1521.16 19.8189L1534.39 19.03V12.7325V6.43513H1529.58H1524.77V3.21756V0H1515.15H1505.53V3.78193V7.56321L1496.63 8.93453C1491.73 9.68809 1487.4 10.3033 1487.01 10.3007C1486.61 10.2981 1486.28 7.97956 1486.28 5.1481V0H1476.8H1467.32L1466.65 6.46409C1466.29 10.0195 1465.68 13.4803 1465.31 14.1554C1464.38 15.8272 1442.64 23.0095 1443.37 21.4C1445.83 16.0235 1447.04 11.6122 1447.52 6.27425L1448.08 0H1438.46H1428.84L1428.25 5.30898C1423.9 44.1945 1359.91 68.8295 1306.63 52.131C1278.18 43.2125 1260.01 25.7785 1256.82 4.34371L1256.18 0H1246.5H1236.81L1237.46 5.19701C1242.97 49.3336 1304.74 79.0897 1368.7 68.4106C1376.55 67.0991 1376.5 66.9093 1370.61 74.9023C1364.49 83.214 1366.37 82.7049 1341.96 82.6457C1275.1 82.4836 1224.53 50.5962 1218.29 4.66547L1217.65 0H1207.99H1198.33L1198.99 5.87656C1204.83 57.6324 1265.87 95.8821 1342.69 95.9317C1351.28 95.9368 1358.32 96.146 1358.31 96.395C1358.31 96.6447 1357.91 97.8622 1357.42 99.101C1356.94 100.34 1356.03 103.059 1355.41 105.145L1354.28 108.936L1337.78 108.574C1253.67 106.727 1184.64 62.3596 1180.6 7.56128L1180.04 0H1169.99H1159.93L1160.27 3.21821L1160.6 6.43577H1150.98H1141.36L1141.69 3.21821L1142.02 0H1131.83H1121.63V3.84885C1121.63 7.31546 1121.42 7.72988 1119.47 8.02075C1118.28 8.19835 1114.35 8.78266 1110.75 9.32C1107.14 9.85669 1103.8 10.2962 1103.32 10.2962C1102.82 10.2962 1102.71 8.0896 1103.05 5.1481L1103.64 0H1093.96H1084.27L1083.6 4.98723C1082.15 15.6644 1083.1 14.6386 1070.76 18.7571C1061.06 21.9933 1059.92 22.2405 1060.34 21.0094C1063.14 12.6759 1063.94 9.64626 1064.5 5.19701L1065.14 0H1055.46H1045.78L1045.13 4.34371C1039.33 43.4191 981.89 67.4582 927.715 53.4849C897.974 45.8136 876.053 26.2585 873.709 5.30898L873.116 0H863.373H853.631L854.294 6.06961C858.995 49.0634 922.419 79.0916 985.792 68.3276C989.595 67.6821 992.707 67.2091 992.707 67.2773C992.707 68.3829 981.622 81.7287 980.423 82.0659C976.552 83.156 948.124 83.1728 938.827 82.091C882.292 75.513 839.169 43.9738 835.297 6.37013L834.641 0H825.012H815.384L815.94 6.91776C819.928 56.503 883.334 95.9317 959.091 95.9349L975.026 95.9356L972.937 102.184L970.847 108.432L954.596 108.353C872.803 107.956 804.674 64.8854 797.198 8.8483L796.018 0H786.603H777.187V3.21756V6.43513H767.566H757.944V3.21756V0H748.323H738.702V3.78193V7.56321L729.802 8.93453C724.907 9.68809 720.578 10.3033 720.18 10.3007C719.783 10.2981 719.459 7.97956 719.459 5.1481V0H709.975H700.491L699.825 6.46409C699.46 10.0195 698.855 13.4803 698.481 14.1554C697.557 15.8272 675.81 23.0095 676.546 21.4C679.004 16.0235 680.212 11.6122 680.69 6.27425L681.253 0H671.635H662.016L661.423 5.30898C659.079 26.2585 637.157 45.8136 607.417 53.4849C553.241 67.4582 495.802 43.4191 489.999 4.34371L489.354 0H479.671H469.987L470.636 5.19701C476.135 49.304 537.959 79.0826 601.872 68.4106C609.726 67.0991 609.67 66.9093 603.783 74.9023C597.66 83.214 599.542 82.7049 575.138 82.6457C508.531 82.4842 457.393 50.3626 451.505 4.98723L450.857 0H441.18H431.503L432.166 5.87656C438.008 57.6324 499.04 95.8821 575.859 95.9317C584.459 95.9368 591.491 96.146 591.488 96.395C591.486 96.6447 591.084 97.8622 590.597 99.101C590.11 100.34 589.202 103.059 588.582 105.145L587.452 108.936L570.953 108.574C486.861 106.727 417.81 62.3506 413.772 7.56128L413.215 0H403.161H393.108L393.44 3.21821L393.774 6.43577H384.153H374.531L374.865 3.21821L375.198 0H365.003H354.808V3.84885C354.808 7.31546 354.593 7.72988 352.643 8.02075C351.452 8.19835 347.529 8.78266 343.924 9.32C340.319 9.85669 336.977 10.2962 336.497 10.2962C335.999 10.2962 335.879 8.0896 336.219 5.1481L336.812 0H327.131H317.449L316.771 4.98723C315.322 15.6644 316.279 14.6386 303.936 18.7571C294.237 21.9933 293.095 22.2405 293.51 21.0094C296.318 12.6759 297.115 9.64626 297.67 5.19701L298.318 0H288.634H278.951L278.307 4.34371C272.504 43.4191 215.064 67.4582 160.889 53.4849C131.148 45.8136 109.227 26.2585 106.883 5.30898L106.29 0H96.547H86.8053L87.4682 6.06961C92.1692 49.0634 155.594 79.0916 218.966 68.3276C222.769 67.6821 225.881 67.2091 225.881 67.2773C225.881 68.3829 214.796 81.7287 213.597 82.0659C209.726 83.156 181.298 83.1728 172.001 82.091C115.466 75.513 72.3434 43.9738 68.4708 6.37013L67.8146 0H58.1864H48.5583L49.1144 6.91776C53.116 56.6883 116.41 95.913 192.747 95.9291L208.201 95.9323L206.111 102.182L204.021 108.432L187.77 108.353C106.052 107.956 37.8401 64.8339 30.3719 8.8483L29.1923 0H19.7768H10.3613V3.21756ZM125.357 3.7002C132.348 44.1154 204.763 59.4207 243.988 28.7747C252.64 22.0159 259.556 10.3902 259.556 2.60816V0H250.122H240.688L239.497 4.7414C234.105 26.2045 200.197 38.0483 171.257 28.5784C157.995 24.2386 146.402 13.3735 145.308 4.25748L144.797 0H134.757H124.718L125.357 3.7002ZM163.743 2.7079C166.617 14.7262 184.417 21.9451 201.957 18.205C211.694 16.1284 221.07 8.08896 221.07 1.81599V0H211.449C203.27 0 201.827 0.154443 201.827 1.02962C201.827 6.84505 185.597 7.65974 183.883 1.9299L183.306 0H173.201H163.095L163.743 2.7079ZM508.75 2.60816C508.75 10.3902 515.666 22.0159 524.318 28.7747C563.543 59.4207 635.958 44.1154 642.948 3.7002L643.588 0H633.548H623.508L622.998 4.25748C621.904 13.3735 610.311 24.2386 597.049 28.5784C568.108 38.0483 534.201 26.2045 528.809 4.7414L527.618 0H518.184H508.75V2.60816ZM547.236 1.81599C547.236 8.08896 556.612 16.1284 566.349 18.205C583.888 21.9451 601.689 14.7262 604.563 2.7079L605.21 0H595.105H585L584.422 1.9299C582.709 7.65974 566.479 6.84505 566.479 1.02962C566.479 0.154443 565.035 0 556.857 0H547.236V1.81599ZM892.183 3.7002C899.174 44.1154 971.589 59.4207 1010.81 28.7747C1019.47 22.0159 1026.38 10.3902 1026.38 2.60816V0H1016.95H1007.51L1006.32 4.7414C1000.93 26.2045 967.023 38.0483 938.083 28.5784C924.821 24.2386 913.228 13.3735 912.134 4.25748L911.623 0H901.583H891.543L892.183 3.7002ZM930.569 2.7079C933.443 14.7262 951.243 21.9451 968.783 18.205C978.52 16.1284 987.896 8.08896 987.896 1.81599V0H978.275C970.096 0 968.653 0.154443 968.653 1.02962C968.653 6.84505 952.423 7.65974 950.709 1.9299L950.132 0H940.027H929.921L930.569 2.7079ZM1275.58 2.60816C1275.58 10.3902 1282.49 22.0159 1291.14 28.7747C1330.37 59.4207 1402.78 44.1154 1409.77 3.7002L1410.41 0H1400.37H1390.33L1389.82 4.25748C1388.73 13.3735 1377.14 24.2386 1363.87 28.5784C1334.93 38.0483 1301.03 26.2045 1295.63 4.7414L1294.44 0H1285.01H1275.58V2.60816ZM1314.06 1.81599C1314.06 8.08896 1323.44 16.1284 1333.17 18.205C1350.71 21.9451 1368.51 14.7262 1371.39 2.7079L1372.04 0H1361.93H1351.83L1351.25 1.9299C1349.53 7.65974 1333.3 6.84505 1333.3 1.02962C1333.3 0.154443 1331.86 0 1323.68 0H1314.06V1.81599ZM397.171 24.1317C398.018 26.6093 399.001 29.3931 399.355 30.3178L399.999 32L381.011 32.3539C301.626 33.8353 241.162 74.708 240.86 127.094L240.794 138.677L231.44 137.407L222.085 136.137L221.424 133.224C220.527 129.279 222.57 112.985 224.854 105.858C241.067 55.2752 308.314 18.9386 384.6 19.5403L395.631 19.6271L397.171 24.1317ZM779.628 21.075C779.933 22.0487 780.807 24.6414 781.571 26.8384C782.335 29.0347 782.96 31.0965 782.96 31.4202C782.96 31.7439 774.625 32.1692 764.439 32.3655C684.202 33.908 624.164 75.013 624.139 128.421L624.134 138.757L614.79 137.359L605.445 135.961L605.564 125.092C606.194 66.9479 678.167 20.0519 767.788 19.389L779.075 19.3054L779.628 21.075ZM1164 24.1317C1164.84 26.6093 1165.83 29.3931 1166.18 30.3178L1166.83 32L1147.84 32.3539C1068.41 33.8359 1008.08 74.6243 1007.7 127.094L1007.62 138.677L998.266 137.407L988.911 136.137L988.285 133.34C986.591 125.79 990.529 106.326 996.058 94.9182C1017.94 49.7738 1081.34 19.0165 1151.43 19.5441L1162.46 19.6271L1164 24.1317ZM404.839 46.0678C406.755 46.3966 408.277 47.9205 412.327 53.5718C417.813 61.227 417.883 61.4825 414.2 60.5462C403.563 57.8415 377.855 56.9805 364.171 58.8711C313.132 65.9221 279.434 93.4143 279.366 128.059C279.345 138.973 279.678 140.795 283.22 149.136C283.781 150.458 282.877 150.276 272.898 147.059C260.216 142.969 260.95 143.826 259.939 131.92C256.435 90.6832 302.463 52.7488 364.188 46.0035C372.556 45.089 399.378 45.1315 404.839 46.0678ZM788.446 46.1212C791.201 46.822 802.199 61.4182 799.562 60.8744C720.29 44.5285 645.02 92.2656 665.407 145.957C666.372 148.501 667.079 150.582 666.977 150.582C665.324 150.582 645.37 143.168 644.866 142.366C643.236 139.777 643.211 120.764 644.828 114.545C654.174 78.6148 696.923 50.8118 750.728 45.6701C757.572 45.0157 785.409 45.349 788.446 46.1212ZM1171.66 46.0678C1173.58 46.3966 1175.1 47.9205 1179.15 53.5718C1184.64 61.227 1184.71 61.4825 1181.03 60.5462C1170.39 57.8415 1144.68 56.9805 1131 58.8711C1079.94 65.9253 1046.26 93.3995 1046.19 128.059C1046.17 138.973 1046.5 140.795 1050.05 149.136C1050.61 150.458 1049.7 150.276 1039.72 147.059C1027.04 142.969 1027.78 143.826 1026.76 131.92C1023.27 90.7791 1069.43 52.7327 1131.01 46.0035C1139.38 45.089 1166.2 45.1315 1171.66 46.0678ZM400.687 71.7195C456.33 79.6386 485.886 119.072 461.623 153.019C427.532 200.716 323.461 194.661 301.38 143.695C283.83 103.189 339.302 62.9838 400.687 71.7195ZM790.435 72.6938C885.823 91.6755 866.801 185.53 767.566 185.53C662.671 185.53 650.78 84.5969 754.096 71.197C760.452 70.3726 783.552 71.3244 790.435 72.6938ZM1165.47 71.4628C1222.33 78.1978 1253.64 119.654 1227.81 153.985C1196.11 196.123 1105.85 196.123 1074.14 153.985C1042.72 112.216 1096.82 63.33 1165.47 71.4628ZM0.739928 89.6356V96.3506L7.10545 96.6923C20.7351 97.424 36.9799 105.178 43.4686 114.048C57.6274 133.404 39.9192 156.083 7.82898 159.689L0.739928 160.486V166.795V173.105H4.14783C27.6856 173.105 53.4113 161.008 62.8249 145.514C80.0444 117.17 52.5339 86.9283 6.27224 83.3484L0.739928 82.9205V89.6356ZM374.423 83.6161C309.828 90.4734 295.904 149.061 354.29 168.333C411.698 187.282 472.366 146.908 444.3 108.432C431.735 91.2044 402.095 80.6785 374.423 83.6161ZM757.71 83.6721C707.389 88.9612 683.284 128.728 714.185 155.478C753.507 189.519 834.324 171.082 834.372 128.059C834.402 100.707 797.718 79.4668 757.71 83.6721ZM1141.25 83.6161C1076.65 90.4734 1062.73 149.061 1121.12 168.333C1178.52 187.282 1239.19 146.908 1211.13 108.432C1198.56 91.2044 1168.92 80.6785 1141.25 83.6161ZM1524.54 83.7114C1480.24 88.0512 1454.51 120.551 1473.84 147.756C1483.95 161.984 1509.02 173.105 1530.98 173.105H1534.39V166.795V160.486L1527.3 159.689C1495.21 156.083 1477.5 133.404 1491.66 114.048C1498.15 105.178 1514.4 97.424 1528.03 96.6923L1534.39 96.3506V89.6819C1534.39 82.0878 1535.33 82.6541 1524.54 83.7114ZM398.429 97.8288C432.882 104.946 443.132 134.696 416.805 151.168C384.727 171.238 333.972 155.153 336.781 125.807C338.711 105.631 369.205 91.7913 398.429 97.8288ZM787.963 99.5746C830.207 113.576 821.089 154.43 774.541 159.706C743.217 163.257 714.405 143.398 720.739 122.623C727.128 101.669 760.135 90.3524 787.963 99.5746ZM1165.26 97.8288C1199.71 104.946 1209.96 134.696 1183.63 151.168C1151.55 171.238 1100.8 155.153 1103.61 125.807C1105.54 105.631 1136.03 91.7913 1165.26 97.8288ZM507.812 119.349C517.366 170.164 449.628 216.327 373.211 211.078C367.059 210.655 361.864 210.205 361.669 210.078C360.916 209.587 351.081 195.975 351.35 195.796C351.506 195.692 355.486 196.252 360.196 197.04C408.534 205.135 463.994 185.886 481.923 154.791C489.668 141.357 491.61 124.379 486.843 111.76C485.663 108.635 484.697 106.023 484.697 105.956C484.697 105.889 489.627 107.432 495.652 109.385L506.605 112.937L507.812 119.349ZM1274.64 119.349C1284.19 170.155 1216.44 216.326 1140.04 211.078C1133.88 210.655 1128.69 210.205 1128.49 210.078C1127.74 209.587 1117.91 195.975 1118.18 195.796C1118.33 195.692 1122.31 196.252 1127.02 197.04C1140.14 199.237 1163.57 199.073 1176.96 196.692C1235.69 186.24 1268.46 147.088 1251.94 107.112C1251.47 105.975 1252.92 106.286 1262.41 109.364L1273.43 112.937L1274.64 119.349ZM880.044 109.699C891.903 113.576 891.221 112.408 891.133 128.703C890.912 169.445 849.779 202.465 789.695 210.133C779.818 211.394 757.22 211.677 749.285 210.639L744.956 210.073L739.434 202.69C736.397 198.629 733.908 195.246 733.902 195.174C733.896 195.101 735.515 195.421 737.499 195.883C754.262 199.796 780.68 199.508 800.76 195.195C850.264 184.56 882.464 147.659 871.134 114.545C868.315 106.31 868.245 105.994 869.28 106.254C869.819 106.39 874.664 107.94 880.044 109.699ZM0.739928 115.348V122.107L3.62539 122.493C12.1923 123.639 10.9742 134.494 2.27935 134.494C0.970842 134.494 0.739928 135.459 0.739928 140.929V147.364H3.45509C12.834 147.364 24.8541 141.093 27.9589 134.581C33.5508 122.85 22.7576 110.944 4.78862 109.022L0.739928 108.589V115.348ZM376.456 109.615C344.321 116.735 350.558 147.056 384.153 147.038C421.191 147.018 422.673 110.711 385.705 109.011C382.735 108.874 378.572 109.146 376.456 109.615ZM758.251 109.908C737.983 114.753 732.213 131.479 747.312 141.62C769.175 156.304 805.309 140.761 794.447 121.345C789.122 111.826 772.372 106.533 758.251 109.908ZM1143.28 109.615C1111.15 116.735 1117.38 147.056 1150.98 147.038C1188.02 147.018 1189.5 110.711 1152.53 109.011C1149.56 108.874 1145.4 109.146 1143.28 109.615ZM1525.08 109.948C1496.52 116.549 1501.95 147.364 1531.68 147.364H1534.39V140.929C1534.39 135.669 1534.13 134.494 1532.96 134.494C1524.3 134.494 1522.98 123.634 1531.51 122.493L1534.39 122.107V115.43C1534.39 107.749 1534.45 107.782 1525.08 109.948ZM538.771 119.376L546.181 120.452L546.828 123.336C547.184 124.921 547.165 129.457 546.788 133.413C541.303 190.961 474.355 234.987 389.839 236.627L372.435 236.965L370.768 231.35C369.851 228.262 368.911 225.404 368.679 225C368.373 224.467 372.697 224.258 384.383 224.24C465.846 224.119 530.09 179.951 527.84 125.616C527.523 117.978 527.579 117.713 529.436 118C530.494 118.164 534.695 118.783 538.771 119.376ZM917.521 118.664C920.508 119.161 924.576 119.753 926.56 119.981L930.168 120.395V127.945C930.168 187.216 861.188 234.969 773.146 236.647L756.116 236.971L755.604 235.444C753.051 227.838 752.172 225.085 752.172 224.707C752.172 224.464 759.208 224.249 767.806 224.23C848.178 224.054 910.919 181.985 910.997 128.22C911.005 122.469 911.255 117.763 911.551 117.763C911.847 117.763 914.534 118.169 917.521 118.664ZM1305.6 119.376L1313.01 120.452L1313.65 123.336C1314.01 124.921 1313.99 129.457 1313.61 133.413C1308.13 190.961 1241.18 234.987 1156.67 236.627L1139.26 236.965L1137.59 231.35C1136.68 228.262 1135.74 225.404 1135.5 225C1135.2 224.467 1139.52 224.258 1151.21 224.24C1232.67 224.119 1296.92 179.951 1294.67 125.616C1294.35 117.978 1294.41 117.713 1296.26 118C1297.32 118.164 1301.52 118.783 1305.6 119.376ZM201.827 128.059V134.494H192.206H182.584V128.059V121.624H192.206H201.827V128.059ZM585.721 128.059V134.494H576.1H566.479V128.059V121.624H576.1H585.721V128.059ZM968.653 128.059V134.494H959.032H949.41V128.059V121.624H959.032H968.653V128.059ZM1352.55 128.059V134.494H1342.93H1333.3V128.059V121.624H1342.93H1352.55V128.059ZM390.708 124.073C396.488 128.108 392.553 134.172 384.153 134.172C380.42 134.172 379.262 133.866 377.334 132.367C372.066 128.271 376.119 122.267 384.153 122.267C387.246 122.267 388.693 122.666 390.708 124.073ZM772.429 122.93C780.142 125.691 776.44 134.494 767.566 134.494C763.909 134.494 757.944 130.924 757.944 128.735C757.944 123.89 766.045 120.645 772.429 122.93ZM1157.53 124.073C1163.31 128.108 1159.38 134.172 1150.98 134.172C1147.25 134.172 1146.09 133.866 1144.16 132.367C1138.89 128.271 1142.94 122.267 1150.98 122.267C1154.07 122.267 1155.52 122.666 1157.53 124.073ZM221.083 149.325C296.868 158.452 352.304 201.351 354.53 252.592L355.033 264.188L346.577 265.364C341.927 266.01 337.656 266.659 337.084 266.806C336.367 266.989 336.034 263.73 336.01 256.286C335.828 201.79 269.808 158.831 188.553 160.337C177.133 160.549 176.737 160.511 177.167 159.269C177.412 158.562 178.336 155.755 179.22 153.033C180.55 148.941 181.189 148.028 182.909 147.766C187.168 147.118 210.757 148.081 221.083 149.325ZM590.051 148.034C675.694 153.443 741.935 202.954 738.533 259.014L738.221 264.162L731.005 265.186C727.036 265.749 722.814 266.42 721.624 266.677L719.459 267.145V257.817C719.459 203.121 657.776 160.872 577.543 160.612L560.225 160.556L562.121 154.309C563.706 149.088 564.339 148.018 565.97 147.8C569.846 147.283 579.676 147.379 590.051 148.034ZM987.908 149.325C1063.63 158.444 1119.43 201.611 1121.41 252.592L1121.86 264.188L1113.4 265.364C1108.75 266.01 1104.48 266.659 1103.91 266.806C1103.19 266.989 1102.86 263.73 1102.84 256.286C1102.65 201.79 1036.63 158.831 955.379 160.337C943.959 160.549 943.563 160.511 943.993 159.269C944.238 158.562 945.162 155.755 946.046 153.033C947.375 148.941 948.015 148.028 949.735 147.766C953.994 147.118 977.583 148.081 987.908 149.325ZM1356.88 148.034C1442.23 153.425 1508.08 202.369 1505.33 258.37L1505.05 264.161L1497.83 265.185C1493.86 265.749 1489.7 266.407 1488.58 266.649C1486.57 267.084 1486.54 266.952 1486.02 254.364C1483.8 201.243 1422.71 160.803 1344.37 160.601L1327.05 160.556L1328.95 154.309C1330.53 149.088 1331.16 148.018 1332.8 147.8C1336.67 147.283 1346.5 147.379 1356.88 148.034ZM216.235 174.709C278.458 183.019 322.686 222.366 316.331 263.758C315.699 267.873 315.026 271.348 314.835 271.478C314.101 271.981 293.75 278.559 293.482 278.38C293.326 278.276 294.163 275.613 295.343 272.463C298.626 263.691 298.381 248.016 294.821 239.065C279.185 199.757 220.7 177.866 160.85 188.918C159.037 189.253 167.022 176.9 169.906 174.907C172.588 173.054 202.872 172.925 216.235 174.709ZM593.113 174.102C656.999 180.447 702.406 216.835 699.874 259.657C699.148 271.915 699.857 271.026 687.48 275.178C675.069 279.341 675.791 279.449 678.269 273.806C682.695 263.721 681.694 245.672 676.071 234.199C659.198 199.768 602.362 178.76 550.685 187.854C546.496 188.591 542.965 189.122 542.837 189.033C542.383 188.717 553.047 174.711 553.885 174.521C560.285 173.073 580.574 172.857 593.113 174.102ZM983.061 174.709C1045.26 183.016 1089.51 222.379 1083.16 263.758C1082.52 267.873 1081.85 271.348 1081.66 271.478C1080.93 271.981 1060.58 278.559 1060.31 278.38C1060.15 278.276 1060.99 275.613 1062.17 272.463C1074.28 240.118 1045.51 203.045 998.999 191.048C978.914 185.868 953.529 184.569 934.662 187.757C929.99 188.547 926.085 189.193 925.984 189.193C925.884 189.193 928.191 185.892 931.111 181.857L936.422 174.523L943.157 173.854C951.786 172.997 973.77 173.469 983.061 174.709ZM1359.94 174.102C1423.82 180.447 1469.23 216.835 1466.7 259.657C1465.97 271.915 1466.68 271.026 1454.31 275.178C1441.89 279.341 1442.62 279.449 1445.09 273.806C1449.52 263.721 1448.52 245.672 1442.9 234.199C1426.02 199.768 1369.19 178.76 1317.51 187.854C1313.32 188.591 1309.79 189.122 1309.66 189.033C1309.21 188.717 1319.87 174.711 1320.71 174.521C1327.11 173.073 1347.4 172.857 1359.94 174.102ZM215.574 201.065C278.795 213.401 299.563 265.676 253.616 296.811C209.174 326.928 131.924 315.334 111.211 275.438C88.5526 231.797 149.711 188.213 215.574 201.065ZM590.997 199.827C652.804 207.035 682.363 255.577 645.847 289.903C607.008 326.413 522.174 319.881 496.35 278.393C470.416 236.727 524.246 192.042 590.997 199.827ZM982.4 201.065C1045.62 213.401 1066.39 265.676 1020.44 296.811C973.252 328.79 892.42 313.821 875.811 270.026C859.832 227.9 920.1 188.908 982.4 201.065ZM1357.82 199.827C1426.89 207.882 1452.82 265.873 1401.76 298.086C1346.79 332.77 1257.01 306.94 1257.01 256.44C1257.01 220.365 1304.63 193.623 1357.82 199.827ZM176.337 212.715C134.096 219.839 112.909 251.526 133.116 277.354C158.338 309.591 228.347 309.039 252.42 276.413C277.544 242.364 231.099 203.479 176.337 212.715ZM561.815 212.407C519.657 217.952 496.53 250.181 515.885 276.413C539.959 309.039 609.968 309.591 635.19 277.354C661.482 243.749 617.76 205.048 561.815 212.407ZM943.163 212.715C900.922 219.839 879.735 251.526 899.942 277.354C925.137 309.557 995.199 309.004 1019.25 276.413C1044.37 242.37 997.916 203.481 943.163 212.715ZM1327.53 212.63C1278.16 220.146 1258.72 261.588 1292.88 286.519C1334.35 316.787 1409.71 297.384 1409.71 256.44C1409.71 227.686 1369.48 206.242 1327.53 212.63ZM204.192 225.571C239.69 231.755 251.909 260.296 226.756 278.279C197.485 299.207 145.061 285.193 145.061 256.44C145.061 235.521 174.146 220.337 204.192 225.571ZM593.528 226.786C621.49 234.377 632.098 257.52 615.285 274.25C592.31 297.111 538.908 290.542 529.444 263.692C520.717 238.938 558.384 217.246 593.528 226.786ZM971.018 225.571C1006.52 231.755 1018.73 260.296 993.582 278.279C964.311 299.207 911.887 285.193 911.887 256.44C911.887 235.521 940.972 220.337 971.018 225.571ZM1360.35 226.786C1399.84 237.504 1399.84 275.444 1360.35 286.08C1333.8 293.235 1302.88 282.433 1296.27 263.692C1287.54 238.938 1325.21 217.246 1360.35 226.786ZM91.5814 235.687C80.461 258.959 89.989 286.551 115.424 304.737C135.773 319.286 161.186 326.497 192.206 326.525C208.524 326.539 211.248 326.316 223.719 323.948C225.696 323.572 225.424 324.177 220.613 330.851C214.498 339.333 215.78 338.842 197.979 339.519C126.303 342.243 65.4323 301.685 68.4631 253.222C69.2539 240.575 68.4929 241.563 80.4667 237.663C92.3242 233.802 92.4964 233.771 91.5814 235.687ZM475.075 234.51C475.075 234.659 474.118 237.337 472.948 240.462C454.05 290.924 528.693 339.048 603.456 324.604C606.065 324.1 608.454 323.687 608.765 323.687C609.075 323.687 606.94 326.984 604.02 331.014L598.71 338.34L589.122 339.147C513.175 345.535 444.131 300.214 451.975 249.122C452.607 245.007 453.288 241.526 453.49 241.389C454.939 240.395 475.075 233.978 475.075 234.51ZM858.407 235.687C847.287 258.959 856.815 286.551 882.25 304.737C902.599 319.286 928.012 326.497 959.032 326.525C975.35 326.539 978.074 326.316 990.545 323.948C992.522 323.572 992.25 324.177 987.439 330.851C981.324 339.333 982.606 338.842 964.805 339.519C893.129 342.243 832.258 301.685 835.289 253.222C836.08 240.575 835.319 241.563 847.293 237.663C859.15 233.802 859.322 233.771 858.407 235.687ZM1241.9 234.51C1241.9 234.659 1240.94 237.337 1239.77 240.462C1227.68 272.741 1256.5 309.849 1302.96 321.832C1323.04 327.012 1348.43 328.311 1367.3 325.123C1371.97 324.333 1375.87 323.687 1375.97 323.687C1376.07 323.687 1373.77 326.984 1370.85 331.014L1365.54 338.34L1355.95 339.147C1280 345.535 1210.96 300.214 1218.8 249.122C1219.43 245.007 1220.11 241.526 1220.32 241.389C1221.77 240.395 1241.9 233.978 1241.9 234.51ZM187.856 237.51C169.793 239.056 158.438 252.942 166.061 264.162C179.013 283.223 220.557 277.339 220.582 256.44C220.597 243.886 206.774 235.891 187.856 237.51ZM571.154 237.503C543.977 240.365 538.215 265.232 562.822 273.456C574.205 277.26 588.036 275.787 596.498 269.87C615.622 256.495 598.495 234.624 571.154 237.503ZM954.682 237.51C920.186 240.463 924.274 275.388 959.118 275.417C976.359 275.432 987.394 268.03 987.408 256.44C987.423 243.886 973.6 235.891 954.682 237.51ZM1337.98 237.503C1310.8 240.365 1305.04 265.232 1329.65 273.456C1341.03 277.26 1354.86 275.787 1363.32 269.87C1382.45 256.495 1365.32 234.624 1337.98 237.503ZM49.1135 258.531C51.3322 311.743 112.553 352.128 191.244 352.289L208.081 352.323L206.182 358.58L204.284 364.836L200.101 365.255C188.813 366.388 159.712 363.754 142.656 360.056C74.4149 345.263 26.9246 300.598 29.7725 253.89L30.0852 248.767L38.7445 247.368C43.5071 246.599 47.6693 245.936 47.9935 245.896C48.3178 245.855 48.8219 251.541 49.1135 258.531ZM432.295 256.601C432.478 311.099 498.705 354.157 579.88 352.554C591.175 352.331 591.566 352.368 591.138 353.61C590.894 354.318 589.969 357.128 589.083 359.854L587.473 364.81L583.162 365.243C571.368 366.425 542.845 363.725 524.928 359.729C459.769 345.197 415.478 305.578 413.721 260.253L413.271 248.623L422.284 247.307C427.241 246.583 431.514 245.953 431.779 245.907C432.043 245.861 432.276 250.673 432.295 256.601ZM815.939 258.531C818.155 311.681 879.143 352.014 957.676 352.267L975.083 352.323L973.886 355.363C973.228 357.035 972.393 359.844 972.03 361.606L971.372 364.81L966.886 365.266C955.52 366.42 925.898 363.644 908.038 359.749C841.185 345.173 793.778 300.14 796.598 253.89L796.911 248.767L805.57 247.368C810.333 246.599 814.495 245.936 814.819 245.896C815.144 245.855 815.648 251.541 815.939 258.531ZM1199.12 256.601C1199.3 311.099 1265.53 354.157 1346.71 352.554C1358 352.331 1358.39 352.368 1357.96 353.61C1357.72 354.318 1356.8 357.128 1355.91 359.854L1354.3 364.81L1349.99 365.243C1347.62 365.481 1340.84 365.468 1334.92 365.216C1248.89 361.547 1183.05 316.771 1180.6 260.253L1180.1 248.623L1189.11 247.307C1194.07 246.583 1198.34 245.953 1198.6 245.907C1198.87 245.861 1199.1 250.673 1199.12 256.601ZM777.187 256.44V262.875H767.566H757.944V256.44V250.005H767.566H777.187V256.44ZM198.646 251.879C200.888 253.169 201.346 253.943 201.346 256.44C201.346 262.167 191.91 264.782 186.036 260.681C177.905 255.005 189.731 246.751 198.646 251.879ZM393.293 256.44V262.553H384.153H375.013V256.44V250.327H384.153H393.293V256.44ZM582.06 252.056C587.899 255.796 583.981 262.553 575.974 262.553C570.357 262.553 566.96 260.25 566.96 256.44C566.96 250.821 576.027 248.189 582.06 252.056ZM965.472 251.879C967.714 253.169 968.172 253.943 968.172 256.44C968.172 262.167 958.735 264.782 952.862 260.681C944.731 255.005 956.557 246.751 965.472 251.879ZM1160.12 256.44V262.553H1150.98H1141.84V256.44V250.327H1150.98H1160.12V256.44ZM1348.89 252.056C1354.72 255.796 1350.81 262.553 1342.8 262.553C1337.18 262.553 1333.79 260.25 1333.79 256.44C1333.79 250.821 1342.85 248.189 1348.89 252.056ZM397.577 281.657C398.472 284.675 399.395 287.476 399.627 287.88C399.933 288.413 395.609 288.622 383.923 288.639C302.426 288.762 238.214 332.906 240.466 387.264C240.782 394.902 240.727 395.167 238.87 394.879C237.811 394.715 233.611 394.097 229.535 393.504L222.125 392.428L221.478 389.544C219.014 378.555 225.649 355.394 235.59 340.286C261.825 300.41 325.977 273.68 389.979 275.958L395.947 276.17L397.577 281.657ZM778.96 276.418C779.336 276.642 782.899 286.996 782.935 287.972C782.951 288.374 777.09 288.628 767.325 288.65C686.954 288.825 624.213 330.894 624.135 384.66C624.127 390.412 623.877 395.117 623.581 395.117C623.284 395.117 620.598 394.711 617.611 394.215C614.624 393.719 610.495 393.119 608.435 392.882L604.689 392.45L605.233 381.396C607.738 330.355 660.642 288.3 735.334 277.974C748.309 276.18 776.856 275.162 778.96 276.418ZM1164.4 281.657C1165.3 284.675 1166.22 287.476 1166.45 287.88C1166.76 288.413 1162.44 288.622 1150.75 288.639C1069.25 288.762 1005.04 332.906 1007.29 387.264C1007.61 394.902 1007.55 395.167 1005.7 394.879C1004.64 394.715 1000.44 394.097 996.361 393.504L988.95 392.428L988.304 389.544C985.84 378.555 992.475 355.394 1002.42 340.286C1028.64 300.424 1092.88 273.665 1156.85 275.958L1162.77 276.17L1164.4 281.657ZM397.084 301.896L406.716 302.629L411.974 309.764C418.216 318.235 418.622 317.6 408.11 315.839C359.75 307.741 304.32 326.98 286.383 358.089C278.638 371.523 276.696 388.501 281.463 401.12C282.643 404.245 283.609 406.868 283.609 406.949C283.609 407.03 278.75 405.462 272.812 403.466C259.862 399.113 260.241 399.66 260.136 385.143C259.777 335.397 324.03 296.34 397.084 301.896ZM786.326 302.346C790.112 302.787 790.26 302.911 795.608 310.086C800.449 316.579 800.818 317.343 798.978 317.065C797.842 316.894 793.664 316.239 789.695 315.61C715.178 303.804 646.436 351.569 665.283 402.058C667.242 407.306 667.541 407.266 655.594 403.33C643.161 399.234 643.911 400.472 643.999 384.177C644.275 333.208 712.834 293.791 786.326 302.346ZM1163.91 301.896L1173.54 302.629L1178.8 309.764C1185.04 318.235 1185.45 317.6 1174.94 315.839C1126.58 307.741 1071.15 326.98 1053.21 358.089C1045.46 371.523 1043.52 388.501 1048.29 401.12C1049.47 404.245 1050.44 406.868 1050.44 406.949C1050.44 407.03 1045.58 405.462 1039.64 403.466C1026.69 399.113 1027.07 399.66 1026.96 385.143C1026.6 335.397 1090.86 296.34 1163.91 301.896ZM402.745 328.488C467.179 337.567 492.114 391.434 446.879 423.831C392.276 462.936 293.965 434.976 298.373 381.597C300.729 353.085 330.968 331.796 375.494 327.302C380.455 326.802 395.386 327.451 402.745 328.488ZM778.802 327.596C831.68 332.452 866.17 368.974 849.384 402.337C822.745 455.289 712.541 455.194 685.688 402.196C665.86 363.064 717.193 321.937 778.802 327.596ZM1169.57 328.488C1234.07 337.576 1259.06 391.873 1213.52 423.993C1158.48 462.818 1060.8 434.897 1065.2 381.597C1067.55 353.085 1097.79 331.796 1142.32 327.302C1147.28 326.802 1162.21 327.451 1169.57 328.488ZM0.739928 346.084V352.394L7.82898 353.191C39.9192 356.797 57.6274 379.476 43.4686 398.832C36.9799 407.702 20.7351 415.456 7.10545 416.187L0.739928 416.529V423.244V429.959L6.27224 429.531C60.5928 425.328 86.4888 385.094 53.192 356.632C41.8945 346.975 21.1565 339.775 4.63948 339.775H0.739928V346.084ZM369.24 340.773C327.675 346.727 305.092 378.518 324.006 404.448C348.351 437.824 419.946 437.824 444.302 404.448C468.952 370.668 424.397 332.873 369.24 340.773ZM751.66 340.983C701.025 349.315 683.186 391.504 719.925 416.031C762.677 444.572 834.416 425.008 834.372 384.821C834.339 355.336 794.086 334.001 751.66 340.983ZM1136.07 340.773C1094.5 346.727 1071.92 378.518 1090.83 404.448C1115.18 437.823 1186.78 437.823 1211.13 404.448C1235.8 370.619 1191.29 332.862 1136.07 340.773ZM1518.49 340.983C1445.07 353.063 1453.35 423.688 1528.86 429.531L1534.39 429.959V423.244V416.529L1528.03 416.187C1514.4 415.456 1498.15 407.702 1491.66 398.832C1477.48 379.444 1495.57 356.435 1527.61 353.119L1534.39 352.417V346.095V339.775L1529.82 339.822C1527.31 339.848 1522.21 340.371 1518.49 340.983ZM394.995 353.616C428.826 358.95 443.056 386.417 421.368 404.521C402.411 420.348 365.894 420.348 346.937 404.521C318.953 381.16 351.442 346.747 394.995 353.616ZM776.335 353.298C821.351 358.973 829.228 399.629 787.959 413.306L779.738 416.031H767.566H755.394L747.172 413.306C697.679 396.903 722.187 346.473 776.335 353.298ZM1161.82 353.616C1195.65 358.95 1209.88 386.417 1188.19 404.521C1169.24 420.348 1132.72 420.348 1113.76 404.521C1085.78 381.16 1118.27 346.747 1161.82 353.616ZM496.36 366.039C508.153 369.914 507.376 368.932 508.406 381.281C512.377 428.933 451.555 469.604 379.342 467.584C360.377 467.053 361.923 467.601 355.979 459.308C349.995 450.959 349.801 451.496 358.189 453.2C367.539 455.098 399.026 455.256 408.633 453.453C458.943 444.011 488.873 418.431 488.94 384.821C488.961 373.878 488.644 372.154 485.054 363.659C484.696 362.814 484.794 362.25 485.272 362.403C485.749 362.556 490.739 364.192 496.36 366.039ZM878.952 365.848C891.604 370.08 890.856 369.116 891.431 381.925C893.246 422.331 854.987 455.776 795.526 465.763C784.759 467.571 751.867 468.282 746.685 466.818C743.912 466.035 732.984 451.472 735.57 452.005C751.616 455.314 778.749 455.851 793.523 453.152C850.83 442.681 884.167 404.958 869.725 366.923C868.76 364.379 868.053 362.298 868.155 362.298C868.257 362.298 873.116 363.896 878.952 365.848ZM1263.19 366.039C1274.98 369.914 1274.2 368.932 1275.23 381.281C1279.2 428.933 1218.38 469.604 1146.17 467.584C1127.2 467.053 1128.75 467.601 1122.8 459.308C1116.82 450.959 1116.63 451.496 1125.01 453.2C1134.36 455.098 1165.85 455.256 1175.46 453.453C1225.77 444.011 1255.7 418.431 1255.77 384.821C1255.79 373.878 1255.47 372.154 1251.88 363.659C1251.52 362.814 1251.62 362.25 1252.1 362.403C1252.58 362.556 1257.56 364.192 1263.19 366.039ZM0.739928 371.95C0.739928 377.42 0.970842 378.386 2.27935 378.386C10.9742 378.386 12.1923 389.241 3.62539 390.387L0.739928 390.773V397.532V404.291L4.78862 403.858C22.7576 401.936 33.5508 390.03 27.9589 378.299C24.8541 371.786 12.834 365.515 3.45509 365.515H0.739928V371.95ZM374.727 366.405C344.437 373.952 351.96 403.77 384.153 403.77C421.006 403.77 422.513 366.824 385.706 365.715C380.988 365.573 377.079 365.818 374.727 366.405ZM756.987 366.638C750.663 368.13 742.451 373.885 740.347 378.299C731.066 397.77 766.336 412.671 787.771 398.335C809.634 383.712 786.328 359.713 756.987 366.638ZM1141.55 366.405C1111.26 373.952 1118.79 403.77 1150.98 403.77C1187.83 403.77 1189.34 366.824 1152.53 365.715C1147.81 365.573 1143.91 365.818 1141.55 366.405ZM1523.81 366.638C1496.77 373.019 1501.64 400.788 1530.34 403.858L1534.39 404.291V397.532V390.773L1531.51 390.387C1522.94 389.241 1524.16 378.386 1532.85 378.386C1534.16 378.386 1534.39 377.42 1534.39 371.95V365.515L1531.26 365.566C1529.55 365.594 1526.19 366.077 1523.81 366.638ZM546.882 379.656C547.778 383.601 545.736 399.894 543.452 407.022C527.13 457.943 456.741 495.356 380.834 493.456L372.706 493.253L370.536 487.139C369.342 483.777 368.345 480.881 368.32 480.704C368.295 480.527 374.228 480.472 381.505 480.581C462.131 481.793 527.214 439.38 527.46 385.464L527.512 374.203L536.866 375.473L546.221 376.743L546.882 379.656ZM929.568 387.787C928.937 445.994 855.638 493.518 766.42 493.569C755.077 493.576 756.256 494.49 752.632 482.88L752.005 480.873L770.609 480.515C850.931 478.968 910.958 437.889 910.975 384.457L910.979 374.12L920.333 375.519L929.687 376.918L929.568 387.787ZM1313.71 379.656C1314.6 383.601 1312.56 399.894 1310.28 407.022C1293.96 457.943 1223.57 495.356 1147.66 493.456L1139.53 493.253L1137.36 487.139C1136.17 483.777 1135.17 480.881 1135.15 480.704C1135.12 480.527 1141.05 480.472 1148.33 480.581C1230.09 481.81 1296.81 437.162 1294.67 382.656L1294.34 374.203L1303.69 375.473L1313.05 376.743L1313.71 379.656ZM201.827 384.779V391.172H192.206H182.584V384.779V378.386H192.206H201.827V384.779ZM391.128 380.652C396.255 384.598 392.043 390.612 384.153 390.612C376.734 390.612 372.341 385.084 376.559 381.057C379.832 377.931 387.323 377.723 391.128 380.652ZM585.721 384.791V391.195L576.1 391.172L566.479 391.149V384.767V378.386H576.1H585.721V384.791ZM773.916 380.574C781.572 385.694 772.351 393.403 762.702 389.95C754.99 387.189 758.692 378.386 767.566 378.386C769.785 378.386 771.559 378.997 773.916 380.574ZM968.653 384.779V391.172H959.032H949.41V384.779V378.386H959.032H968.653V384.779ZM1157.95 380.652C1163.08 384.598 1158.87 390.612 1150.98 390.612C1143.56 390.612 1139.17 385.084 1143.38 381.057C1146.66 377.931 1154.15 377.723 1157.95 380.652ZM1352.55 384.791V391.195L1342.93 391.172L1333.3 391.149V384.767V378.386H1342.93H1352.55V384.791ZM224.438 406.07C299.252 416.554 352.409 458.663 354.559 509.147L355.044 520.538L352.761 520.891C342.062 522.547 337.832 523.159 337.008 523.166C336.408 523.172 336.027 519.245 335.995 512.719C335.732 458.98 272.872 417.029 192.446 416.92C183.848 416.909 176.812 416.746 176.812 416.558C176.812 416.37 177.419 414.583 178.16 412.584C178.901 410.587 179.799 407.824 180.154 406.444L180.801 403.936L197.808 404.328C209.35 404.595 217.909 405.154 224.438 406.07ZM607.369 406.059C685.008 416.993 738.63 461.037 738.694 513.927L738.702 520.443L729.802 521.814C724.907 522.568 720.634 523.183 720.305 523.181C719.977 523.178 719.468 517.601 719.175 510.788C716.866 457.062 655.534 416.975 575.564 416.924L560.116 416.915L562.265 410.681C563.448 407.253 564.446 404.333 564.485 404.194C564.71 403.37 598.806 404.853 607.369 406.059ZM991.264 406.07C1066.08 416.554 1119.23 458.663 1121.39 509.147L1121.87 520.538L1119.59 520.891C1108.89 522.547 1104.66 523.159 1103.83 523.166C1103.23 523.172 1102.85 519.245 1102.82 512.719C1102.56 458.98 1039.7 417.029 959.272 416.92C950.674 416.909 943.638 416.746 943.638 416.558C943.638 416.37 944.245 414.583 944.986 412.584C945.727 410.587 946.625 407.824 946.98 406.444L947.627 403.936L964.634 404.328C976.176 404.595 984.734 405.154 991.264 406.07ZM1374.2 406.059C1451.83 416.993 1505.46 461.037 1505.52 513.927L1505.53 520.443L1496.63 521.814C1491.73 522.568 1487.46 523.183 1487.13 523.181C1486.8 523.178 1486.29 517.601 1486 510.788C1483.69 457.062 1422.36 416.975 1342.39 416.924L1326.94 416.915L1329.09 410.681C1330.27 407.253 1331.27 404.333 1331.31 404.194C1331.54 403.37 1365.63 404.853 1374.2 406.059ZM223.475 432.358C284.28 442.922 327.107 486.004 315.674 525.107L314.828 528.002L303.936 531.637C294.237 534.873 293.095 535.12 293.51 533.889C293.766 533.129 294.745 530.335 295.685 527.681C313.337 477.841 241.923 431.864 166.434 444.469C163.108 445.025 160.172 445.336 159.911 445.162C159.513 444.895 168.539 432.049 169.724 431.196C172.735 429.026 208.785 429.806 223.475 432.358ZM596.9 430.862C646.199 436.6 684.612 460.849 697.095 494.11C699.823 501.378 700.898 523.36 698.697 526.845C697.526 528.701 675.753 536.01 676.55 534.28C681.498 523.548 682.3 505.4 678.264 495.519C662.604 457.178 606.225 434.89 549.34 444.552C545.537 445.198 542.425 445.671 542.425 445.602C542.425 445.534 544.835 442.256 547.78 438.318C553.247 431.008 553.296 430.975 559.744 430.295C566.302 429.604 589.083 429.952 596.9 430.862ZM990.301 432.358C1048.91 442.539 1089.36 480.752 1083.21 520.119C1081.88 528.634 1083.04 527.587 1070.18 531.843C1060.98 534.885 1059.93 535.103 1060.34 533.878C1060.59 533.124 1061.57 530.335 1062.51 527.681C1080.16 477.841 1008.75 431.864 933.26 444.469C929.934 445.025 926.998 445.336 926.737 445.162C926.339 444.895 935.365 432.049 936.549 431.196C939.561 429.026 975.611 429.806 990.301 432.358ZM1363.73 430.862C1412.94 436.591 1451.46 460.904 1463.92 494.11C1466.65 501.378 1467.72 523.36 1465.52 526.845C1464.35 528.701 1442.58 536.01 1443.38 534.28C1448.32 523.548 1449.13 505.4 1445.09 495.519C1429.43 457.178 1373.05 434.89 1316.17 444.552C1312.36 445.198 1309.25 445.671 1309.25 445.602C1309.25 445.534 1311.66 442.256 1314.61 438.318C1320.07 431.008 1320.12 430.975 1326.57 430.295C1333.13 429.604 1355.91 429.952 1363.73 430.862ZM212.082 456.951C268.058 465.177 296.196 509.792 266.061 542.543C221.504 590.969 110.488 572.047 106.852 515.407C104.382 476.931 155.354 448.616 212.082 456.951ZM593.435 456.564C659.514 465.436 684.685 521.396 636.95 553.307C591.806 583.484 514.406 571.539 494.464 531.316C473.516 489.063 528.15 447.799 593.435 456.564ZM978.908 456.951C1042.75 466.333 1066.95 520.206 1021.73 552.271C969.644 589.196 876.933 566.111 873.677 515.407C871.208 476.931 922.18 448.616 978.908 456.951ZM1360.26 456.564C1434.67 466.555 1453.36 533.036 1389.61 561.011C1343 581.467 1278.79 566.607 1261.29 531.316C1240.34 489.063 1294.98 447.799 1360.26 456.564ZM180.732 468.491C126.3 476.178 106.676 518.7 145.542 544.743C187.385 572.781 259.556 552.611 259.556 512.88C259.556 485.363 219.798 462.974 180.732 468.491ZM562.208 468.853C512.386 476.315 491.717 516.043 524.319 541.678C562.562 571.746 634.69 557.347 642.594 518.068C648.547 488.484 605.815 462.322 562.208 468.853ZM947.558 468.491C893.126 476.178 873.502 518.7 912.368 544.743C954.211 572.781 1026.38 552.611 1026.38 512.88C1026.38 485.363 986.624 462.974 947.558 468.491ZM1329.03 468.853C1279.21 476.315 1258.54 516.043 1291.15 541.678C1329.39 571.746 1401.52 557.347 1409.42 518.068C1415.37 488.484 1372.64 462.322 1329.03 468.853ZM199.903 481.366C225.134 483.998 243.722 500.971 239.522 517.545C231.634 548.679 170.551 554.776 149.616 526.52L145.542 521.021V512.88V504.739L149.616 499.24C159.303 486.165 178.952 479.181 199.903 481.366ZM585.224 481.678C600.136 483.791 611.766 489.894 618.69 499.24L622.764 504.739V512.88V521.021L618.69 526.52C597.755 554.776 536.671 548.679 528.784 517.545C523.388 496.253 553.415 477.172 585.224 481.678ZM966.729 481.366C991.96 483.998 1010.55 500.971 1006.35 517.545C998.46 548.679 937.377 554.776 916.442 526.52L912.368 521.021V512.88V504.739L916.442 499.24C926.129 486.165 945.778 479.181 966.729 481.366ZM1357.36 482.585C1384.44 488.222 1398.08 509.557 1385.49 526.56C1370.67 546.556 1332.36 550.947 1308.99 535.327C1274 511.945 1309.97 472.72 1357.36 482.585ZM90.1228 495.522C69.786 546.649 141.53 594.36 218.966 581.207C222.769 580.562 225.881 580.089 225.881 580.157C225.881 581.263 214.796 594.609 213.597 594.946C209.726 596.036 181.298 596.053 172.001 594.971C110.921 587.865 68.54 554.061 68.6738 512.558C68.7228 497.378 68.1186 498.281 81.0835 494.008C93.623 489.875 92.4483 489.678 90.1228 495.522ZM473.748 494.979C454.174 547.329 523.954 594.387 601.769 581.314C609.738 579.975 609.678 579.778 603.783 587.782C597.66 596.094 599.542 595.585 575.138 595.526C513.739 595.377 465.302 568.243 453.305 527.278C451.491 521.085 451.104 505.882 452.628 500.653L453.472 497.757L464.033 494.193C476.495 489.989 475.64 489.919 473.748 494.979ZM856.949 495.522C836.612 546.649 908.356 594.36 985.792 581.207C989.595 580.562 992.707 580.089 992.707 580.157C992.707 581.263 981.622 594.609 980.423 594.946C976.552 596.036 948.124 596.053 938.827 594.971C877.747 587.865 835.366 554.061 835.5 512.558C835.549 497.378 834.945 498.281 847.909 494.008C860.449 489.875 859.274 489.678 856.949 495.522ZM1240.57 494.979C1220.99 547.366 1290.68 594.317 1368.7 581.29C1376.55 579.979 1376.5 579.789 1370.61 587.782C1364.49 596.094 1366.37 595.585 1341.96 595.526C1268.73 595.348 1211.28 553.442 1218.75 505.64C1220.07 497.145 1218.98 498.145 1231.47 493.971C1243.26 490.029 1242.46 489.941 1240.57 494.979ZM181.716 494.977C175.468 496.582 168.774 500.836 166.074 504.919C153.213 524.365 189.988 541.407 212.482 526.426C234.598 511.697 210.906 487.479 181.716 494.977ZM565.997 494.712C555.384 497.046 547.236 504.936 547.236 512.88C547.236 530.893 581.652 539.056 598.281 524.986C616.361 509.688 593.857 488.585 565.997 494.712ZM948.542 494.977C942.294 496.582 935.6 500.836 932.9 504.919C920.039 524.365 956.814 541.407 979.308 526.426C1001.42 511.697 977.732 487.479 948.542 494.977ZM1332.82 494.712C1322.21 497.046 1314.06 504.936 1314.06 512.88C1314.06 530.893 1348.48 539.056 1365.11 524.986C1383.19 509.688 1360.68 488.585 1332.82 494.712ZM49.1308 514.971C51.4399 568.698 112.772 608.784 192.742 608.835L208.19 608.845L206.105 615.079L204.021 621.312L187.77 621.233C102.179 620.818 33.1833 574.538 29.8832 515.329L29.3203 505.23L31.6275 504.912C32.8956 504.737 36.5316 504.17 39.7066 503.653C49.4435 502.065 48.5285 500.966 49.1308 514.971ZM432.311 513.041C432.574 566.78 495.434 608.73 575.859 608.839C584.459 608.851 591.491 609.055 591.488 609.294C591.486 609.533 591.084 610.742 590.597 611.981C590.11 613.22 589.202 615.939 588.582 618.025L587.452 621.816L570.953 621.454C484.116 619.546 416.202 574.253 413.746 516.612L413.261 505.222L415.545 504.872C416.8 504.68 420.426 504.118 423.601 503.624C426.776 503.131 430.023 502.694 430.817 502.655C432.042 502.595 432.268 504.157 432.311 513.041ZM815.957 514.971C818.266 568.698 879.598 608.784 959.568 608.835L975.016 608.845L972.931 615.079L970.847 621.312L954.596 621.233C867.33 620.809 796.511 571.819 796.438 511.826L796.43 505.302L804.368 504.018C808.734 503.312 813.007 502.7 813.865 502.659C815.235 502.593 815.488 504.083 815.957 514.971ZM1199.14 513.041C1199.4 566.78 1262.26 608.73 1342.69 608.839C1351.28 608.851 1358.32 609.055 1358.31 609.294C1358.31 609.533 1357.91 610.742 1357.42 611.981C1356.94 613.22 1356.03 615.939 1355.41 618.025L1354.28 621.816L1337.78 621.454C1250.94 619.546 1183.03 574.253 1180.57 516.612L1180.09 505.222L1182.37 504.872C1183.63 504.68 1187.25 504.118 1190.43 503.624C1193.6 503.131 1196.85 502.694 1197.64 502.655C1198.87 502.595 1199.09 504.157 1199.14 513.041ZM199.181 509.027C202.533 511.488 202.607 514.092 199.396 516.644C193.516 521.318 183.547 518.864 183.547 512.743C183.547 506.877 193.144 504.595 199.181 509.027ZM393.774 512.88V519.315H384.153H374.531V512.88V506.445H384.153H393.774V512.88ZM579.968 507.416C588.37 510.323 585.478 518.964 576.104 518.964C567.403 518.964 563.585 512.756 569.75 508.633C573.345 506.228 575.716 505.946 579.968 507.416ZM777.187 512.88V519.315H767.566H757.944V512.88V506.445H767.566H777.187V512.88ZM966.007 509.027C969.738 511.766 969.538 514.347 965.382 517.127C959.2 521.262 950.373 518.683 950.373 512.743C950.373 506.877 959.97 504.595 966.007 509.027ZM1160.6 512.88V519.315H1150.98H1141.36V512.88V506.445H1150.98H1160.6V512.88ZM1346.79 507.416C1355.2 510.323 1352.3 518.964 1342.93 518.964C1334.23 518.964 1330.41 512.756 1336.58 508.633C1340.17 506.228 1342.54 505.946 1346.79 507.416ZM397.171 537.012C398.018 539.489 399.001 542.273 399.355 543.198L399.999 544.88L381.011 545.234C300.383 546.738 238.371 589.919 240.462 643.104L240.794 651.557L231.44 650.287L222.085 649.017L221.424 646.104C220.527 642.158 222.57 625.865 224.854 618.738C241.027 568.282 308.693 531.714 384.6 532.407L395.631 532.507L397.171 537.012ZM778.81 532.99C779.497 533.703 780.341 535.965 782.5 542.88L783.127 544.886L764.523 545.245C684.202 546.792 624.164 587.872 624.139 641.301L624.134 651.637L614.79 650.239L605.445 648.841L605.564 637.972C606.141 584.751 668.575 539.109 749.285 532.907C760.994 532.007 777.91 532.055 778.81 532.99ZM1164 537.012C1164.84 539.489 1165.83 542.273 1166.18 543.198L1166.83 544.88L1147.84 545.234C1068.28 546.718 1007.91 587.66 1007.67 640.295L1007.62 651.557L998.266 650.287L988.911 649.017L988.25 646.104C987.353 642.158 989.396 625.865 991.68 618.738C1007.85 568.282 1075.52 531.714 1151.43 532.407L1162.46 532.507L1164 537.012ZM404.839 558.948C406.963 559.313 418.294 572.95 417.124 573.734C416.967 573.839 413.814 573.311 410.117 572.56C399.587 570.422 369.24 570.489 357.694 572.676C319.476 579.916 292.047 598.277 281.942 623.386C278.431 632.11 278.211 649.915 281.515 657.937C284.091 664.195 285.076 663.984 272.545 659.856C260.272 655.812 260.942 656.612 259.939 644.8C256.442 603.659 302.607 565.612 364.188 558.883C372.556 557.969 399.378 558.011 404.839 558.948ZM788.446 559.001C791.201 559.702 802.199 574.298 799.562 573.754C783.516 570.445 756.383 569.909 741.609 572.608C684.302 583.079 650.965 620.802 665.407 658.837C666.372 661.381 667.079 663.462 666.977 663.462C665.324 663.462 645.37 656.048 644.866 655.246C643.236 652.657 643.211 633.643 644.828 627.425C654.169 591.511 696.948 563.689 750.728 558.55C757.572 557.895 785.409 558.229 788.446 559.001ZM1171.66 558.948C1173.79 559.313 1185.12 572.95 1183.95 573.734C1183.79 573.839 1180.64 573.311 1176.94 572.56C1167.59 570.662 1136.11 570.503 1126.5 572.306C1086.49 579.815 1059.04 597.842 1048.78 623.347C1045.26 632.111 1045.03 649.897 1048.34 657.937C1050.92 664.195 1051.9 663.984 1039.37 659.856C1027.1 655.812 1027.77 656.612 1026.76 644.8C1023.27 603.659 1069.43 565.612 1131.01 558.883C1139.38 557.969 1166.2 558.011 1171.66 558.948ZM398.649 584.343C475.415 593.437 496.184 660.571 431.096 689.224C376.052 713.456 302.021 688.321 298.373 644.163C295.349 607.543 344.911 577.976 398.649 584.343ZM790.435 585.574C855.242 598.47 875.125 652.167 826.461 682.871C771.883 717.307 681.845 691.43 681.952 641.339C682.014 612.427 710.629 589.715 754.096 584.077C760.452 583.252 783.552 584.204 790.435 585.574ZM1165.47 584.343C1242.25 593.438 1263.02 660.567 1197.92 689.224C1142.88 713.456 1068.85 688.321 1065.2 644.163C1062.18 607.543 1111.74 577.976 1165.47 584.343ZM0.739928 602.515V609.23L7.10545 609.572C20.7351 610.304 36.9799 618.058 43.4686 626.928C57.6274 646.284 39.9192 668.963 7.82898 672.569L0.739928 673.366V679.675V685.985H4.63948C21.1565 685.985 41.8945 678.785 53.192 669.127C86.4888 640.665 60.5928 600.432 6.27224 596.228L0.739928 595.8V602.515ZM374.423 596.496C309.843 603.351 295.884 661.934 354.241 681.196C411.658 700.149 472.372 659.778 444.302 621.312C431.729 604.082 402.094 593.558 374.423 596.496ZM757.71 596.552C706.604 601.923 683.18 641.831 715.114 669.127C745.175 694.823 807.126 690.184 828.097 660.666C851.085 628.309 810.168 591.038 757.71 596.552ZM1141.25 596.496C1076.67 603.351 1062.71 661.934 1121.07 681.196C1178.54 700.167 1239.22 659.821 1211.13 621.312C1198.56 604.084 1168.92 593.558 1141.25 596.496ZM1524.54 596.591C1480.21 600.934 1454.51 633.431 1473.86 660.666C1483.94 674.848 1508.85 685.985 1530.49 685.985H1534.39V679.675V673.366L1527.3 672.569C1495.21 668.963 1477.5 646.284 1491.66 626.928C1498.15 618.058 1514.4 610.304 1528.03 609.572L1534.39 609.23V602.562C1534.39 594.968 1535.33 595.534 1524.54 596.591ZM398.429 610.709C432.717 617.792 443.05 647.24 417.097 663.908C385.408 684.26 333.966 668.105 336.781 638.687C338.711 618.511 369.205 604.671 398.429 610.709ZM787.963 612.454C830.207 626.455 821.089 667.31 774.541 672.586C743.161 676.143 714.41 656.26 720.77 635.4C727.128 614.551 760.206 603.255 787.963 612.454ZM1165.26 610.709C1199.54 617.792 1209.88 647.24 1183.92 663.908C1152.23 684.26 1100.79 668.105 1103.61 638.687C1105.54 618.511 1136.03 604.671 1165.26 610.709ZM507.196 628.444C508.577 632.293 508.415 649.615 506.947 655.096C495.53 697.713 436.162 728.282 373.211 723.958C367.059 723.535 361.864 723.085 361.669 722.958C360.916 722.467 351.081 708.855 351.35 708.676C351.506 708.571 355.486 709.131 360.196 709.92C408.556 718.018 463.986 698.78 481.923 667.67C489.668 654.237 491.61 637.259 486.843 624.639C485.663 621.514 484.697 618.892 484.697 618.811C484.697 618.73 489.555 620.298 495.494 622.294C505.846 625.774 506.329 626.027 507.196 628.444ZM1274.02 628.444C1275.4 632.293 1275.24 649.615 1273.77 655.096C1262.36 697.713 1202.99 728.282 1140.04 723.958C1133.88 723.535 1128.69 723.085 1128.49 722.958C1127.74 722.467 1117.91 708.855 1118.18 708.676C1118.33 708.571 1122.31 709.131 1127.02 709.92C1175.38 718.018 1230.81 698.78 1248.75 667.67C1256.49 654.237 1258.44 637.259 1253.67 624.639C1252.49 621.514 1251.52 618.892 1251.52 618.811C1251.52 618.73 1256.38 620.298 1262.32 622.294C1272.67 625.774 1273.16 626.027 1274.02 628.444ZM880.044 622.579C891.903 626.455 891.221 625.287 891.133 641.582C890.91 682.55 849.968 715.288 789.214 723.079C779.876 724.276 757.18 724.52 749.285 723.508L744.956 722.953L739.521 715.668C734.683 709.181 734.313 708.417 736.154 708.694C737.29 708.866 741.468 709.521 745.437 710.149C817.098 721.504 887.302 675.293 871.114 627.425C868.299 619.101 868.249 618.875 869.28 619.134C869.819 619.27 874.664 620.82 880.044 622.579ZM0.739928 628.228V634.986L3.62539 635.373C12.1923 636.519 10.9742 647.374 2.27935 647.374C0.970842 647.374 0.739928 648.339 0.739928 653.809V660.244H3.45509C12.834 660.244 24.8541 653.973 27.9589 647.461C33.5508 635.73 22.7576 623.824 4.78862 621.902L0.739928 621.469V628.228ZM376.456 622.495C344.321 629.615 350.554 659.923 384.153 659.923C421.153 659.923 422.637 623.589 385.705 621.891C382.735 621.754 378.572 622.026 376.456 622.495ZM758.418 622.751C737.874 627.67 732.083 644.244 747.322 654.5C769.154 669.192 805.307 653.637 794.447 634.225C789.152 624.76 772.359 619.412 758.418 622.751ZM1143.28 622.495C1111.15 629.615 1117.38 659.923 1150.98 659.923C1187.98 659.923 1189.46 623.589 1152.53 621.891C1149.56 621.754 1145.4 622.026 1143.28 622.495ZM1525.24 622.79C1509.9 626.338 1502.15 636.921 1507.17 647.461C1510.28 653.973 1522.3 660.244 1531.68 660.244H1534.39V653.809C1534.39 648.339 1534.16 647.374 1532.85 647.374C1524.16 647.374 1522.94 636.519 1531.51 635.373L1534.39 634.986V628.31C1534.39 620.645 1534.43 620.666 1525.24 622.79ZM538.771 632.255L546.181 633.332L546.828 636.216C547.73 640.237 546.456 652.166 544.242 660.444C530.103 713.292 457.527 752.374 378.263 749.825L372.372 749.635L370.737 744.125C369.836 741.095 368.911 738.284 368.679 737.88C368.373 737.347 372.697 737.138 384.383 737.12C464.348 737.001 527.079 695.305 527.435 642.037C527.51 630.931 527.57 630.596 529.436 630.883C530.494 631.046 534.695 631.663 538.771 632.255ZM917.521 631.544C920.508 632.04 924.637 632.64 926.697 632.878L930.443 633.309L929.899 644.364C927.248 698.372 869.029 741.431 788.308 749.09C781.541 749.731 757.129 750.005 756.296 749.449C755.829 749.135 752.24 738.929 752.197 737.788C752.181 737.385 758.042 737.131 767.806 737.11C848.178 736.934 910.919 694.865 910.997 641.1C911.005 635.349 911.255 630.643 911.551 630.643C911.847 630.643 914.534 631.049 917.521 631.544ZM1305.6 632.255L1313.01 633.332L1313.65 636.216C1314.56 640.237 1313.28 652.166 1311.07 660.444C1296.93 713.276 1224.33 752.374 1145.09 749.825L1139.2 749.635L1137.56 744.125C1136.66 741.095 1135.74 738.284 1135.5 737.88C1135.2 737.347 1139.52 737.138 1151.21 737.12C1232.71 736.998 1296.92 692.854 1294.67 638.495C1294.35 630.858 1294.41 630.593 1296.26 630.88C1297.32 631.044 1301.52 631.663 1305.6 632.255ZM201.827 640.981V647.374H192.206H182.584V640.981V634.587H192.206H201.827V640.981ZM585.721 640.963V647.374H576.1H566.479V640.97V634.567L576.1 634.56L585.721 634.552V640.963ZM968.653 640.97V647.374H959.032H949.41V640.963V634.552L959.032 634.56L968.653 634.567V640.97ZM1352.55 640.963V647.374H1342.93H1333.3V640.97V634.567L1342.93 634.56L1352.55 634.552V640.963ZM390.708 636.952C396.488 640.988 392.553 647.052 384.153 647.052C380.42 647.052 379.262 646.746 377.334 645.247C372.066 641.151 376.119 635.147 384.153 635.147C387.246 635.147 388.693 635.546 390.708 636.952ZM772.429 635.81C780.142 638.571 776.44 647.374 767.566 647.374C763.909 647.374 757.944 643.804 757.944 641.615C757.944 636.77 766.045 633.524 772.429 635.81ZM1157.53 636.952C1163.31 640.988 1159.38 647.052 1150.98 647.052C1147.25 647.052 1146.09 646.746 1144.16 645.247C1138.89 641.151 1142.94 635.147 1150.98 635.147C1154.07 635.147 1155.52 635.546 1157.53 636.952ZM176.337 725.635C148.454 730.143 127.668 746.851 125.262 766.69L124.591 772.216H134.826H145.061V768.1C145.061 756.254 157.533 744.325 174.778 739.68C205.294 731.458 240.196 747.162 240.298 769.159L240.313 772.216H249.934H259.556L259.539 768.194C259.423 740.358 217.599 718.964 176.337 725.635ZM560.706 725.511C531.421 729.98 508.848 748.53 508.766 768.194L508.75 772.216H518.372H527.993L528.007 769.159C528.109 747.162 563.012 731.458 593.528 739.68C610.773 744.325 623.245 756.254 623.245 768.1V772.216H633.48H643.714L643.044 766.69C639.655 738.752 600.911 719.375 560.706 725.511ZM943.163 725.635C915.28 730.143 894.494 746.851 892.088 766.69L891.417 772.216H901.652H911.887V768.1C911.887 756.254 924.359 744.325 941.604 739.68C972.12 731.458 1007.02 747.162 1007.12 769.159L1007.14 772.216H1016.76H1026.38L1026.37 768.194C1026.25 740.358 984.425 718.964 943.163 725.635ZM1327.53 725.511C1298.25 729.98 1275.67 748.53 1275.59 768.194L1275.58 772.216H1285.2H1294.82L1294.83 769.159C1294.94 747.162 1329.84 731.458 1360.35 739.68C1377.6 744.325 1390.07 756.254 1390.07 768.1V772.216H1400.31H1410.54L1409.87 766.69C1406.48 738.752 1367.74 719.375 1327.53 725.511ZM180.179 751.874C170.818 754.843 164.586 761.066 163.586 768.443L163.074 772.216H173.31H183.547V769.516C183.547 763.948 192.393 761.161 198.646 764.759C200.875 766.041 201.346 766.828 201.346 769.264V772.216H211.337H221.329L220.862 767.872C219.426 754.487 198.227 746.151 180.179 751.874ZM562.822 752.304C553.242 755.506 548.226 760.584 547.444 767.872L546.977 772.216H556.969H566.96V769.264C566.96 766.828 567.431 766.041 569.659 764.759C575.913 761.161 584.759 763.948 584.759 769.516V772.216H594.995H605.232L604.72 768.443C602.779 754.127 581.681 746.001 562.822 752.304ZM947.005 751.874C937.644 754.843 931.412 761.066 930.412 768.443L929.9 772.216H940.136H950.373V769.516C950.373 763.948 959.218 761.161 965.472 764.759C967.701 766.041 968.172 766.828 968.172 769.264V772.216H978.163H988.155L987.688 767.872C986.252 754.487 965.053 746.151 947.005 751.874ZM1329.65 752.304C1320.07 755.506 1315.05 760.584 1314.27 767.872L1313.8 772.216H1323.79H1333.79V769.264C1333.79 766.828 1334.26 766.041 1336.49 764.759C1342.74 761.161 1351.59 763.948 1351.59 769.516V772.216H1361.82H1372.06L1371.55 768.443C1369.61 754.127 1348.51 746.001 1329.65 752.304Z" fill="#000C24"/>
</svg>
