<svg width="34" height="34" viewBox="0 0 34 34" fill="none" xmlns="http://www.w3.org/2000/svg">
<path fill-rule="evenodd" clip-rule="evenodd" d="M16.8912 33.1458C26.2199 33.1458 33.7823 25.7258 33.7823 16.5729C33.7823 7.41994 26.2199 0 16.8912 0C7.56243 0 0 7.41994 0 16.5729C0 25.7258 7.56243 33.1458 16.8912 33.1458ZM12.3762 30.7306C13.802 31.1678 15.3185 31.4035 16.8912 31.4035C18.4534 31.4035 19.9603 31.171 21.3778 30.7392V27.1139C21.3782 26.529 21.2599 25.95 21.0297 25.4105C20.7995 24.871 20.462 24.382 20.037 23.9719C24.9988 23.1157 27.075 20.1498 27.075 16.6212C27.075 14.9086 26.4944 13.3238 25.3542 12.0533C25.9984 10.0881 25.3311 8.40845 25.1791 8.02578C25.1716 8.00708 25.1654 7.99147 25.1607 7.97909C23.2604 7.8099 21.2898 9.19788 20.8922 9.49481C19.7203 9.18407 18.3902 9.01489 16.8981 9.01489C15.4131 9.01489 14.0864 9.17717 12.9252 9.48446C12.7598 9.35671 10.6343 7.74085 8.58976 7.92039C8.5859 7.93011 8.58113 7.94186 8.57557 7.95559C8.42882 8.31741 7.7257 10.0511 8.41733 12.0636C7.29125 13.3307 6.71766 14.9017 6.71766 16.6108C6.71766 20.1325 8.77979 23.0949 13.7275 23.965C13.1363 24.5278 12.707 25.2529 12.5064 26.0643C11.5879 26.2887 9.77566 26.5166 8.84665 25.1666C7.56221 23.3056 6.45373 22.6185 5.36636 23.1675C5.12498 23.4407 5.43715 23.6467 5.88104 23.9396C6.2784 24.2018 6.78131 24.5336 7.08715 25.0457C7.13402 25.1215 7.17818 25.2527 7.23439 25.4196C7.5622 26.3931 8.29988 28.5838 12.3762 28.1152V30.7306Z" fill="#928A97"/>
</svg>
