<svg width="152" height="100" viewBox="0 0 152 100" fill="none" xmlns="http://www.w3.org/2000/svg">
<path d="M76.976 15.7059C77.8294 15.7531 78.6776 15.8614 79.513 16.0298C80.9423 16.4066 82.3716 16.4727 82.9434 15.1043C83.2507 14.4036 82.636 13.3592 82.3573 12.1296C82.7861 12.1296 83.6509 11.8388 84.2869 12.0834C86.6381 12.989 87.4814 12.0834 87.4886 9.85566C89.5254 9.71023 91.212 9.19462 91.4764 6.94047C91.5193 6.55046 92.5913 6.0018 93.213 5.97535C97.8654 5.74399 98.2156 5.45313 98.3371 1.61249L100.653 2.78914L100.903 0.0788771C102.461 -0.582163 103.461 3.19238 105.555 1.00433C107.449 2.83541 109 2.70982 113.688 0.2838C113.216 1.00433 112.873 1.52656 112.487 2.10166C114.46 3.64188 115.232 1.20925 117.147 0.984501C113.231 4.5409 115.56 7.35032 117.383 10.3977C117.962 11.3562 117.547 12.9692 117.226 14.1987C116.861 15.5737 115.925 16.8429 115.539 18.198C114.939 20.3133 114.603 22.4881 114.017 25.2909L111.873 23.05C110.553 24.1065 109.303 25.2344 108.128 26.4279C107.699 26.9039 107.885 27.8492 107.835 28.1995L117.276 28.8606L117.347 28.4507C117.073 28.3711 116.808 28.2694 116.554 28.1466C116.283 27.9469 116.032 27.7257 115.803 27.4856L118.069 26.223C119.034 28.8672 118.784 32.3442 122.871 32.9656C123.272 33.0251 123.743 32.6814 124.165 32.5293C126.831 34.3802 129.375 36.7071 132.955 37.9829C131.969 39.1596 130.725 39.966 132.669 41.1162C133.255 41.4534 133.055 42.9605 133.22 43.9389L134.313 44.4214C134.631 43.9272 134.895 43.4045 135.099 42.8614C135.864 39.9859 138.401 38.4588 140.516 36.5947C141.66 35.5899 142.517 35.5172 143.647 36.6542C144.64 37.659 146.162 38.2539 146.998 39.2984C148.606 41.3608 150.943 43.6017 151.043 45.8361C151.179 48.8372 149.085 51.6796 145.969 53.3719C143.318 54.8064 140.831 54.3502 138.601 52.5853C136.571 50.9789 134.635 49.2801 132.548 47.4953C133.527 49.8486 131.119 50.6683 129.768 52.1225C129.453 52.4663 129.475 53.0744 129.053 53.1339L125.165 55.3286C124.722 55.4013 123.858 55.5666 122.979 55.6591C122.1 55.7517 121.006 56.0359 120.156 55.8045C118.606 55.3588 117.113 54.7581 115.703 54.0131C114.91 53.6099 114.381 52.777 113.617 52.3142C111.701 51.1574 110.901 49.3065 109.836 47.5944C109.672 47.33 109.007 47.3234 109.236 47.3895C108.521 45.8493 108.042 44.7453 107.513 43.5753L105.612 44.4545L105.055 42.9936L100.695 40.7593L97.3294 43.2778H99.5235C99.5235 45.3865 99.5235 47.4159 99.5235 49.4453C99.5968 49.9939 99.5556 50.5505 99.402 51.0847C98.623 52.6382 97.7725 54.1652 96.8363 55.6393C95.9001 57.1134 95.164 58.9445 92.9129 59.308C92.7628 59.308 92.5269 59.3874 92.4983 59.4799C91.5621 62.0183 88.6249 61.7869 86.7382 63.0033C86.3308 63.2677 85.4804 62.9305 84.7229 62.8644L83.4365 67.4917C81.7713 66.4407 79.5559 66.4737 79.5201 64.1865C78.8499 64.0925 78.1748 64.0307 77.4977 64.0014C77.4048 63.8097 77.0974 63.1289 76.7115 62.2827C74.3603 63.5255 71.7947 64.1469 71.3373 66.249L65.4342 70.2152L63.8048 69.8318C63.0901 70.7705 62.6113 71.8876 61.7251 72.5487C59.5097 74.2013 60.6317 75.4903 61.7823 77.1099C62.7185 78.4319 63.1401 80.0316 63.7905 81.5058L62.7328 81.9024L60.21 76.8587C58.7807 76.1513 57.5944 75.5366 56.4009 75.0342C55.7792 74.7698 54.8287 74.3004 54.4713 74.5252C51.87 76.158 48.2038 76.1778 46.46 79.1525C45.8934 80.0992 45.17 80.9579 44.316 81.6975C42.9869 82.7787 42.1431 84.2807 41.9505 85.9083C41.3788 89.8216 40.3211 93.6755 39.392 97.536C39.1798 98.1324 38.8476 98.6864 38.4129 99.1687C38.3486 99.2547 37.634 99.0894 37.6268 99.0101C37.4797 98.3427 37.4797 97.6547 37.6268 96.9873C39.0133 93.4507 40.364 89.9406 39.4706 86.0603C39.4335 85.7809 39.4635 85.4974 39.5587 85.23C39.6538 84.9625 39.8117 84.7179 40.0209 84.5135C42.3007 82.57 42.3221 79.8333 43.0439 77.3544C43.1654 76.9248 42.5723 76.3166 41.9862 75.9068C42.8152 72.4561 39.3063 72.1256 37.4553 70.4928L34.9111 72.1256C35.1612 70.6052 37.248 69.3228 35.197 68.047C33.9249 67.2537 32.5813 66.5597 30.9662 65.6474C31.3521 64.4443 30.5017 63.6974 28.4577 63.9287C28.0146 61.0201 27.1999 58.3429 24.1698 57.3183C25.0384 56.4937 25.8387 55.6098 26.5639 54.6742C26.7068 54.456 25.9564 53.7289 25.3418 52.8365C25.7349 50.0469 25.2918 48.5133 22.3188 48.6587C23.8911 47.1846 23.7982 46.3318 21.4183 44.3818C21.011 46.312 20.6608 47.958 20.3321 49.5247H9.56929V49.3991L16.6373 48.3348C19.2458 47.9315 20.425 45.6245 19.9461 43.2448C19.6102 41.5922 19.1171 40.4618 17.3233 40.3759C15.9181 40.32 14.5141 40.5107 13.1855 40.9377C8.80461 42.3722 4.48806 43.9521 0 45.2609C1.09301 44.8215 2.16158 44.3317 3.20168 43.7934C5.6744 42.3458 8.20429 40.9378 10.4841 39.2785C11.8062 38.32 14.4719 37.8573 15.8297 38.8423C17.9737 40.3825 18.9528 40.0453 19.646 37.7251C19.7961 37.2359 20.6179 36.8459 21.2111 36.5484C22.6404 35.8411 24.1626 35.3189 25.499 34.5058C26.0922 34.1489 26.3066 33.2631 26.8212 32.4037L22.1687 32.0203V31.5444L25.6634 31.5444C24.9834 30.4611 24.2365 29.4149 23.4265 28.411C22.5118 27.4195 22.6333 26.7518 23.8625 26.2164C25.7563 25.3835 26.5139 24.1011 26.0065 22.151C25.9064 21.7676 26.4281 21.2388 26.6711 20.776C26.8569 20.4125 27.1999 20.0687 27.2285 19.6985C27.1712 18.7957 27.3324 17.8924 27.7002 17.0544C27.2571 16.4661 26.814 15.8777 25.9636 14.7672L28.9294 15.2365C29.2224 13.6897 30.0086 12.0834 27.5501 11.3562C27.414 11.2881 27.3079 11.1783 27.25 11.0455C26.4996 9.67057 25.7492 8.28899 24.8487 6.61656C26.328 7.38337 27.9217 7.93864 29.1795 8.92359C30.7446 10.1069 32.224 9.34666 33.5461 8.92359C34.1965 8.70545 34.418 7.37676 34.7467 6.71572C35.6544 6.98674 36.8407 7.64778 37.9984 7.60812C39.8137 7.54202 41.5717 7.09912 43.3941 7.81965C43.6657 7.92542 44.4018 7.19166 44.8234 6.7686C45.4952 6.10756 46.0884 5.39364 46.7173 4.69955C47.2747 5.63161 47.8822 6.54385 48.3538 7.50897C48.4466 7.98549 48.4466 8.47351 48.3538 8.95003C50.5907 9.04919 50.1548 10.6026 50.1191 11.4554C51.9271 13.26 54.1069 14.5821 54.7215 16.3669C55.1074 17.4576 55.3647 18.8392 56.2222 19.4011C57.3586 20.148 58.988 20.3596 60.4387 20.4918C60.7532 20.4918 61.3392 19.2953 61.575 18.5814C62.0396 17.1469 63.1687 17.0808 65.863 18.6343L62.7828 20.3265C63.0187 20.8554 63.2688 21.3908 63.426 21.7279C62.7181 21.8471 62.0353 22.0703 61.4035 22.389C61.2392 22.5212 61.6822 23.3475 61.8466 23.8499C62.4684 23.5987 63.2759 23.4929 63.6833 23.0698C64.8911 21.8403 65.9488 20.4852 67.1065 19.1036C67.8855 20.2274 68.1571 22.5212 70.2582 21.9461C70.9728 23.9292 71.5874 25.681 72.2521 27.4525C72.4522 27.9814 73.0525 28.5234 72.9667 28.9795C72.5308 31.3527 74.7605 31.1279 76.0469 31.7691C76.2899 31.8881 77.0045 31.6039 77.1975 31.3262C78.1694 29.8918 78.8198 28.1995 80.0561 27.0096C80.6779 26.4081 82.2859 26.6857 83.9868 26.5073C83.8081 25.8462 83.8724 24.3721 83.1935 23.9622C82.3716 23.4599 80.9209 23.8433 79.3986 23.8433C80.6707 23.1227 82.1429 22.7327 82.5289 21.913C82.8004 21.3247 81.6856 20.1018 81.0352 19.2689C80.2943 18.352 79.4771 17.49 78.5911 16.6908C78.091 16.2869 77.5555 15.9221 76.9902 15.6001L76.976 15.7059Z" fill="white"/>
</svg>
