<svg width="21" height="21" viewBox="0 0 21 21" fill="none" xmlns="http://www.w3.org/2000/svg">
<path d="M10.843 20.1621C5.32787 20.1621 0.856934 15.7117 0.856934 10.2221C0.856934 4.73238 5.32787 0.282104 10.843 0.282104C16.3582 0.282104 20.8292 4.73238 20.8292 10.2221C20.8231 15.7092 16.3557 20.156 10.843 20.1621ZM10.843 2.2701C6.4309 2.2701 2.85416 5.83032 2.85416 10.2221C2.85416 14.6139 6.4309 18.1741 10.843 18.1741C15.2552 18.1741 18.8319 14.6139 18.8319 10.2221C18.8269 5.83237 15.2531 2.27503 10.843 2.2701ZM10.843 15.1921L5.84999 10.2221L7.25803 8.82054L9.84443 11.3851V5.25209H11.8417V11.3851L14.4281 8.82054L15.8361 10.2221L10.843 15.1921Z" fill="#000C24"/>
</svg>
