<svg width="19" height="19" viewBox="0 0 19 19" fill="none" xmlns="http://www.w3.org/2000/svg">
<path d="M9.16667 0.199951C4.19742 0.199951 0 4.39828 0 9.36662C0 14.335 4.19742 18.5333 9.16667 18.5333C14.1359 18.5333 18.3333 14.335 18.3333 9.36662C18.3333 4.39828 14.1359 0.199951 9.16667 0.199951ZM9.16667 12.1166C10.076 12.1166 10.8625 11.8737 11.2686 11.4676L12.5648 12.7647C11.5326 13.796 9.99259 13.95 9.16667 13.95C6.63942 13.95 4.58333 11.8939 4.58333 9.36662C4.58333 6.83937 6.63942 4.78328 9.16667 4.78328C9.99259 4.78328 11.5335 4.93728 12.5648 5.96853L11.2686 7.2647C10.8634 6.85862 10.0769 6.61662 9.16667 6.61662C7.67617 6.61662 6.41667 7.87612 6.41667 9.36662C6.41667 10.8571 7.67617 12.1166 9.16667 12.1166Z" fill="#928A97"/>
</svg>
