<svg width="21" height="19" viewBox="0 0 21 19" fill="none" xmlns="http://www.w3.org/2000/svg">
<path d="M10.6684 18.4394C5.12254 18.4394 0.626709 14.3115 0.626709 9.21969C0.626709 4.12779 5.12254 0 10.6684 0C16.2143 0 20.7102 4.12779 20.7102 9.21969C20.704 14.3092 16.2118 18.4338 10.6684 18.4394ZM10.6684 1.84394C6.23172 1.84394 2.63505 5.14617 2.63505 9.21969C2.63505 13.2932 6.23172 16.5954 10.6684 16.5954C15.1052 16.5954 18.7018 13.2932 18.7018 9.21969C18.6968 5.14807 15.1031 1.84851 10.6684 1.84394ZM10.6684 13.8295L5.64757 9.21969L7.06345 7.91971L9.66426 10.2984V4.60984H11.6726V10.2984L14.2734 7.91971L15.6893 9.21969L10.6684 13.8295Z" fill="#000C24"/>
</svg>
